<svg width="24" height="24" viewBox="0 0 24 24" fill="none" xmlns="http://www.w3.org/2000/svg">
<path fill-rule="evenodd" clip-rule="evenodd" d="M6.63327 2L7.92169 3.54446L3.28832 7.40972L2 5.86526L6.63327 2ZM22 5.86588L17.3666 2.00061L16.0782 3.54507L20.7116 7.41033L22 5.86588ZM8.38983 12.6493L10.5318 14.7913L15.4896 9.81338L16.5556 10.8794L10.5218 16.9132L7.32386 13.7153L8.38983 12.6493ZM12.0001 4.20197C7.00206 4.20197 2.94934 8.25468 2.94934 13.2527C2.94934 18.2507 7.00206 22.3034 12.0001 22.3034C16.9981 22.3034 21.0508 18.2507 21.0508 13.2527C21.0508 8.25468 16.9981 4.20197 12.0001 4.20197Z" fill="black"/>
</svg>
