<svg width="24" height="24" viewBox="0 0 24 24" fill="none" xmlns="http://www.w3.org/2000/svg">
<path fill-rule="evenodd" clip-rule="evenodd" d="M17.4 1.90002L22 5.80002L20.7 7.30002L16.1 3.40002L17.4 1.90002ZM6.6 2.00002L7.9 3.50002L3.3 7.30002L2 5.80002L6.6 2.00002ZM9.44246 9.32121L8.14342 10.0712L11.1434 15.2674L16.6637 15.4288L16.7566 13.9896L12.0925 13.9111L9.44246 9.32121ZM12 4.10002C7 4.10002 3 8.10002 3 13.1C3 18.1 7 22.1 12 22.1C17 22.1 21 18.1 21 13.1C21 8.10002 17 4.10002 12 4.10002Z" fill="black"/>
</svg>
