<svg width="24" height="24" viewBox="0 0 24 24" fill="none" xmlns="http://www.w3.org/2000/svg">
<path fill-rule="evenodd" clip-rule="evenodd" d="M7.92169 3.54446L6.63327 2L2 5.86526L3.28832 7.40972L7.92169 3.54446ZM17.3666 2.00061L22 5.86588L20.7116 7.41033L16.0782 3.54507L17.3666 2.00061ZM10.5318 14.7913L8.38983 12.6493L7.32386 13.7153L10.5218 16.9132L16.5556 10.8794L15.4896 9.81338L10.5318 14.7913ZM12.0001 4.20195C7.00205 4.20195 2.94933 8.25466 2.94933 13.2527C2.94933 18.2507 7.00205 22.3034 12.0001 22.3034C16.9981 22.3034 21.0508 18.2507 21.0508 13.2527C21.0508 8.25466 16.9981 4.20195 12.0001 4.20195ZM4.96058 13.2526C4.96058 17.1344 8.11828 20.2921 12 20.2921C15.8818 20.2921 19.0395 17.1344 19.0395 13.2526C19.0395 9.37089 15.8818 6.21319 12 6.21319C8.11828 6.21319 4.96058 9.37089 4.96058 13.2526Z" fill="black"/>
</svg>
