<svg width="24" height="24" viewBox="0 0 24 24" fill="none" xmlns="http://www.w3.org/2000/svg">
<path fill-rule="evenodd" clip-rule="evenodd" d="M22 12C22 17.5228 17.5228 22 12 22C6.47715 22 2 17.5228 2 12C2 6.47715 6.47715 2 12 2C17.5228 2 22 6.47715 22 12ZM16.7444 8.23889L15.9722 7.30556C15.8222 7.11667 15.5944 7 15.3333 7H8.66667C8.40556 7 8.17778 7.11667 8.02222 7.30556L7.25556 8.23889C7.09444 8.42778 7 8.67778 7 8.94444V15.8889C7 16.5 7.5 17 8.11111 17H15.8889C16.5 17 17 16.5 17 15.8889V8.94444C17 8.67778 16.9056 8.42778 16.7444 8.23889ZM8.8 8.11111H15.2L15.65 8.65H8.35556L8.8 8.11111ZM8.11111 9.77778V15.8889H15.8889V9.77778H8.11111ZM9.22222 11.4444H14.7778V12.5556H9.22222V11.4444Z" fill="black"/>
</svg>
