<svg width="24" height="24" viewBox="0 0 24 24" fill="none" xmlns="http://www.w3.org/2000/svg">
<path d="M14.7778 11.4444H9.22222V12.5556H14.7778V11.4444Z" fill="black"/>
<path fill-rule="evenodd" clip-rule="evenodd" d="M15.9722 7.30556L16.7444 8.23889C16.9056 8.42778 17 8.67778 17 8.94444V15.8889C17 16.5 16.5 17 15.8889 17H8.11111C7.5 17 7 16.5 7 15.8889V8.94444C7 8.67778 7.09444 8.42778 7.25556 8.23889L8.02222 7.30556C8.17778 7.11667 8.40556 7 8.66667 7H15.3333C15.5944 7 15.8222 7.11667 15.9722 7.30556ZM15.2 8.11111H8.8L8.35556 8.65H15.65L15.2 8.11111ZM8.11111 15.8889V9.77778H15.8889V15.8889H8.11111Z" fill="black"/>
<path fill-rule="evenodd" clip-rule="evenodd" d="M12 22C17.5228 22 22 17.5228 22 12C22 6.47715 17.5228 2 12 2C6.47715 2 2 6.47715 2 12C2 17.5228 6.47715 22 12 22ZM12 20C16.4183 20 20 16.4183 20 12C20 7.58172 16.4183 4 12 4C7.58172 4 4 7.58172 4 12C4 16.4183 7.58172 20 12 20Z" fill="black"/>
</svg>
