<svg width="24" height="24" viewBox="0 0 24 24" fill="none" xmlns="http://www.w3.org/2000/svg">
<path fill-rule="evenodd" clip-rule="evenodd" d="M21 3L2.99997 3V21H21V3ZM6.31725 6.28283L10.3173 6.28281V8.28281H9.73134L12.0201 10.5716L14.1172 8.47451H13.5315V6.47451L17.5315 6.47454L17.5315 10.4745H15.5315V9.88862L13.4343 11.9858L15.3681 13.9196V13.3741H17.3681L17.3682 17.374H13.3682V15.374H13.9941L12.0201 13.4L9.89473 15.5254H10.4403L10.4403 17.5254L6.44031 17.5255L6.44031 13.5255L8.44032 13.5255L8.44032 14.1514L10.6059 11.9858L8.31723 9.69713V10.2828H6.31723L6.31725 6.28283Z" fill="black"/>
</svg>
