<svg width="24" height="24" viewBox="0 0 24 24" fill="none" xmlns="http://www.w3.org/2000/svg">
<path fill-rule="evenodd" clip-rule="evenodd" d="M12 23C18.0751 23 23 18.0751 23 12C23 5.92487 18.0751 1 12 1C5.92487 1 1 5.92487 1 12C1 18.0751 5.92487 23 12 23ZM21 12C21 16.9706 16.9706 21 12 21C7.02944 21 3 16.9706 3 12C3 7.02944 7.02944 3 12 3C16.9706 3 21 7.02944 21 12ZM8.46319 13.12L10.2916 14.9484L8.87738 16.3626L4.63474 12.12L8.87738 7.87732L10.2916 9.29153L8.4631 11.12H15.5316L13.7058 9.29422L15.12 7.88L19.3627 12.1227L15.12 16.3653L13.7058 14.9511L15.5369 13.12H8.46319Z" fill="black"/>
</svg>
