<svg width="24" height="24" viewBox="0 0 24 24" fill="none" xmlns="http://www.w3.org/2000/svg">
<path fill-rule="evenodd" clip-rule="evenodd" d="M12 23C18.0751 23 23 18.0751 23 12C23 5.92487 18.0751 1 12 1C5.92487 1 1 5.92487 1 12C1 18.0751 5.92487 23 12 23ZM21 12C21 16.9706 16.9706 21 12 21C7.02944 21 3 16.9706 3 12C3 7.02944 7.02944 3 12 3C16.9706 3 21 7.02944 21 12ZM10.9853 6.67158L5.32842 12.3284L10.9853 17.9853L12.3995 16.5711L9.15685 13.3284L17.9853 13.3284V11.3284L9.15685 11.3284L12.3995 8.08579L10.9853 6.67158Z" fill="black"/>
</svg>
