<svg width="24" height="24" viewBox="0 0 24 24" fill="none" xmlns="http://www.w3.org/2000/svg">
<path fill-rule="evenodd" clip-rule="evenodd" d="M12 23C18.0751 23 23 18.0751 23 12C23 5.92487 18.0751 1 12 1C5.92487 1 1 5.92487 1 12C1 18.0751 5.92487 23 12 23ZM21 12C21 16.9706 16.9706 21 12 21C7.02944 21 3 16.9706 3 12C3 7.02944 7.02944 3 12 3C16.9706 3 21 7.02944 21 12ZM13.7925 8.91514H11.2068V6.91514L17.2068 6.91513L17.2068 12.9152L15.2068 12.9152V10.3293L10.2086 15.3275H12.7907L12.7907 17.3275L6.79065 17.3275V11.3275L8.79065 11.3275L8.79065 13.917L13.7925 8.91514Z" fill="black"/>
</svg>
