<svg width="24" height="24" viewBox="0 0 24 24" fill="none" xmlns="http://www.w3.org/2000/svg">
<path fill-rule="evenodd" clip-rule="evenodd" d="M2.99997 1L0.999969 1L0.999969 3L0.999969 21L0.999969 23H2.99997H21H23V21V3V1L21 1L2.99997 1ZM2.99997 3H4.99997L19 3H21V5V19V21H19H4.99997H2.99997V19L2.99997 5V3ZM8.46319 13.12L10.2916 14.9484L8.87738 16.3626L4.63474 12.12L8.87738 7.87732L10.2916 9.29153L8.4631 11.12H15.5316L13.7058 9.29422L15.12 7.88L19.3627 12.1227L15.12 16.3653L13.7058 14.9511L15.5369 13.12H8.46319Z" fill="black"/>
</svg>
