<svg width="24" height="24" viewBox="0 0 24 24" fill="none" xmlns="http://www.w3.org/2000/svg">
<path fill-rule="evenodd" clip-rule="evenodd" d="M12 23C18.0751 23 23 18.0751 23 12C23 5.92487 18.0751 1 12 1C5.92487 1 1 5.92487 1 12C1 18.0751 5.92487 23 12 23ZM21 12C21 16.9706 16.9706 21 12 21C7.02944 21 3 16.9706 3 12C3 7.02944 7.02944 3 12 3C16.9706 3 21 7.02944 21 12ZM11.5711 8.25737L10.1569 6.84315L4.5 12.5L10.1569 18.1569L11.5711 16.7426L8.32841 13.5L17.1568 13.5V6.49999H15.1568V11.5H8.32845L11.5711 8.25737Z" fill="black"/>
</svg>
