<svg width="24" height="24" viewBox="0 0 24 24" fill="none" xmlns="http://www.w3.org/2000/svg">
<path fill-rule="evenodd" clip-rule="evenodd" d="M21 3H3V21H21V3ZM12.0001 4.1716L14.8285 7.00001L13.4143 8.41422L13 7.99992V10.8143H15.8142L15.4285 10.4285L16.8427 9.01431L19.6711 11.8427L16.8427 14.6711L15.4285 13.2569L15.8711 12.8143H13V15.9715L13.3857 15.5858L14.8 17L11.9716 19.8284L9.14319 17L10.5574 15.5858L11 16.0284V12.8143H7.84275L8.25691 13.2284L6.84269 14.6426L4.01428 11.8142L6.84269 8.98575L8.25691 10.4L7.8426 10.8143H11V8.00007L10.5858 8.41423L9.17163 7.00001L12.0001 4.1716Z" fill="black"/>
</svg>
