<svg width="24" height="24" viewBox="0 0 24 24" fill="none" xmlns="http://www.w3.org/2000/svg">
<g clip-path="url(#clip0)">
<path d="M4.92893 4.92892L10.6863 5.02944L10.7198 6.94856L8.23858 6.90524L12 10.6667L15.7614 6.90525L13.2802 6.94857L13.3137 5.02945L19.0711 4.92894L18.9706 10.6863L17.0514 10.7198L17.0947 8.23859L13.3333 12L17.0948 15.7614L17.0514 13.2802L18.9706 13.3137L19.0711 19.0711L13.3137 18.9705L13.2802 17.0514L15.7614 17.0947L12 13.3333L8.23857 17.0948L10.7198 17.0515L10.6863 18.9706L4.92893 19.0711L5.02944 13.3137L6.94856 13.2802L6.90525 15.7614L10.6667 12L6.90524 8.23856L6.94855 10.7198L5.02943 10.6863L4.92893 4.92892Z" fill="black"/>
</g>
<defs>
<clipPath id="clip0">
<rect width="24" height="24" fill="white"/>
</clipPath>
</defs>
</svg>
