<svg width="24" height="24" viewBox="0 0 24 24" fill="none" xmlns="http://www.w3.org/2000/svg">
<path fill-rule="evenodd" clip-rule="evenodd" d="M12 23C18.0751 23 23 18.0751 23 12C23 5.92487 18.0751 1 12 1C5.92487 1 1 5.92487 1 12C1 18.0751 5.92487 23 12 23ZM21 12C21 16.9706 16.9706 21 12 21C7.02944 21 3 16.9706 3 12C3 7.02944 7.02944 3 12 3C16.9706 3 21 7.02944 21 12ZM17.3137 11.6569L11.6569 6L6 11.6569L7.41421 13.0711L10.6569 9.82843L10.6569 18.6569H12.6569L12.6569 9.82843L15.8995 13.0711L17.3137 11.6569Z" fill="black"/>
</svg>
