<svg width="24" height="24" viewBox="0 0 24 24" fill="none" xmlns="http://www.w3.org/2000/svg">
<path fill-rule="evenodd" clip-rule="evenodd" d="M12 23C18.0751 23 23 18.0751 23 12C23 5.92487 18.0751 1 12 1C5.92487 1 1 5.92487 1 12C1 18.0751 5.92487 23 12 23ZM21 12C21 16.9706 16.9706 21 12 21C7.02944 21 3 16.9706 3 12C3 7.02944 7.02944 3 12 3C16.9706 3 21 7.02944 21 12ZM13.5 18.1569L19.1569 12.5L13.5 6.84311L12.0858 8.25732L15.3285 11.5H8.50003V6.49997H6.50003L6.50003 13.5H15.3285L12.0858 16.7426L13.5 18.1569Z" fill="black"/>
</svg>
