<svg width="24" height="24" viewBox="0 0 24 24" fill="none" xmlns="http://www.w3.org/2000/svg">
<path d="M12 2L16 6.14214L14.6667 7.52285L12.9428 5.73775V11.0572H18.2623L16.4771 9.33335L17.8579 8.00002L22 12L17.8579 16L16.4771 14.6667L18.2622 12.9428H12.9428V18.2623L14.6667 16.4772L16 17.8579L12 22L8.00001 17.8579L9.33335 16.4772L11.0572 18.2623V12.9428H5.73772L7.52283 14.6667L6.14212 16L1.99998 12L6.14212 8.00003L7.52283 9.33336L5.73773 11.0572H11.0572V5.73773L9.33333 7.52285L8 6.14214L12 2Z" fill="black"/>
</svg>
