<svg width="24" height="24" viewBox="0 0 24 24" fill="none" xmlns="http://www.w3.org/2000/svg">
<path fill-rule="evenodd" clip-rule="evenodd" d="M12 23C18.0751 23 23 18.0751 23 12C23 5.92487 18.0751 1 12 1C5.92487 1 1 5.92487 1 12C1 18.0751 5.92487 23 12 23ZM21 12C21 16.9706 16.9706 21 12 21C7.02944 21 3 16.9706 3 12C3 7.02944 7.02944 3 12 3C16.9706 3 21 7.02944 21 12ZM11 8.58581L9.1716 10.4142L7.75739 9L12 4.75735L16.2427 9L14.8285 10.4142L13 8.58572V15.6542L14.8258 13.8284L16.24 15.2426L11.9973 19.4853L7.7547 15.2426L9.16891 13.8284L11 15.6595V8.58581Z" fill="black"/>
</svg>
