<svg width="24" height="24" viewBox="0 0 24 24" fill="none" xmlns="http://www.w3.org/2000/svg">
<path fill-rule="evenodd" clip-rule="evenodd" d="M2.99997 1L0.999969 1L0.999969 3L0.999969 21L0.999969 23H2.99997H21H23V21V3V1L21 1L2.99997 1ZM2.99997 3H4.99997L19 3H21V5V19V21H19H4.99997H2.99997V19L2.99997 5V3ZM6.31725 6.28283L10.3173 6.28281V8.28281H9.73134L12.0201 10.5716L14.1172 8.47451H13.5315V6.47451L17.5315 6.47454L17.5315 10.4745L15.5315 10.4745V9.88862L13.4343 11.9858L15.3681 13.9196V13.3741L17.3681 13.3741L17.3682 17.374H13.3682L13.3682 15.374H13.9941L12.0201 13.4L9.89473 15.5254H10.4403L10.4403 17.5254L6.44031 17.5255V13.5255L8.44032 13.5255V14.1514L10.6059 11.9858L8.31723 9.69713V10.2828H6.31723L6.31725 6.28283Z" fill="black"/>
</svg>
