<svg width="24" height="24" viewBox="0 0 24 24" fill="none" xmlns="http://www.w3.org/2000/svg">
<path fill-rule="evenodd" clip-rule="evenodd" d="M12 23C18.0751 23 23 18.0751 23 12C23 5.92487 18.0751 1 12 1C5.92487 1 1 5.92487 1 12C1 18.0751 5.92487 23 12 23ZM21 12C21 16.9706 16.9706 21 12 21C7.02944 21 3 16.9706 3 12C3 7.02944 7.02944 3 12 3C16.9706 3 21 7.02944 21 12ZM10.1568 5.49997L4.5 11.1568L10.1568 16.8137L11.571 15.3995L8.3284 12.1569H15.1568L15.1568 17.1569H17.1568V10.1569L8.32837 10.1569L11.571 6.91418L10.1568 5.49997Z" fill="black"/>
</svg>
