<svg width="24" height="24" viewBox="0 0 24 24" fill="none" xmlns="http://www.w3.org/2000/svg">
<path fill-rule="evenodd" clip-rule="evenodd" d="M12 23C18.0751 23 23 18.0751 23 12C23 5.92487 18.0751 1 12 1C5.92487 1 1 5.92487 1 12C1 18.0751 5.92487 23 12 23ZM21 12C21 16.9706 16.9706 21 12 21C7.02944 21 3 16.9706 3 12C3 7.02944 7.02944 3 12 3C16.9706 3 21 7.02944 21 12ZM8.79256 10.3275V12.9133H6.79256L6.79256 6.91328L12.7926 6.91325V8.91325L10.2067 8.91325L15.2049 13.9114V11.3294L17.2049 11.3294L17.2049 17.3294H11.2049L11.2049 15.3294L13.7944 15.3294L8.79256 10.3275Z" fill="black"/>
</svg>
