<svg width="24" height="24" viewBox="0 0 24 24" fill="none" xmlns="http://www.w3.org/2000/svg">
<path fill-rule="evenodd" clip-rule="evenodd" d="M12 23C18.0751 23 23 18.0751 23 12C23 5.92487 18.0751 1 12 1C5.92487 1 1 5.92487 1 12C1 18.0751 5.92487 23 12 23ZM21 12C21 16.9706 16.9706 21 12 21C7.02944 21 3 16.9706 3 12C3 7.02944 7.02944 3 12 3C16.9706 3 21 7.02944 21 12ZM6.31724 6.28282L10.3172 6.2828V8.2828H9.73133L12.0201 10.5716L14.1172 8.47451H13.5315V6.47451L17.5315 6.47453L17.5315 10.4745L15.5315 10.4745V9.88861L13.4343 11.9858L15.3681 13.9196V13.3741L17.3681 13.3741L17.3682 17.374H13.3682L13.3682 15.374H13.9941L12.0201 13.4L9.89472 15.5254H10.4402L10.4402 17.5254L6.4403 17.5255V13.5255L8.44031 13.5255L8.4403 14.1514L10.6059 11.9858L8.31722 9.69712V10.2828H6.31722L6.31724 6.28282Z" fill="black"/>
</svg>
