<svg width="24" height="24" viewBox="0 0 24 24" fill="none" xmlns="http://www.w3.org/2000/svg">
<path fill-rule="evenodd" clip-rule="evenodd" d="M2 2H22V22H2V2ZM12 8.125V10L14.5 7.5L12 5V6.875C9.2375 6.875 7 9.1125 7 11.875C7 12.8562 7.2875 13.7687 7.775 14.5375L8.6875 13.625C8.40625 13.1062 8.25 12.5062 8.25 11.875C8.25 9.80625 9.93125 8.125 12 8.125ZM16.225 9.21251L15.3125 10.125C15.5875 10.65 15.75 11.2438 15.75 11.875C15.75 13.9438 14.0688 15.625 12 15.625V13.75L9.5 16.25L12 18.75V16.875C14.7625 16.875 17 14.6375 17 11.875C17 10.8938 16.7125 9.98126 16.225 9.21251Z" fill="black"/>
</svg>
