<svg width="24" height="24" viewBox="0 0 24 24" fill="none" xmlns="http://www.w3.org/2000/svg">
<path fill-rule="evenodd" clip-rule="evenodd" d="M12 8.27273C9.89364 8.27273 8.18182 9.98455 8.18182 12.0909H10.0909L7.54545 14.6364L5 12.0909H6.90909C6.90909 9.27818 9.18727 7 12 7C12.9991 7 13.9282 7.29273 14.7109 7.78909L13.7818 8.71818C13.2536 8.43182 12.6427 8.27273 12 8.27273ZM13.9091 12.0909L16.4545 9.54545L19 12.0909H17.0909C17.0909 14.9036 14.8127 17.1818 12 17.1818C11.0009 17.1818 10.0718 16.8891 9.28909 16.3927L10.2182 15.4636C10.7464 15.75 11.3573 15.9091 12 15.9091C14.1064 15.9091 15.8182 14.1973 15.8182 12.0909H13.9091Z" fill="black"/>
<path fill-rule="evenodd" clip-rule="evenodd" d="M12 22C17.5228 22 22 17.5228 22 12C22 6.47715 17.5228 2 12 2C6.47715 2 2 6.47715 2 12C2 17.5228 6.47715 22 12 22ZM12 20C16.4183 20 20 16.4183 20 12C20 7.58172 16.4183 4 12 4C7.58172 4 4 7.58172 4 12C4 16.4183 7.58172 20 12 20Z" fill="black"/>
</svg>
