<svg width="24" height="24" viewBox="0 0 24 24" fill="none" xmlns="http://www.w3.org/2000/svg">
<path fill-rule="evenodd" clip-rule="evenodd" d="M12 10V8.125C9.93125 8.125 8.25 9.80625 8.25 11.875C8.25 12.5062 8.40625 13.1062 8.6875 13.625L7.775 14.5375C7.2875 13.7687 7 12.8562 7 11.875C7 9.1125 9.2375 6.875 12 6.875V5L14.5 7.5L12 10ZM15.3125 10.125L16.225 9.21251C16.7125 9.98126 17 10.8938 17 11.875C17 14.6375 14.7625 16.875 12 16.875V18.75L9.5 16.25L12 13.75V15.625C14.0687 15.625 15.75 13.9438 15.75 11.875C15.75 11.2438 15.5875 10.65 15.3125 10.125Z" fill="black"/>
<path fill-rule="evenodd" clip-rule="evenodd" d="M22 2H2V22H22V2ZM20 4H4V20H20V4Z" fill="black"/>
</svg>
