<svg width="24" height="24" viewBox="0 0 24 24" fill="none" xmlns="http://www.w3.org/2000/svg">
<path d="M12 9V7L9.5 9.5L12 12V10C13.655 10 15 11.345 15 13C15 14.655 13.655 16 12 16C10.345 16 9 14.655 9 13H8C8 15.21 9.79 17 12 17C14.21 17 16 15.21 16 13C16 10.79 14.21 9 12 9Z" fill="black"/>
<path fill-rule="evenodd" clip-rule="evenodd" d="M12 22C17.5228 22 22 17.5228 22 12C22 6.47715 17.5228 2 12 2C6.47715 2 2 6.47715 2 12C2 17.5228 6.47715 22 12 22ZM12 20C16.4183 20 20 16.4183 20 12C20 7.58172 16.4183 4 12 4C7.58172 4 4 7.58172 4 12C4 16.4183 7.58172 20 12 20Z" fill="black"/>
</svg>
