<svg width="24" height="24" viewBox="0 0 24 24" fill="none" xmlns="http://www.w3.org/2000/svg">
<path fill-rule="evenodd" clip-rule="evenodd" d="M11.84 4.33333C13.58 4.33333 15.06 5.44666 15.6067 6.99998H8.07334C8.62001 5.44666 10.1 4.33333 11.84 4.33333ZM11.84 3C14.3267 3 16.4067 4.69999 17 6.99998H21V19C21 20.1046 20.1046 21 19 21H5C3.89543 21 3 20.1046 3 19V6.99998H6.68C7.27334 4.69999 9.35334 3 11.84 3ZM14.6517 15.591L13.591 16.6517L12 15.0607L10.409 16.6517L9.34835 15.591L10.9393 14L9.34835 12.409L10.409 11.3483L12 12.9393L13.591 11.3483L14.6517 12.409L13.0607 14L14.6517 15.591Z" fill="black"/>
</svg>
