<svg width="24" height="24" viewBox="0 0 24 24" fill="none" xmlns="http://www.w3.org/2000/svg">
<path fill-rule="evenodd" clip-rule="evenodd" d="M17 6.99998C16.4067 4.69999 14.3267 3 11.84 3C9.35334 3 7.27334 4.69999 6.68 6.99998H3V19C3 20.1046 3.89543 21 5 21H19C20.1046 21 21 20.1046 21 19V6.99998H17ZM15.6067 6.99998C15.06 5.44666 13.58 4.33333 11.84 4.33333C10.1 4.33333 8.62001 5.44666 8.07334 6.99998H15.6067ZM5 8.99998H19V19H5V8.99998Z" fill="black"/>
<path d="M13.591 16.6517L14.6516 15.591L13.0607 14L14.6516 12.409L13.591 11.3483L12 12.9393L10.409 11.3483L9.34834 12.409L10.9393 14L9.34834 15.591L10.409 16.6517L12 15.0607L13.591 16.6517Z" fill="black"/>
</svg>
