<svg width="24" height="24" viewBox="0 0 24 24" fill="none" xmlns="http://www.w3.org/2000/svg">
<path fill-rule="evenodd" clip-rule="evenodd" d="M8 14.8182C8 15.2198 8.32561 15.5455 8.72727 15.5455H15.2727C15.6744 15.5455 16 15.2198 16 14.8182V9.72727C16 9.32561 15.6744 9 15.2727 9H8.72727C8.32561 9 8 9.32561 8 9.72727V14.8182ZM8.72727 11.1818H15.2727V14.8182H8.72727V11.1818ZM15.2727 9.72727V10.4545H8.72727V9.72727H15.2727Z" fill="black"/>
<path fill-rule="evenodd" clip-rule="evenodd" d="M22 12C22 17.5228 17.5228 22 12 22C6.47715 22 2 17.5228 2 12C2 6.47715 6.47715 2 12 2C17.5228 2 22 6.47715 22 12ZM20 12C20 16.4183 16.4183 20 12 20C7.58172 20 4 16.4183 4 12C4 7.58172 7.58172 4 12 4C16.4183 4 20 7.58172 20 12Z" fill="black"/>
</svg>
