<svg width="24" height="24" viewBox="0 0 24 24" fill="none" xmlns="http://www.w3.org/2000/svg">
<path fill-rule="evenodd" clip-rule="evenodd" d="M5 5C3.89543 5 3 5.89543 3 7V17C3 18.1046 3.89543 19 5 19H19C20.1046 19 21 18.1046 21 17V7C21 5.89543 20.1046 5 19 5H5ZM19 7H5V17H19V7Z" fill="black"/>
<path d="M3 7C3 5.89543 3.89543 5 5 5H19C20.1046 5 21 5.89543 21 7C21 8.10457 20.1046 9 19 9H5C3.89543 9 3 8.10457 3 7Z" fill="black"/>
<path d="M7 7C6.44772 7 6 6.55228 6 6V4C6 3.44772 6.44772 3 7 3C7.55228 3 8 3.44772 8 4V6C8 6.55228 7.55228 7 7 7Z" fill="black"/>
<path d="M17 7C16.4477 7 16 6.55228 16 6V4C16 3.44772 16.4477 3 17 3C17.5523 3 18 3.44772 18 4V6C18 6.55228 17.5523 7 17 7Z" fill="black"/>
<path d="M9.89687 12.1562H10.4828V14.125C10.4828 14.306 10.4424 14.4661 10.3617 14.6055C10.2823 14.7435 10.1697 14.8503 10.0238 14.9258C9.87799 15.0013 9.71328 15.0391 9.52969 15.0391C9.22891 15.0391 8.99453 14.9629 8.82656 14.8105C8.65859 14.6569 8.57461 14.4401 8.57461 14.1602H9.16445C9.16445 14.2995 9.19375 14.4023 9.25234 14.4688C9.31094 14.5352 9.40339 14.5684 9.52969 14.5684C9.64167 14.5684 9.73086 14.5299 9.79727 14.4531C9.86367 14.3763 9.89687 14.2669 9.89687 14.125V12.1562ZM12.6973 14.4141H11.6699L11.4746 15H10.8516L11.9102 12.1562H12.4531L13.5176 15H12.8945L12.6973 14.4141ZM11.8281 13.9395H12.5391L12.1816 12.875L11.8281 13.9395ZM16.2457 15H15.6598L14.5191 13.1289V15H13.9332V12.1562H14.5191L15.6617 14.0312V12.1562H16.2457V15Z" fill="black"/>
</svg>
