<svg width="24" height="24" viewBox="0 0 24 24" fill="none" xmlns="http://www.w3.org/2000/svg">
<path fill-rule="evenodd" clip-rule="evenodd" d="M5 5C3.89543 5 3 5.89543 3 7V17C3 18.1046 3.89543 19 5 19H19C20.1046 19 21 18.1046 21 17V7C21 5.89543 20.1046 5 19 5H5ZM19 7H5V17H19V7Z" fill="black"/>
<path d="M3 7C3 5.89543 3.89543 5 5 5H19C20.1046 5 21 5.89543 21 7C21 8.10457 20.1046 9 19 9H5C3.89543 9 3 8.10457 3 7Z" fill="black"/>
<path d="M7 7C6.44772 7 6 6.55228 6 6V4C6 3.44772 6.44772 3 7 3C7.55228 3 8 3.44772 8 4V6C8 6.55228 7.55228 7 7 7Z" fill="black"/>
<path d="M17 7C16.4477 7 16 6.55228 16 6V4C16 3.44772 16.4477 3 17 3C17.5523 3 18 3.44772 18 4V6C18 6.55228 17.5523 7 17 7Z" fill="black"/>
<path d="M8.32461 12.1562L9.05508 14.2188L9.78164 12.1562H10.5512V15H9.96328V14.2227L10.0219 12.8809L9.2543 15H8.85195L8.08633 12.8828L8.14492 14.2227V15H7.55898V12.1562H8.32461ZM13.5488 13.6426C13.5488 13.9225 13.4993 14.168 13.4004 14.3789C13.3014 14.5898 13.1595 14.7526 12.9746 14.8672C12.791 14.9818 12.5801 15.0391 12.3418 15.0391C12.1061 15.0391 11.8958 14.9824 11.7109 14.8691C11.526 14.7559 11.3828 14.5944 11.2812 14.3848C11.1797 14.1738 11.1283 13.9316 11.127 13.6582V13.5176C11.127 13.2376 11.1771 12.9915 11.2773 12.7793C11.3789 12.5658 11.5215 12.4023 11.7051 12.2891C11.89 12.1745 12.1009 12.1172 12.3379 12.1172C12.5749 12.1172 12.7852 12.1745 12.9688 12.2891C13.1536 12.4023 13.2962 12.5658 13.3965 12.7793C13.498 12.9915 13.5488 13.237 13.5488 13.5156V13.6426ZM12.9551 13.5137C12.9551 13.2155 12.9017 12.9889 12.7949 12.834C12.6882 12.679 12.5358 12.6016 12.3379 12.6016C12.1413 12.6016 11.9896 12.6784 11.8828 12.832C11.776 12.9844 11.722 13.2083 11.7207 13.5039V13.6426C11.7207 13.9329 11.7741 14.1582 11.8809 14.3184C11.9876 14.4785 12.1413 14.5586 12.3418 14.5586C12.5384 14.5586 12.6895 14.4818 12.7949 14.3281C12.9004 14.1732 12.9538 13.9479 12.9551 13.6523V13.5137ZM16.4371 15H15.8512L14.7105 13.1289V15H14.1246V12.1562H14.7105L15.8531 14.0312V12.1562H16.4371V15Z" fill="black"/>
</svg>
