<svg width="24" height="24" viewBox="0 0 24 24" fill="none" xmlns="http://www.w3.org/2000/svg">
<path fill-rule="evenodd" clip-rule="evenodd" d="M5 5C3.89543 5 3 5.89543 3 7V17C3 18.1046 3.89543 19 5 19H19C20.1046 19 21 18.1046 21 17V7C21 5.89543 20.1046 5 19 5H5ZM19 7H5V17H19V7Z" fill="black"/>
<path d="M3 7C3 5.89543 3.89543 5 5 5H19C20.1046 5 21 5.89543 21 7C21 8.10457 20.1046 9 19 9H5C3.89543 9 3 8.10457 3 7Z" fill="black"/>
<path d="M7 7C6.44772 7 6 6.55228 6 6V4C6 3.44772 6.44772 3 7 3C7.55228 3 8 3.44772 8 4V6C8 6.55228 7.55228 7 7 7Z" fill="black"/>
<path d="M17 7C16.4477 7 16 6.55228 16 6V4C16 3.44772 16.4477 3 17 3C17.5523 3 18 3.44772 18 4V6C18 6.55228 17.5523 7 17 7Z" fill="black"/>
<path d="M10.4602 16H9.33125V11.6484L7.98359 12.0664V11.1484L10.3391 10.3047H10.4602V16ZM16.3602 16H12.4617V15.2266L14.3016 13.2656C14.5542 12.9896 14.7404 12.7487 14.8602 12.543C14.9826 12.3372 15.0438 12.1419 15.0438 11.957C15.0438 11.7044 14.9799 11.5065 14.8523 11.3633C14.7247 11.2174 14.5424 11.1445 14.3055 11.1445C14.0503 11.1445 13.8484 11.2331 13.7 11.4102C13.5542 11.5846 13.4813 11.8151 13.4813 12.1016H12.3484C12.3484 11.7552 12.4305 11.4388 12.5945 11.1523C12.7612 10.8659 12.9956 10.6419 13.2977 10.4805C13.5997 10.3164 13.9422 10.2344 14.325 10.2344C14.9109 10.2344 15.3654 10.375 15.6883 10.6562C16.0138 10.9375 16.1766 11.3346 16.1766 11.8477C16.1766 12.1289 16.1036 12.4154 15.9578 12.707C15.812 12.9987 15.562 13.3385 15.2078 13.7266L13.9148 15.0898H16.3602V16Z" fill="black"/>
</svg>
