<svg width="24" height="24" viewBox="0 0 24 24" fill="none" xmlns="http://www.w3.org/2000/svg">
<path d="M5 5C3.89543 5 3 5.89543 3 7V17C3 18.1046 3.89543 19 5 19H19C20.1046 19 21 18.1046 21 17V7C21 5.89543 20.1046 5 19 5H5Z" fill="black"/>
<path d="M3 7C3 5.89543 3.89543 5 5 5H19C20.1046 5 21 5.89543 21 7C21 8.10457 20.1046 9 19 9H5C3.89543 9 3 8.10457 3 7Z" fill="black"/>
<path d="M7 7C6.44772 7 6 6.55228 6 6V4C6 3.44772 6.44772 3 7 3C7.55228 3 8 3.44772 8 4V6C8 6.55228 7.55228 7 7 7Z" fill="black"/>
<path d="M17 7C16.4477 7 16 6.55228 16 6V4C16 3.44772 16.4477 3 17 3C17.5523 3 18 3.44772 18 4V6C18 6.55228 17.5523 7 17 7Z" fill="black"/>
<path d="M13.0607 14.7678L13.7678 14.0607L12.7071 13L13.7678 11.9393L13.0607 11.2322L12 12.2929L10.9393 11.2322L10.2322 11.9393L11.2929 13L10.2322 14.0607L10.9393 14.7678L12 13.7071L13.0607 14.7678Z" fill="white"/>
</svg>
