<svg width="24" height="24" viewBox="0 0 24 24" fill="none" xmlns="http://www.w3.org/2000/svg">
<path fill-rule="evenodd" clip-rule="evenodd" d="M5 5C3.89543 5 3 5.89543 3 7V17C3 18.1046 3.89543 19 5 19H19C20.1046 19 21 18.1046 21 17V7C21 5.89543 20.1046 5 19 5H5ZM19 7H5V17H19V7Z" fill="black"/>
<path d="M3 7C3 5.89543 3.89543 5 5 5H19C20.1046 5 21 5.89543 21 7C21 8.10457 20.1046 9 19 9H5C3.89543 9 3 8.10457 3 7Z" fill="black"/>
<path d="M7 7C6.44772 7 6 6.55228 6 6V4C6 3.44772 6.44772 3 7 3C7.55228 3 8 3.44772 8 4V6C8 6.55228 7.55228 7 7 7Z" fill="black"/>
<path d="M17 7C16.4477 7 16 6.55228 16 6V4C16 3.44772 16.4477 3 17 3C17.5523 3 18 3.44772 18 4V6C18 6.55228 17.5523 7 17 7Z" fill="black"/>
</svg>
