<svg width="24" height="24" viewBox="0 0 24 24" fill="none" xmlns="http://www.w3.org/2000/svg">
<path d="M16.83 5H20C21.1 5 22 5.9 22 7V19C22 20.1 21.1 21 20 21H4C2.9 21 2 20.1 2 19V7C2 5.9 2.9 5 4 5H7.17L9 3H15L16.83 5Z" fill="black"/>
<path fill-rule="evenodd" clip-rule="evenodd" d="M11.93 17C14.1391 17 15.93 15.2091 15.93 13C15.93 10.7909 14.1391 9 11.93 9C9.72085 9 7.92999 10.7909 7.92999 13C7.92999 15.2091 9.72085 17 11.93 17ZM11.93 15C13.0346 15 13.93 14.1046 13.93 13C13.93 11.8954 13.0346 11 11.93 11C10.8254 11 9.92999 11.8954 9.92999 13C9.92999 14.1046 10.8254 15 11.93 15Z" fill="white"/>
</svg>
