<svg width="24" height="24" viewBox="0 0 24 24" fill="none" xmlns="http://www.w3.org/2000/svg">
<path fill-rule="evenodd" clip-rule="evenodd" d="M9.61132 13C9.24662 13 8.91085 13.1985 8.7351 13.5181C8.36855 14.1845 8.85071 15 9.61131 15H18.92C19.4723 15 19.92 15.4477 19.92 16C19.92 16.5523 19.4723 17 18.92 17H17.93H7.92999H7.92004C6.40004 17 5.44004 15.37 6.17004 14.03L7.02318 12.488C7.33509 11.9243 7.35632 11.2448 7.08022 10.6627L4.25211 4.70011C4.04931 4.27254 3.6184 4 3.14518 4H2.92004C2.36776 4 1.92004 3.55228 1.92004 3C1.92004 2.44772 2.36776 2 2.92004 2H3.92398C4.69708 2 5.40095 2.44557 5.7317 3.14435L5.90228 3.50471C5.93443 3.5016 5.96703 3.5 6 3.5H21C21.5523 3.5 22 3.94772 22 4.5C22 4.77321 21.8904 5.02082 21.7129 5.20131C21.7448 5.41025 21.7106 5.63097 21.6008 5.83041L18.22 11.97C17.88 12.59 17.22 13 16.47 13H9.61132ZM7.92999 17C9.03456 17 9.92999 17.8954 9.92999 19C9.92999 20.1046 9.03456 21 7.92999 21C6.82542 21 5.92999 20.1046 5.92999 19C5.92999 17.8954 6.82542 17 7.92999 17ZM17.93 17C16.8254 17 15.93 17.8954 15.93 19C15.93 20.1046 16.8254 21 17.93 21C19.0346 21 19.93 20.1046 19.93 19C19.93 17.8954 19.0346 17 17.93 17ZM19.5108 5.5L17.0408 9.96767C16.6886 10.6046 16.0183 11 15.2905 11H10.7161C9.94301 11 9.23914 10.5544 8.90839 9.85565L6.84671 5.5H19.5108Z" fill="black"/>
<path d="M7.92999 20C8.48228 20 8.92999 19.5523 8.92999 19C8.92999 18.4477 8.48228 18 7.92999 18C7.37771 18 6.92999 18.4477 6.92999 19C6.92999 19.5523 7.37771 20 7.92999 20Z" fill="black"/>
<path d="M18.93 19C18.93 19.5523 18.4823 20 17.93 20C17.3777 20 16.93 19.5523 16.93 19C16.93 18.4477 17.3777 18 17.93 18C18.4823 18 18.93 18.4477 18.93 19Z" fill="black"/>
<path d="M10 7.3H16V9.3H10V7.3Z" fill="black"/>
</svg>
