<svg width="24" height="24" viewBox="0 0 24 24" fill="none" xmlns="http://www.w3.org/2000/svg">
<path d="M7 10C7 9.45 7.44612 9 7.99749 9C8.54887 9 9 9.45 9 10C9 10.55 8.54887 11 7.99749 11C7.44612 11 7 10.55 7 10Z" fill="black"/>
<path d="M11.9975 9C11.4461 9 11 9.45 11 10C11 10.55 11.4461 11 11.9975 11C12.5489 11 13 10.55 13 10C13 9.45 12.5489 9 11.9975 9Z" fill="black"/>
<path d="M15 10C15 9.45 15.4461 9 15.9975 9C16.5489 9 17 9.45 17 10C17 10.55 16.5489 11 15.9975 11C15.4461 11 15 10.55 15 10Z" fill="black"/>
<path fill-rule="evenodd" clip-rule="evenodd" d="M20.991 4.8C20.991 3.81 20.19 3 19.2 3H4.8C3.81 3 3 3.81 3 4.8V15.6C3 16.59 3.81 17.4 4.8 17.4H17.4L21 21L20.991 4.8ZM19.2 4.8V16.653L18.147 15.6H4.8V4.8H19.2Z" fill="black"/>
</svg>
