<svg width="24" height="24" viewBox="0 0 24 24" fill="none" xmlns="http://www.w3.org/2000/svg">
<path d="M9.77779 9.22221H14.2222V10.3333H9.77779V9.22221Z" fill="black"/>
<path d="M13.1111 11.4444H9.77779V12.5555H13.1111V11.4444Z" fill="black"/>
<path fill-rule="evenodd" clip-rule="evenodd" d="M17 8C17 7.45 16.55 7 16 7H8C7.45 7 7 7.45 7 8V17L9 15H16C16.55 15 17 14.55 17 14V8ZM16 14H8.99998L7.99998 15V7.99998H16V14Z" fill="black"/>
<path fill-rule="evenodd" clip-rule="evenodd" d="M22 12C22 17.5228 17.5228 22 12 22C6.47715 22 2 17.5228 2 12C2 6.47715 6.47715 2 12 2C17.5228 2 22 6.47715 22 12ZM20 12C20 16.4183 16.4183 20 12 20C7.58172 20 4 16.4183 4 12C4 7.58172 7.58172 4 12 4C16.4183 4 20 7.58172 20 12Z" fill="black"/>
</svg>
