<svg width="24" height="24" viewBox="0 0 24 24" fill="none" xmlns="http://www.w3.org/2000/svg">
<path fill-rule="evenodd" clip-rule="evenodd" d="M22 12C22 17.5228 17.5228 22 12 22C6.47715 22 2 17.5228 2 12C2 6.47715 6.47715 2 12 2C17.5228 2 22 6.47715 22 12ZM16.995 9C16.995 8.45 16.55 8 16 8H8C7.45 8 7 8.45 7 9V15C7 15.55 7.45 16 8 16H15L17 18L16.995 9ZM16 8.99999V15.585L15.415 15H7.99999V8.99999H16ZM14.2222 11.3333V10.2222H9.77778V11.3333H14.2222ZM9.77778 12.4444H13.1111V13.5556H9.77778V12.4444Z" fill="black"/>
</svg>
