<svg width="24" height="24" viewBox="0 0 24 24" fill="none" xmlns="http://www.w3.org/2000/svg">
<path fill-rule="evenodd" clip-rule="evenodd" d="M22 12C22 17.5228 17.5228 22 12 22C6.47715 22 2 17.5228 2 12C2 6.47715 6.47715 2 12 2C17.5228 2 22 6.47715 22 12ZM17 8C17 7.45 16.55 7 16 7H8C7.45 7 7 7.45 7 8V17L9 15H16C16.55 15 17 14.55 17 14V8ZM16 14H8.99998L7.99998 15V7.99998H16V14ZM14.2222 9.22221H9.77779V10.3333H14.2222V9.22221ZM9.77779 11.4444H13.1111V12.5555H9.77779V11.4444Z" fill="black"/>
</svg>
