<svg width="24" height="24" viewBox="0 0 24 24" fill="none" xmlns="http://www.w3.org/2000/svg">
<path d="M9.22221 11.8889C9.22221 11.5833 9.47006 11.3333 9.77638 11.3333C10.0827 11.3333 10.3333 11.5833 10.3333 11.8889C10.3333 12.1944 10.0827 12.4444 9.77638 12.4444C9.47006 12.4444 9.22221 12.1944 9.22221 11.8889Z" fill="black"/>
<path d="M11.9986 11.3333C11.6923 11.3333 11.4444 11.5833 11.4444 11.8889C11.4444 12.1944 11.6923 12.4444 11.9986 12.4444C12.3049 12.4444 12.5556 12.1944 12.5556 11.8889C12.5556 11.5833 12.3049 11.3333 11.9986 11.3333Z" fill="black"/>
<path d="M13.6667 11.8889C13.6667 11.5833 13.9145 11.3333 14.2208 11.3333C14.5271 11.3333 14.7778 11.5833 14.7778 11.8889C14.7778 12.1944 14.5271 12.4444 14.2208 12.4444C13.9145 12.4444 13.6667 12.1944 13.6667 11.8889Z" fill="black"/>
<path fill-rule="evenodd" clip-rule="evenodd" d="M16.995 9C16.995 8.45 16.55 8 16 8H8C7.45 8 7 8.45 7 9V15C7 15.55 7.45 16 8 16H15L17 18L16.995 9ZM16 8.99998V15.585L15.415 15H8V8.99998H16Z" fill="black"/>
<path fill-rule="evenodd" clip-rule="evenodd" d="M22 2H2V22H22V2ZM20 4H4V20H20V4Z" fill="black"/>
</svg>
