<svg width="24" height="24" viewBox="0 0 24 24" fill="none" xmlns="http://www.w3.org/2000/svg">
<path d="M9.77778 10.2222H14.2222V11.3333H9.77778V10.2222Z" fill="black"/>
<path d="M13.1111 12.4444H9.77778V13.5556H13.1111V12.4444Z" fill="black"/>
<path fill-rule="evenodd" clip-rule="evenodd" d="M16 8C16.55 8 16.995 8.45 16.995 9L17 18L15 16H8C7.45 16 7 15.55 7 15V9C7 8.45 7.45 8 8 8H16ZM16 15.585V8.99999H7.99999V15H15.415L16 15.585Z" fill="black"/>
<path fill-rule="evenodd" clip-rule="evenodd" d="M12 22C17.5228 22 22 17.5228 22 12C22 6.47715 17.5228 2 12 2C6.47715 2 2 6.47715 2 12C2 17.5228 6.47715 22 12 22ZM12 20C16.4183 20 20 16.4183 20 12C20 7.58172 16.4183 4 12 4C7.58172 4 4 7.58172 4 12C4 16.4183 7.58172 20 12 20Z" fill="black"/>
</svg>
