<svg width="24" height="24" viewBox="0 0 24 24" fill="none" xmlns="http://www.w3.org/2000/svg">
<path fill-rule="evenodd" clip-rule="evenodd" d="M22 12C22 17.5228 17.5228 22 12 22C6.47715 22 2 17.5228 2 12C2 6.47715 6.47715 2 12 2C17.5228 2 22 6.47715 22 12ZM16 8C16.55 8 16.995 8.45 16.995 9L17 18L15 16H8C7.45 16 7 15.55 7 15V9C7 8.45 7.45 8 8 8H16ZM16 15.585V8.99998H8V15H15.415L16 15.585ZM9.77638 11.3333C9.47006 11.3333 9.22221 11.5833 9.22221 11.8889C9.22221 12.1944 9.47006 12.4444 9.77638 12.4444C10.0827 12.4444 10.3333 12.1944 10.3333 11.8889C10.3333 11.5833 10.0827 11.3333 9.77638 11.3333ZM11.4444 11.8889C11.4444 11.5833 11.6923 11.3333 11.9986 11.3333C12.3049 11.3333 12.5556 11.5833 12.5556 11.8889C12.5556 12.1944 12.3049 12.4444 11.9986 12.4444C11.6923 12.4444 11.4444 12.1944 11.4444 11.8889ZM14.2208 11.3333C13.9145 11.3333 13.6667 11.5833 13.6667 11.8889C13.6667 12.1944 13.9145 12.4444 14.2208 12.4444C14.5271 12.4444 14.7778 12.1944 14.7778 11.8889C14.7778 11.5833 14.5271 11.3333 14.2208 11.3333Z" fill="black"/>
</svg>
