<svg width="24" height="24" viewBox="0 0 24 24" fill="none" xmlns="http://www.w3.org/2000/svg">
<path d="M9.77779 9.22221H14.2222V10.3333H9.77779V9.22221Z" fill="black"/>
<path d="M13.1111 11.4444H9.77779V12.5555H13.1111V11.4444Z" fill="black"/>
<path fill-rule="evenodd" clip-rule="evenodd" d="M16 7H8C7.45 7 7 7.45 7 8V17L9 15H16C16.55 15 17 14.55 17 14V8C17 7.45 16.55 7 16 7ZM16 14H8.99998L7.99998 15V7.99998H16V14Z" fill="black"/>
<path fill-rule="evenodd" clip-rule="evenodd" d="M2 2H22V22H2V2ZM4 4H20V20H4V4Z" fill="black"/>
</svg>
