<svg width="24" height="24" viewBox="0 0 24 24" fill="none" xmlns="http://www.w3.org/2000/svg">
<path fill-rule="evenodd" clip-rule="evenodd" d="M22 12C22 17.5228 17.5228 22 12 22C6.47715 22 2 17.5228 2 12C2 6.47715 6.47715 2 12 2C17.5228 2 22 6.47715 22 12ZM11.8064 14.4606L17.2671 9L18 9.72774L11.8064 15.9213L8.92128 13.0361L9.64903 12.3084L11.8064 14.4606ZM14.351 9L15.0787 9.72774L11.8065 13L11.0787 12.2723L14.351 9ZM6 13.0361L8.88516 15.9213L9.6129 15.1936L6.7329 12.3084L6 13.0361Z" fill="black"/>
</svg>
