<svg width="24" height="24" viewBox="0 0 24 24" fill="none" xmlns="http://www.w3.org/2000/svg">
<path fill-rule="evenodd" clip-rule="evenodd" d="M17.2671 9L11.8064 14.4606L9.64903 12.3084L8.92128 13.0361L11.8064 15.9213L18 9.72774L17.2671 9ZM15.0787 9.72774L14.351 9L11.0787 12.2723L11.8065 13L15.0787 9.72774ZM8.88516 15.9213L6 13.0361L6.7329 12.3084L9.6129 15.1936L8.88516 15.9213Z" fill="black"/>
<path fill-rule="evenodd" clip-rule="evenodd" d="M12 22C17.5228 22 22 17.5228 22 12C22 6.47715 17.5228 2 12 2C6.47715 2 2 6.47715 2 12C2 17.5228 6.47715 22 12 22ZM12 20C16.4183 20 20 16.4183 20 12C20 7.58172 16.4183 4 12 4C7.58172 4 4 7.58172 4 12C4 16.4183 7.58172 20 12 20Z" fill="black"/>
</svg>
