<svg width="24" height="24" viewBox="0 0 24 24" fill="none" xmlns="http://www.w3.org/2000/svg">
<path fill-rule="evenodd" clip-rule="evenodd" d="M23 12C23 18.0751 18.0751 23 12 23C5.92487 23 1 18.0751 1 12C1 5.92487 5.92487 1 12 1C18.0751 1 23 5.92487 23 12ZM12 21C16.9706 21 21 16.9706 21 12C21 7.02944 16.9706 3 12 3C7.02944 3 3 7.02944 3 12C3 16.9706 7.02944 21 12 21ZM12.2426 12.7574L8 17L9.41421 18.4142L12.2426 15.5858L15.071 18.4142L16.4853 17L12.2426 12.7574ZM16.4853 7.24264L12.2426 11.4853L8 7.24265L9.41421 5.82843L12.2426 8.65685L15.071 5.82843L16.4853 7.24264Z" fill="black"/>
</svg>
