<svg width="24" height="24" viewBox="0 0 24 24" fill="none" xmlns="http://www.w3.org/2000/svg">
<path fill-rule="evenodd" clip-rule="evenodd" d="M12 23C18.0751 23 23 18.0751 23 12C23 5.92487 18.0751 1 12 1C5.92487 1 1 5.92487 1 12C1 18.0751 5.92487 23 12 23ZM21 12C21 16.9706 16.9706 21 12 21C7.02944 21 3 16.9706 3 12C3 7.02944 7.02944 3 12 3C16.9706 3 21 7.02944 21 12ZM15.2071 18.2071L15.2071 6.20712H17.2071V18.2071H15.2071ZM8.20706 17.864L13.8639 12.2072L8.20706 6.55026L6.79285 7.96448L11.0355 12.2071L6.79285 16.4498L8.20706 17.864Z" fill="black"/>
</svg>
