<svg width="24" height="24" viewBox="0 0 24 24" fill="none" xmlns="http://www.w3.org/2000/svg">
<path fill-rule="evenodd" clip-rule="evenodd" d="M12 23C18.0751 23 23 18.0751 23 12C23 5.92487 18.0751 1 12 1C5.92487 1 1 5.92487 1 12C1 18.0751 5.92487 23 12 23ZM21 12C21 16.9706 16.9706 21 12 21C7.02944 21 3 16.9706 3 12C3 7.02944 7.02944 3 12 3C16.9706 3 21 7.02944 21 12ZM8.7929 6.20711V18.2071H6.7929L6.7929 6.20711H8.7929ZM15.7929 6.55022L10.136 12.2071L15.7929 17.864L17.2071 16.4498L12.9644 12.2071L17.2071 7.96444L15.7929 6.55022Z" fill="black"/>
</svg>
