<svg width="24" height="24" viewBox="0 0 24 24" fill="none" xmlns="http://www.w3.org/2000/svg">
<path fill-rule="evenodd" clip-rule="evenodd" d="M12 23C18.0751 23 23 18.0751 23 12C23 5.92487 18.0751 1 12 1C5.92487 1 1 5.92487 1 12C1 18.0751 5.92487 23 12 23ZM21 12C21 16.9706 16.9706 21 12 21C7.02944 21 3 16.9706 3 12C3 7.02944 7.02944 3 12 3C16.9706 3 21 7.02944 21 12ZM6.63603 7.63605L8.05024 6.22183L13.7071 11.8787L8.05024 17.5355L6.63603 16.1213L10.8787 11.8787L6.63603 7.63605ZM16.5355 11.8787L12.2929 7.63605L13.7071 6.22183L19.364 11.8787L13.7071 17.5355L12.2929 16.1213L16.5355 11.8787Z" fill="black"/>
</svg>
