<svg width="24" height="24" viewBox="0 0 24 24" fill="none" xmlns="http://www.w3.org/2000/svg">
<path fill-rule="evenodd" clip-rule="evenodd" d="M3.00006 1L1.00006 1V3L1.00006 21L1.00006 23H3.00006H21.0001H23.0001V21V3V1L21.0001 1L3.00006 1ZM3.00006 3H5.00006L19.0001 3H21.0001V5V19V21H19.0001H5.00006H3.00006V19L3.00006 5V3ZM7.46447 11.8787L11.7071 16.1213L10.2929 17.5355L4.63605 11.8787L10.2929 6.22183L11.7071 7.63605L7.46447 11.8787ZM17.364 16.1213L15.9498 17.5355L10.2929 11.8787L15.9498 6.22183L17.364 7.63605L13.1213 11.8787L17.364 16.1213Z" fill="black"/>
</svg>
