<svg width="24" height="24" viewBox="0 0 24 24" fill="none" xmlns="http://www.w3.org/2000/svg">
<path fill-rule="evenodd" clip-rule="evenodd" d="M23 12C23 18.0751 18.0751 23 12 23C5.92487 23 1 18.0751 1 12C1 5.92487 5.92487 1 12 1C18.0751 1 23 5.92487 23 12ZM12 21C16.9706 21 21 16.9706 21 12C21 7.02944 16.9706 3 12 3C7.02944 3 3 7.02944 3 12C3 16.9706 7.02944 21 12 21ZM12.2426 4.75735L8 9L9.41421 10.4142L12.2426 7.58579L15.071 10.4142L16.4853 9L12.2426 4.75735ZM16.4853 15.2426L12.2426 19.4853L8 15.2426L9.41421 13.8284L12.2426 16.6568L15.071 13.8284L16.4853 15.2426Z" fill="black"/>
</svg>
