<svg width="24" height="24" viewBox="0 0 24 24" fill="none" xmlns="http://www.w3.org/2000/svg">
<path fill-rule="evenodd" clip-rule="evenodd" d="M12 23C18.0751 23 23 18.0751 23 12C23 5.92487 18.0751 1 12 1C5.92487 1 1 5.92487 1 12C1 18.0751 5.92487 23 12 23ZM21 12C21 16.9706 16.9706 21 12 21C7.02944 21 3 16.9706 3 12C3 7.02944 7.02944 3 12 3C16.9706 3 21 7.02944 21 12ZM8 8L12.2426 3.75735L16.4853 8L15.071 9.41421L12.2426 6.58579L9.41421 9.41421L8 8ZM12.2426 20.1569L16.4853 15.9142L15.071 14.5L12.2426 17.3284L9.41421 14.5L8 15.9142L12.2426 20.1569ZM7 13H17V11H7V13Z" fill="black"/>
</svg>
