<svg width="24" height="24" viewBox="0 0 24 24" fill="none" xmlns="http://www.w3.org/2000/svg">
<path fill-rule="evenodd" clip-rule="evenodd" d="M3.00006 1L1.00006 1V3L1.00006 21L1.00006 23H3.00006H21.0001H23.0001V21V3V1L21.0001 1L3.00006 1ZM3.00006 3H5.00006L19.0001 3H21.0001V5V19V21H19.0001H5.00006H3.00006V19L3.00006 5V3ZM6.63605 7.63605L8.05026 6.22183L13.7071 11.8787L8.05026 17.5355L6.63605 16.1213L10.8787 11.8787L6.63605 7.63605ZM16.5355 11.8787L12.2929 7.63605L13.7071 6.22183L19.364 11.8787L13.7071 17.5355L12.2929 16.1213L16.5355 11.8787Z" fill="black"/>
</svg>
