<svg width="24" height="24" viewBox="0 0 24 24" fill="none" xmlns="http://www.w3.org/2000/svg">
<path fill-rule="evenodd" clip-rule="evenodd" d="M12 4C15.0333 4 17.5583 6.15833 18.125 9.03333C20.2917 9.18333 22 10.9667 22 13.1667C22 15.4667 20.1333 17.3333 17.8333 17.3333H7C4.24167 17.3333 2 15.0917 2 12.3333C2 9.75833 3.95 7.63333 6.45833 7.36667C7.5 5.36667 9.59167 4 12 4ZM7 15.6667H17.8333C19.2083 15.6667 20.3333 14.5417 20.3333 13.1667C20.3333 11.875 19.3167 10.7833 18.0167 10.7L16.7417 10.6083L16.4917 9.35833C16.0667 7.21666 14.1833 5.66666 12 5.66666C10.2833 5.66666 8.73334 6.61666 7.94167 8.14166L7.525 8.93333L6.63334 9.025C4.94167 9.2 3.66667 10.625 3.66667 12.3333C3.66667 14.175 5.15834 15.6667 7 15.6667Z" fill="black"/>
<path d="M9 11H15V13H9V11Z" fill="black"/>
</svg>
