<svg width="24" height="24" viewBox="0 0 24 24" fill="none" xmlns="http://www.w3.org/2000/svg">
<path fill-rule="evenodd" clip-rule="evenodd" d="M18.125 9.03333C17.5583 6.15833 15.0333 4 12 4C9.59167 4 7.5 5.36667 6.45833 7.36667C3.95 7.63333 2 9.75833 2 12.3333C2 15.0917 4.24167 17.3333 7 17.3333H17.8333C20.1333 17.3333 22 15.4667 22 13.1667C22 10.9667 20.2917 9.18333 18.125 9.03333ZM17.8333 15.6667H7C5.15833 15.6667 3.66667 14.175 3.66667 12.3333C3.66667 10.625 4.94167 9.2 6.63333 9.025L7.525 8.93333L7.94167 8.14167C8.73333 6.61667 10.2833 5.66667 12 5.66667C14.1833 5.66667 16.0667 7.21667 16.4917 9.35833L16.7417 10.6083L18.0167 10.7C19.3167 10.7833 20.3333 11.875 20.3333 13.1667C20.3333 14.5417 19.2083 15.6667 17.8333 15.6667ZM13.2083 10.6667H15.3333L12 14L8.66667 10.6667H10.7917V8.16666H13.2083V10.6667Z" fill="black"/>
</svg>
