<svg width="24" height="24" viewBox="0 0 24 24" fill="none" xmlns="http://www.w3.org/2000/svg">
<path d="M11.6667 12.4444H12.3333V11.4444H13.3333V10.7778H12.3333V9.77778H11.6667V10.7778H10.6667V11.4444H11.6667V12.4444Z" fill="black"/>
<path fill-rule="evenodd" clip-rule="evenodd" d="M15.2 8C15.64 8 15.996 8.36 15.996 8.8L16 16L14.4 14.4H8.8C8.36 14.4 8 14.04 8 13.6V8.8C8 8.36 8.36 8 8.8 8H15.2ZM15.2 14.068V8.8H8.79999V13.6H14.732L15.2 14.068Z" fill="black"/>
<path fill-rule="evenodd" clip-rule="evenodd" d="M2 2H22V22H2V2ZM4 4H20V20H4V4Z" fill="black"/>
</svg>
