<svg width="24" height="24" viewBox="0 0 24 24" fill="none" xmlns="http://www.w3.org/2000/svg">
<path d="M9.00001 13H15V14H9.00001V13Z" fill="black"/>
<path d="M15 11.5H9.00001V12.5H15V11.5Z" fill="black"/>
<path d="M9.00001 10H15V11H9.00001V10Z" fill="black"/>
<path fill-rule="evenodd" clip-rule="evenodd" d="M16 8C16.55 8 16.995 8.45 16.995 9L17 18L15 16H8C7.45 16 7 15.55 7 15V9C7 8.45 7.45 8 8 8H16ZM16 15.585V8.99998H8V15H15.415L16 15.585Z" fill="black"/>
<path fill-rule="evenodd" clip-rule="evenodd" d="M2 2H22V22H2V2ZM4 4H20V20H4V4Z" fill="black"/>
</svg>
