<svg width="24" height="24" viewBox="0 0 24 24" fill="none" xmlns="http://www.w3.org/2000/svg">
<path d="M11.6667 12.4444H12.3333V11.4444H13.3333V10.7778H12.3333V9.77778H11.6667V10.7778H10.6667V11.4444H11.6667V12.4444Z" fill="black"/>
<path fill-rule="evenodd" clip-rule="evenodd" d="M15.2 8C15.64 8 15.996 8.36 15.996 8.8L16 16L14.4 14.4H8.8C8.36 14.4 8 14.04 8 13.6V8.8C8 8.36 8.36 8 8.8 8H15.2ZM15.2 14.068V8.8H8.79999V13.6H14.732L15.2 14.068Z" fill="black"/>
<path fill-rule="evenodd" clip-rule="evenodd" d="M22 12C22 17.5228 17.5228 22 12 22C6.47715 22 2 17.5228 2 12C2 6.47715 6.47715 2 12 2C17.5228 2 22 6.47715 22 12ZM20 12C20 16.4183 16.4183 20 12 20C7.58172 20 4 16.4183 4 12C4 7.58172 7.58172 4 12 4C16.4183 4 20 7.58172 20 12Z" fill="black"/>
</svg>
