<svg width="24" height="24" viewBox="0 0 24 24" fill="none" xmlns="http://www.w3.org/2000/svg">
<path d="M10.2795 10.5616C10.3342 10.2 10.4548 9.88219 10.6082 9.60822C10.7616 9.33425 10.9808 9.10411 11.2548 8.92877C11.5178 8.76438 11.8466 8.68767 12.2521 8.67671C12.5041 8.68767 12.7342 8.73151 12.9425 8.81918C13.1616 8.91781 13.3589 9.04932 13.5123 9.2137C13.6658 9.37808 13.7863 9.57534 13.8849 9.79452C13.9836 10.0137 14.0274 10.2548 14.0384 10.4959H16C15.9781 9.98082 15.8795 9.50959 15.6932 9.08219C15.5068 8.65479 15.2548 8.28219 14.926 7.97534C14.5973 7.66849 14.2027 7.4274 13.7425 7.25205C13.2822 7.07671 12.7781 7 12.2192 7C11.5068 7 10.8822 7.12055 10.3562 7.3726C9.83014 7.62466 9.39178 7.95342 9.0411 8.38082C8.69041 8.80822 8.4274 9.30137 8.26301 9.87123C8.09863 10.4411 8 11.0329 8 11.6685V11.9644C8 12.6 8.08767 13.1918 8.25205 13.7616C8.41644 14.3315 8.67945 14.8247 9.03014 15.2411C9.38082 15.6575 9.81918 15.9973 10.3452 16.2384C10.8712 16.4795 11.4959 16.611 12.2082 16.611C12.7233 16.611 13.2055 16.5233 13.6548 16.3589C14.1041 16.1945 14.4986 15.9644 14.8384 15.6685C15.1781 15.3726 15.4521 15.0329 15.6493 14.6384C15.8466 14.2438 15.9671 13.8274 15.9781 13.3781H14.0164C14.0055 13.6082 13.9507 13.8164 13.8521 14.0137C13.7534 14.211 13.6219 14.3753 13.4575 14.5178C13.2932 14.6603 13.1068 14.7699 12.8877 14.8466C12.6795 14.9233 12.4603 14.9452 12.2301 14.9562C11.8356 14.9452 11.5068 14.8685 11.2548 14.7041C10.9808 14.5288 10.7616 14.2986 10.6082 14.0247C10.4548 13.7507 10.3342 13.4219 10.2795 13.0603C10.2247 12.6986 10.1918 12.326 10.1918 11.9644V11.6685C10.1918 11.2849 10.2247 10.9233 10.2795 10.5616Z" fill="black"/>
<path fill-rule="evenodd" clip-rule="evenodd" d="M12 22C17.5228 22 22 17.5228 22 12C22 6.47715 17.5228 2 12 2C6.47715 2 2 6.47715 2 12C2 17.5228 6.47715 22 12 22ZM12 20C16.4183 20 20 16.4183 20 12C20 7.58172 16.4183 4 12 4C7.58172 4 4 7.58172 4 12C4 16.4183 7.58172 20 12 20Z" fill="black"/>
</svg>
