<svg width="24" height="24" viewBox="0 0 24 24" fill="none" xmlns="http://www.w3.org/2000/svg">
<path fill-rule="evenodd" clip-rule="evenodd" d="M22 12C22 17.5228 17.5228 22 12 22C6.47715 22 2 17.5228 2 12C2 6.47715 6.47715 2 12 2C17.5228 2 22 6.47715 22 12ZM16.4838 15.6101L17 14.8433L13.0138 12.1596L17 9.47599L16.4838 8.70921L12.1862 11.6025L10.5732 10.5165C10.6534 10.3094 10.6975 10.0842 10.6975 9.84873C10.6975 8.8277 9.86976 8 8.84873 8C7.8277 8 7 8.8277 7 9.84873C7 10.8698 7.8277 11.6975 8.84873 11.6975C9.2997 11.6975 9.71295 11.536 10.0338 11.2677L11.3587 12.1596L10.0338 13.0516C9.71295 12.7833 9.2997 12.6218 8.84873 12.6218C7.8277 12.6218 7 13.4495 7 14.4706C7 15.4916 7.8277 16.3193 8.84873 16.3193C9.86976 16.3193 10.6975 15.4916 10.6975 14.4706C10.6975 14.2351 10.6534 14.0099 10.5732 13.8028L12.1862 12.7168L16.4838 15.6101ZM7.92437 9.84873C7.92437 10.3592 8.33822 10.7731 8.84873 10.7731C9.35924 10.7731 9.7731 10.3592 9.7731 9.84873C9.7731 9.33822 9.35924 8.92437 8.84873 8.92437C8.33822 8.92437 7.92437 9.33822 7.92437 9.84873ZM7.92437 14.4706C7.92437 14.9811 8.33822 15.3949 8.84873 15.3949C9.35924 15.3949 9.7731 14.9811 9.7731 14.4706C9.7731 13.96 9.35924 13.5462 8.84873 13.5462C8.33822 13.5462 7.92437 13.96 7.92437 14.4706Z" fill="black"/>
</svg>
