<svg width="24" height="24" viewBox="0 0 24 24" fill="none" xmlns="http://www.w3.org/2000/svg">
<path fill-rule="evenodd" clip-rule="evenodd" d="M21 17.3179L20.0708 18.6981L12.3352 13.4903L9.43172 15.445C9.57619 15.8178 9.65542 16.2232 9.65542 16.647C9.65542 18.4848 8.16555 19.9747 6.32771 19.9747C4.48986 19.9747 2.99999 18.4848 2.99999 16.647C2.99999 14.8092 4.48986 13.3193 6.32771 13.3193C7.13945 13.3193 7.8833 13.6099 8.46089 14.0928L10.8456 12.4874L8.46089 10.8819C7.8833 11.3648 7.13945 11.6554 6.32771 11.6554C4.48986 11.6554 2.99999 10.1656 2.99999 8.32771C2.99999 6.48987 4.48986 5 6.32771 5C8.16555 5 9.65542 6.48987 9.65542 8.32771C9.65542 8.75155 9.57619 9.15688 9.43172 9.52969L12.3352 11.4845L20.0708 6.27657L21 7.65678L13.8249 12.4874L21 17.3179ZM6.32771 9.99157C5.40878 9.99157 4.66385 9.24664 4.66385 8.32771C4.66385 7.40879 5.40878 6.66386 6.32771 6.66386C7.24663 6.66386 7.99156 7.40879 7.99156 8.32771C7.99156 9.24664 7.24663 9.99157 6.32771 9.99157ZM6.32771 18.3109C5.40878 18.3109 4.66385 17.5659 4.66385 16.647C4.66385 15.7281 5.40878 14.9831 6.32771 14.9831C7.24663 14.9831 7.99156 15.7281 7.99156 16.647C7.99156 17.5659 7.24663 18.3109 6.32771 18.3109Z" fill="black"/>
</svg>
