<svg width="24" height="24" viewBox="0 0 24 24" fill="none" xmlns="http://www.w3.org/2000/svg">
<path fill-rule="evenodd" clip-rule="evenodd" d="M17 14V16C17 16.5523 16.5523 17 16 17H8C7.44772 17 7 16.5523 7 16V14H8V16H16V14H17ZM12.5 12.2929L14.1465 10.6464L14.8536 11.3536L12 14.2071L9.14645 11.3536L9.85356 10.6464L11.5 12.2929V7H12.5V12.2929Z" fill="black"/>
<path fill-rule="evenodd" clip-rule="evenodd" d="M12 22C17.5228 22 22 17.5228 22 12C22 6.47715 17.5228 2 12 2C6.47715 2 2 6.47715 2 12C2 17.5228 6.47715 22 12 22ZM12 20C16.4183 20 20 16.4183 20 12C20 7.58172 16.4183 4 12 4C7.58172 4 4 7.58172 4 12C4 16.4183 7.58172 20 12 20Z" fill="black"/>
</svg>
