<svg width="24" height="24" viewBox="0 0 24 24" fill="none" xmlns="http://www.w3.org/2000/svg">
<path d="M5.99499 7C4.89223 7 4 7.9 4 9C4 10.1 4.89223 11 5.99499 11C7.09774 11 8 10.1 8 9C8 7.9 7.09774 7 5.99499 7Z" fill="black"/>
<path d="M11.995 7C10.8922 7 10 7.9 10 9C10 10.1 10.8922 11 11.995 11C13.0977 11 14 10.1 14 9C14 7.9 13.0977 7 11.995 7Z" fill="black"/>
<path d="M17.995 7C16.8922 7 16 7.9 16 9C16 10.1 16.8922 11 17.995 11C19.0977 11 20 10.1 20 9C20 7.9 19.0977 7 17.995 7Z" fill="black"/>
<path d="M17.995 13C16.8922 13 16 13.9 16 15C16 16.1 16.8922 17 17.995 17C19.0977 17 20 16.1 20 15C20 13.9 19.0977 13 17.995 13Z" fill="black"/>
<path d="M11.995 13C10.8922 13 10 13.9 10 15C10 16.1 10.8922 17 11.995 17C13.0977 17 14 16.1 14 15C14 13.9 13.0977 13 11.995 13Z" fill="black"/>
<path d="M5.99499 13C4.89223 13 4 13.9 4 15C4 16.1 4.89223 17 5.99499 17C7.09774 17 8 16.1 8 15C8 13.9 7.09774 13 5.99499 13Z" fill="black"/>
</svg>
