<svg width="24" height="24" viewBox="0 0 24 24" fill="none" xmlns="http://www.w3.org/2000/svg">
<path fill-rule="evenodd" clip-rule="evenodd" d="M16.9955 10.15C16.9955 9.826 16.829 9.5425 16.5725 9.385L12.5 7L8.4275 9.385C8.171 9.5425 8 9.826 8 10.15V14.65C8 15.145 8.405 15.55 8.9 15.55H16.1C16.595 15.55 17 15.145 17 14.65L16.9955 10.15ZM16.0955 10.15V10.1545L12.5 12.4L8.89999 10.15L12.5 8.04401L16.0955 10.15ZM8.89999 11.203V14.65H16.1L16.0955 11.2165L12.5 13.462L8.89999 11.203Z" fill="black"/>
<path fill-rule="evenodd" clip-rule="evenodd" d="M12 22C17.5228 22 22 17.5228 22 12C22 6.47715 17.5228 2 12 2C6.47715 2 2 6.47715 2 12C2 17.5228 6.47715 22 12 22ZM12 20C16.4183 20 20 16.4183 20 12C20 7.58172 16.4183 4 12 4C7.58172 4 4 7.58172 4 12C4 16.4183 7.58172 20 12 20Z" fill="black"/>
</svg>
