<svg width="24" height="24" viewBox="0 0 24 24" fill="none" xmlns="http://www.w3.org/2000/svg">
<path fill-rule="evenodd" clip-rule="evenodd" d="M22 12C22 17.5228 17.5228 22 12 22C6.47715 22 2 17.5228 2 12C2 6.47715 6.47715 2 12 2C17.5228 2 22 6.47715 22 12ZM16.5725 9.385C16.829 9.5425 16.9955 9.826 16.9955 10.15L17 14.65C17 15.145 16.595 15.55 16.1 15.55H8.9C8.405 15.55 8 15.145 8 14.65V10.15C8 9.826 8.171 9.5425 8.4275 9.385L12.5 7L16.5725 9.385ZM16.0955 10.1545V10.15L12.5 8.04401L8.89999 10.15L12.5 12.4L16.0955 10.1545ZM8.89999 14.65V11.203L12.5 13.462L16.0955 11.2165L16.1 14.65H8.89999Z" fill="black"/>
</svg>
