<svg width="24" height="24" viewBox="0 0 24 24" fill="none" xmlns="http://www.w3.org/2000/svg">
<path fill-rule="evenodd" clip-rule="evenodd" d="M11.99 2C6.47 2 2 6.48 2 12C2 17.52 6.47 22 11.99 22C17.52 22 22 17.52 22 12C22 6.48 17.52 2 11.99 2ZM7 9.5C7 8.67157 7.67157 8 8.5 8C9.32843 8 10 8.67157 10 9.5C10 10.3284 9.32843 11 8.5 11C7.67157 11 7 10.3284 7 9.5ZM14 9.5C14 8.67157 14.6716 8 15.5 8C16.3284 8 17 8.67157 17 9.5C17 10.3284 16.3284 11 15.5 11C14.6716 11 14 10.3284 14 9.5ZM12 14C9.67 14 7.68 15.45 6.88 17.5H8.55C9.24 16.31 10.52 15.5 12 15.5C13.48 15.5 14.75 16.31 15.45 17.5H17.12C16.32 15.45 14.33 14 12 14Z" fill="black"/>
</svg>
