<svg width="24" height="24" viewBox="0 0 24 24" fill="none" xmlns="http://www.w3.org/2000/svg">
<path fill-rule="evenodd" clip-rule="evenodd" d="M9.72727 8H13.5143L15.5455 10.0312V15.2727C15.5455 15.6744 15.2198 16 14.8182 16H9.72727C9.32561 16 9 15.6744 9 15.2727V8.72727C9 8.32561 9.32561 8 9.72727 8ZM12.6364 8.72727H9.72727V15.2727H14.8182V10.9091H13.3636C12.962 10.9091 12.6364 10.5835 12.6364 10.1818V8.72727ZM13.3636 8.8779V10.1818H14.6676L13.3636 8.8779Z" fill="black"/>
<path fill-rule="evenodd" clip-rule="evenodd" d="M22 2H2V22H22V2ZM20 4H4V20H20V4Z" fill="black"/>
</svg>
