<svg width="24" height="24" viewBox="0 0 24 24" fill="none" xmlns="http://www.w3.org/2000/svg">
<path fill-rule="evenodd" clip-rule="evenodd" d="M6.63636 3H15.1571L19.7273 7.57019V19.3636C19.7273 20.2674 18.9946 21 18.0909 21H6.63636C5.73262 21 5 20.2674 5 19.3636V4.63636C5 3.73262 5.73262 3 6.63636 3ZM13.1818 4.63636H6.63636V19.3636H18.0909V9.54545H14.8182C13.9144 9.54545 13.1818 8.81283 13.1818 7.90909V4.63636ZM14.8182 4.97527V7.90909H17.752L14.8182 4.97527Z" fill="black"/>
<path d="M6.63636 4.63636H13.1818V7.90909C13.1818 8.81283 13.9144 9.54545 14.8182 9.54545H18.0909V19.3636H6.63636V4.63636Z" fill="black"/>
</svg>
