<svg width="24" height="24" viewBox="0 0 24 24" fill="none" xmlns="http://www.w3.org/2000/svg">
<path fill-rule="evenodd" clip-rule="evenodd" d="M22 12C22 17.5228 17.5228 22 12 22C6.47715 22 2 17.5228 2 12C2 6.47715 6.47715 2 12 2C17.5228 2 22 6.47715 22 12ZM9.11111 7C8.49746 7 8 7.49746 8 8.11111V15.8889C8 16.5025 8.49746 17 9.11111 17H14.6667C15.2803 17 15.7778 16.5025 15.7778 15.8889V8.11111C15.7778 7.49746 15.2803 7 14.6667 7H9.11111ZM14.6667 8.11111H9.11111V15.8889H14.6667V8.11111ZM10.2222 9.22222H13.5556V10.3333H10.2222V9.22222ZM13.5556 13.6667H10.2222V14.7778H13.5556V13.6667ZM10.2222 11.4444H13.5556V12.5556H10.2222V11.4444Z" fill="black"/>
</svg>
