<svg width="24" height="24" viewBox="0 0 24 24" fill="none" xmlns="http://www.w3.org/2000/svg">
<path fill-rule="evenodd" clip-rule="evenodd" d="M22 12C22 17.5228 17.5228 22 12 22C6.47715 22 2 17.5228 2 12C2 6.47715 6.47715 2 12 2C17.5228 2 22 6.47715 22 12ZM8 8.11111C8 7.49746 8.49746 7 9.11111 7H14.6667C15.2803 7 15.7778 7.49746 15.7778 8.11111V15.8889C15.7778 16.5025 15.2803 17 14.6667 17H9.11111C8.49746 17 8 16.5025 8 15.8889V8.11111ZM9.11111 8.11111H14.6667V15.8889H9.11111V8.11111Z" fill="black"/>
</svg>
