<svg width="24" height="24" viewBox="0 0 24 24" fill="none" xmlns="http://www.w3.org/2000/svg">
<path d="M14.6517 13.591L13.591 14.6517L12 13.0607L10.409 14.6517L9.34835 13.591L10.9393 12L9.34835 10.409L10.409 9.34835L12 10.9393L13.591 9.34835L14.6517 10.409L13.0607 12L14.6517 13.591Z" fill="black"/>
<path fill-rule="evenodd" clip-rule="evenodd" d="M5 5C5 3.89543 5.89543 3 7 3H17C18.1046 3 19 3.89543 19 5V19C19 20.1046 18.1046 21 17 21H7C5.89543 21 5 20.1046 5 19V5ZM7 5H17V19H7V5Z" fill="black"/>
</svg>
