<svg width="24" height="24" viewBox="0 0 24 24" fill="none" xmlns="http://www.w3.org/2000/svg">
<path d="M13.5359 12.0131L13.9041 12.3813L12.0632 14.2222L10.2222 12.3813L10.5904 12.0131L11.8028 13.2255V9.77778H12.3235V13.2255L13.5359 12.0131Z" fill="black"/>
<path fill-rule="evenodd" clip-rule="evenodd" d="M8 8.11111C8 7.49746 8.49746 7 9.11111 7H14.6667C15.2803 7 15.7778 7.49746 15.7778 8.11111V15.8889C15.7778 16.5025 15.2803 17 14.6667 17H9.11111C8.49746 17 8 16.5025 8 15.8889V8.11111ZM9.11111 8.11111H14.6667V15.8889H9.11111V8.11111Z" fill="black"/>
<path fill-rule="evenodd" clip-rule="evenodd" d="M22 2H2V22H22V2ZM20 4H4V20H20V4Z" fill="black"/>
</svg>
