<svg width="24" height="24" viewBox="0 0 24 24" fill="none" xmlns="http://www.w3.org/2000/svg">
<path d="M11.4431 12.4366L11.2222 12.2157L12.3268 11.1111L13.4314 12.2157L13.2104 12.4366L12.483 11.7091V13.7778H12.1706V11.7091L11.4431 12.4366Z" fill="black"/>
<path fill-rule="evenodd" clip-rule="evenodd" d="M13.5143 8H9.72727C9.32561 8 9 8.32561 9 8.72727V15.2727C9 15.6744 9.32561 16 9.72727 16H14.8182C15.2198 16 15.5455 15.6744 15.5455 15.2727V10.0312L13.5143 8ZM9.72727 8.72727H12.6364V10.1818C12.6364 10.5835 12.962 10.9091 13.3636 10.9091H14.8182V15.2727H9.72727V8.72727ZM13.3636 10.1818V8.8779L14.6676 10.1818H13.3636Z" fill="black"/>
<path fill-rule="evenodd" clip-rule="evenodd" d="M22 2H2V22H22V2ZM20 4H4V20H20V4Z" fill="black"/>
</svg>
