<svg width="24" height="24" viewBox="0 0 24 24" fill="none" xmlns="http://www.w3.org/2000/svg">
<path d="M13.362 12.8839L12.7728 13.4731L11.8889 12.5893L11.005 13.4731L10.4157 12.8839L11.2996 12L10.4157 11.1161L11.005 10.5269L11.8889 11.4107L12.7728 10.5269L13.362 11.1161L12.4781 12L13.362 12.8839Z" fill="black"/>
<path fill-rule="evenodd" clip-rule="evenodd" d="M8 8.11111C8 7.49746 8.49746 7 9.11111 7H14.6667C15.2803 7 15.7778 7.49746 15.7778 8.11111V15.8889C15.7778 16.5025 15.2803 17 14.6667 17H9.11111C8.49746 17 8 16.5025 8 15.8889V8.11111ZM9.11111 8.11111H14.6667V15.8889H9.11111V8.11111Z" fill="black"/>
<path fill-rule="evenodd" clip-rule="evenodd" d="M12 22C17.5228 22 22 17.5228 22 12C22 6.47715 17.5228 2 12 2C6.47715 2 2 6.47715 2 12C2 17.5228 6.47715 22 12 22ZM12 20C16.4183 20 20 16.4183 20 12C20 7.58172 16.4183 4 12 4C7.58172 4 4 7.58172 4 12C4 16.4183 7.58172 20 12 20Z" fill="black"/>
</svg>
