<svg width="24" height="24" viewBox="0 0 24 24" fill="none" xmlns="http://www.w3.org/2000/svg">
<path fill-rule="evenodd" clip-rule="evenodd" d="M2 2H22V22H2V2ZM9.11111 7C8.49746 7 8 7.49746 8 8.11111V15.8889C8 16.5025 8.49746 17 9.11111 17H14.6667C15.2803 17 15.7778 16.5025 15.7778 15.8889V8.11111C15.7778 7.49746 15.2803 7 14.6667 7H9.11111ZM14.6667 8.11111H9.11111V15.8889H14.6667V8.11111ZM10.2222 11.6187L10.5904 11.9869L11.8028 10.7745V14.2222H12.3235V10.7745L13.5359 11.9869L13.9041 11.6187L12.0632 9.77778L10.2222 11.6187Z" fill="black"/>
</svg>
