<svg width="24" height="24" viewBox="0 0 24 24" fill="none" xmlns="http://www.w3.org/2000/svg">
<path fill-rule="evenodd" clip-rule="evenodd" d="M2 2H22V22H2V2ZM9.11111 7C8.49746 7 8 7.49746 8 8.11111V15.8889C8 16.5025 8.49746 17 9.11111 17H14.6667C15.2803 17 15.7778 16.5025 15.7778 15.8889V8.11111C15.7778 7.49746 15.2803 7 14.6667 7H9.11111ZM14.6667 8.11111H9.11111V15.8889H14.6667V8.11111ZM12.7728 13.4731L13.362 12.8839L12.4781 12L13.362 11.1161L12.7728 10.5269L11.8889 11.4107L11.005 10.5269L10.4157 11.1161L11.2996 12L10.4157 12.8839L11.005 13.4731L11.8889 12.5893L12.7728 13.4731Z" fill="black"/>
</svg>
