<svg width="24" height="24" viewBox="0 0 24 24" fill="none" xmlns="http://www.w3.org/2000/svg">
<path d="M13.2104 12.4523L13.4314 12.6732L12.3268 13.7778L11.2222 12.6732L11.4431 12.4523L12.1706 13.1797V11.1111H12.483V13.1797L13.2104 12.4523Z" fill="black"/>
<path fill-rule="evenodd" clip-rule="evenodd" d="M13.5143 8H9.72727C9.32561 8 9 8.32561 9 8.72727V15.2727C9 15.6744 9.32561 16 9.72727 16H14.8182C15.2198 16 15.5455 15.6744 15.5455 15.2727V10.0312L13.5143 8ZM9.72727 8.72727H12.6364V10.1818C12.6364 10.5835 12.962 10.9091 13.3636 10.9091H14.8182V15.2727H9.72727V8.72727ZM13.3636 10.1818V8.8779L14.6676 10.1818H13.3636Z" fill="black"/>
<path fill-rule="evenodd" clip-rule="evenodd" d="M12 22C17.5228 22 22 17.5228 22 12C22 6.47715 17.5228 2 12 2C6.47715 2 2 6.47715 2 12C2 17.5228 6.47715 22 12 22ZM12 20C16.4183 20 20 16.4183 20 12C20 7.58172 16.4183 4 12 4C7.58172 4 4 7.58172 4 12C4 16.4183 7.58172 20 12 20Z" fill="black"/>
</svg>
