<svg width="24" height="24" viewBox="0 0 24 24" fill="none" xmlns="http://www.w3.org/2000/svg">
<path fill-rule="evenodd" clip-rule="evenodd" d="M22 12C22 17.5228 17.5228 22 12 22C6.47715 22 2 17.5228 2 12C2 6.47715 6.47715 2 12 2C17.5228 2 22 6.47715 22 12ZM9.72727 8H13.5143L15.5455 10.0312V15.2727C15.5455 15.6744 15.2198 16 14.8182 16H9.72727C9.32561 16 9 15.6744 9 15.2727V8.72727C9 8.32561 9.32561 8 9.72727 8ZM12.6364 8.72727H9.72727V15.2727H14.8182V10.9091H13.3636C12.962 10.9091 12.6364 10.5835 12.6364 10.1818V8.72727ZM13.3636 8.8779V10.1818H14.6676L13.3636 8.8779ZM13.4314 12.6732L13.2104 12.4523L12.483 13.1797V11.1111H12.1706V13.1797L11.4431 12.4523L11.2222 12.6732L12.3268 13.7778L13.4314 12.6732Z" fill="black"/>
</svg>
