<svg width="24" height="24" viewBox="0 0 24 24" fill="none" xmlns="http://www.w3.org/2000/svg">
<path d="M13.1311 11.5556L13.4444 11.8711L11.6667 13.6489L10.7778 12.7622L11.0933 12.4489L11.6667 13.02L13.1311 11.5556Z" fill="black"/>
<path fill-rule="evenodd" clip-rule="evenodd" d="M13.5143 8H9.72727C9.32561 8 9 8.32561 9 8.72727V15.2727C9 15.6744 9.32561 16 9.72727 16H14.8182C15.2198 16 15.5455 15.6744 15.5455 15.2727V10.0312L13.5143 8ZM9.72727 8.72727H12.6364V10.1818C12.6364 10.5835 12.962 10.9091 13.3636 10.9091H14.8182V15.2727H9.72727V8.72727ZM13.3636 10.1818V8.8779L14.6676 10.1818H13.3636Z" fill="black"/>
<path fill-rule="evenodd" clip-rule="evenodd" d="M22 2H2V22H22V2ZM20 4H4V20H20V4Z" fill="black"/>
</svg>
