<svg width="24" height="24" viewBox="0 0 24 24" fill="none" xmlns="http://www.w3.org/2000/svg">
<path d="M12.75 16H11.25V13.75H9V12.25H11.25V10H12.75V12.25H15V13.75H12.75V16Z" fill="black"/>
<path fill-rule="evenodd" clip-rule="evenodd" d="M15.1571 3H6.63636C5.73262 3 5 3.73262 5 4.63636V19.3636C5 20.2674 5.73262 21 6.63636 21H18.0909C18.9946 21 19.7273 20.2674 19.7273 19.3636V7.57019L15.1571 3ZM6.63636 4.63636H13.1818V7.90909C13.1818 8.81283 13.9144 9.54545 14.8182 9.54545H18.0909V19.3636H6.63636V4.63636ZM14.8182 7.90909V4.97527L17.752 7.90909H14.8182Z" fill="black"/>
</svg>
