<svg width="24" height="24" viewBox="0 0 24 24" fill="none" xmlns="http://www.w3.org/2000/svg">
<path fill-rule="evenodd" clip-rule="evenodd" d="M22 12C22 17.5228 17.5228 22 12 22C6.47715 22 2 17.5228 2 12C2 6.47715 6.47715 2 12 2C17.5228 2 22 6.47715 22 12ZM10.0254 7.04688L9.45117 12.1055L11.0234 12.4951L11.2148 12.3174C11.5065 12.0713 11.887 11.9482 12.3564 11.9482C12.8669 11.9482 13.2611 12.0986 13.5391 12.3994C13.8171 12.7002 13.9561 13.1331 13.9561 13.6982C13.9561 14.2861 13.8353 14.7419 13.5938 15.0654C13.3522 15.3844 13.0081 15.5439 12.5615 15.5439C12.1605 15.5439 11.8346 15.43 11.584 15.2021C11.3379 14.9697 11.1943 14.6462 11.1533 14.2314H9.19824C9.21647 14.7965 9.3737 15.3001 9.66992 15.7422C9.9707 16.1842 10.3786 16.5283 10.8936 16.7744C11.4085 17.016 11.9668 17.1367 12.5684 17.1367C13.2565 17.1367 13.8535 16.9977 14.3594 16.7197C14.8652 16.4372 15.2526 16.043 15.5215 15.5371C15.7949 15.0267 15.9316 14.4502 15.9316 13.8076C15.9316 12.7503 15.6628 11.9277 15.125 11.3398C14.5872 10.752 13.8444 10.458 12.8965 10.458C12.3678 10.458 11.8688 10.5833 11.3994 10.834L11.6455 8.69434H15.6035V7.04688H10.0254Z" fill="black"/>
</svg>
