<svg width="24" height="24" viewBox="0 0 24 24" fill="none" xmlns="http://www.w3.org/2000/svg">
<path fill-rule="evenodd" clip-rule="evenodd" d="M19.3636 6.63636C20.2674 6.63636 21 7.36899 21 8.27273V18.0909C21 18.9946 20.2674 19.7273 19.3636 19.7273H4.63636C3.73262 19.7273 3 18.9946 3 18.0909V6.63636C3 5.73262 3.73262 5 4.63636 5H9.54545C10.4618 5 11.0451 5.38901 11.631 6.12815C11.647 6.14842 11.686 6.19861 11.7293 6.25438L11.73 6.25534C11.7917 6.33486 11.8624 6.42596 11.8875 6.45703C11.9129 6.48848 11.9342 6.51449 11.9519 6.53598C12.0239 6.6235 12.0343 6.63619 12.0015 6.63636H19.3636ZM14.6517 14.591L13.591 15.6517L12 14.0607L10.409 15.6517L9.34835 14.591L10.9393 13L9.34835 11.409L10.409 10.3483L12 11.9393L13.591 10.3483L14.6517 11.409L13.0607 13L14.6517 14.591Z" fill="black"/>
</svg>
