<svg width="24" height="24" viewBox="0 0 24 24" fill="none" xmlns="http://www.w3.org/2000/svg">
<path fill-rule="evenodd" clip-rule="evenodd" d="M19.3636 6.63636C20.2674 6.63636 21 7.36899 21 8.27273V18.0909C21 18.9946 20.2674 19.7273 19.3636 19.7273H4.63636C3.73262 19.7273 3 18.9946 3 18.0909V6.63636C3 5.73262 3.73262 5 4.63636 5H9.54545C10.4618 5 11.0451 5.38901 11.631 6.12815C11.6471 6.14854 11.6864 6.19918 11.73 6.25534C11.7917 6.33486 11.8624 6.42596 11.8875 6.45703C11.9129 6.48848 11.9342 6.51449 11.9519 6.53598C12.0239 6.6235 12.0343 6.63619 12.0015 6.63636H19.3636ZM9.49706 12.9823L9 12.4853L11.4853 10L13.9706 12.4853L13.4735 12.9823L11.8368 11.3456V16H11.1338V11.3456L9.49706 12.9823Z" fill="black"/>
</svg>
