<svg width="24" height="24" viewBox="0 0 24 24" fill="none" xmlns="http://www.w3.org/2000/svg">
<path fill-rule="evenodd" clip-rule="evenodd" d="M15.1299 13.2539H14.002V7.04688H12.0059L7.85645 13.6025L7.94531 14.8467H12.0264V17H14.002V14.8467H15.1299V13.2539ZM12.0264 13.2539H9.8252L11.8965 9.96582L12.0264 9.74023V13.2539Z" fill="black"/>
<path fill-rule="evenodd" clip-rule="evenodd" d="M22 12C22 17.5228 17.5228 22 12 22C6.47715 22 2 17.5228 2 12C2 6.47715 6.47715 2 12 2C17.5228 2 22 6.47715 22 12ZM20 12C20 16.4183 16.4183 20 12 20C7.58172 20 4 16.4183 4 12C4 7.58172 7.58172 4 12 4C16.4183 4 20 7.58172 20 12Z" fill="black"/>
</svg>
