<svg width="24" height="24" viewBox="0 0 24 24" fill="none" xmlns="http://www.w3.org/2000/svg">
<path fill-rule="evenodd" clip-rule="evenodd" d="M12 5.881C12.981 4.729 14.484 4 16.05 4C18.822 4 21 6.178 21 8.95C21 12.3492 17.945 15.1195 13.3164 19.3167L13.305 19.327L12 20.515L10.695 19.336L10.6595 19.3037C6.04437 15.1098 3 12.3433 3 8.95C3 6.178 5.178 4 7.95 4C9.516 4 11.019 4.729 12 5.881ZM12 18.085L12.09 17.995C16.374 14.116 19.2 11.551 19.2 8.95C19.2 7.15 17.85 5.8 16.05 5.8C14.664 5.8 13.314 6.691 12.846 7.924H11.163C10.686 6.691 9.336 5.8 7.95 5.8C6.15 5.8 4.8 7.15 4.8 8.95C4.8 11.551 7.626 14.116 11.91 17.995L12 18.085Z" fill="black"/>
</svg>
