<svg width="24" height="24" viewBox="0 0 24 24" fill="none" xmlns="http://www.w3.org/2000/svg">
<path fill-rule="evenodd" clip-rule="evenodd" d="M6 16.3333H14C14.4333 16.3333 14.84 16.12 15.0867 15.7733L18 11.6667L15.0867 7.56C14.84 7.20667 14.4333 7 14 7H6L9 11.6667L6 16.3333ZM14 15H8.33333L10.6667 11.6667L8.33333 8.33333H14L16.3333 11.6667L14 15Z" fill="black"/>
<path fill-rule="evenodd" clip-rule="evenodd" d="M12 22C17.5228 22 22 17.5228 22 12C22 6.47715 17.5228 2 12 2C6.47715 2 2 6.47715 2 12C2 17.5228 6.47715 22 12 22ZM12 20C16.4183 20 20 16.4183 20 12C20 7.58172 16.4183 4 12 4C7.58172 4 4 7.58172 4 12C4 16.4183 7.58172 20 12 20Z" fill="black"/>
</svg>
