<svg width="24" height="24" viewBox="0 0 24 24" fill="none" xmlns="http://www.w3.org/2000/svg">
<path fill-rule="evenodd" clip-rule="evenodd" d="M13.8421 8C14.1947 8 14.5105 8.17368 14.7 8.44211L17 11.6842L14.7 14.9263C14.5105 15.1947 14.1947 15.3684 13.8421 15.3684L8.05263 15.3632C7.47368 15.3632 7 14.8947 7 14.3158V9.05263C7 8.47368 7.47368 8.00526 8.05263 8.00526L13.8421 8ZM8.05263 14.3158H13.8421L15.7105 11.6842L13.8421 9.05263H8.05263V14.3158Z" fill="black"/>
<path fill-rule="evenodd" clip-rule="evenodd" d="M12 22C17.5228 22 22 17.5228 22 12C22 6.47715 17.5228 2 12 2C6.47715 2 2 6.47715 2 12C2 17.5228 6.47715 22 12 22ZM12 20C16.4183 20 20 16.4183 20 12C20 7.58172 16.4183 4 12 4C7.58172 4 4 7.58172 4 12C4 16.4183 7.58172 20 12 20Z" fill="black"/>
</svg>
