<svg width="24" height="24" viewBox="0 0 24 24" fill="none" xmlns="http://www.w3.org/2000/svg">
<path fill-rule="evenodd" clip-rule="evenodd" d="M22 12C22 17.5228 17.5228 22 12 22C6.47715 22 2 17.5228 2 12C2 6.47715 6.47715 2 12 2C17.5228 2 22 6.47715 22 12ZM14.7 8.44211C14.5105 8.17368 14.1947 8 13.8421 8L8.05263 8.00526C7.47368 8.00526 7 8.47368 7 9.05263V14.3158C7 14.8947 7.47368 15.3632 8.05263 15.3632L13.8421 15.3684C14.1947 15.3684 14.5105 15.1947 14.7 14.9263L17 11.6842L14.7 8.44211ZM13.8421 14.3158H8.05263V9.05263H13.8421L15.7105 11.6842L13.8421 14.3158Z" fill="black"/>
</svg>
