<svg width="24" height="24" viewBox="0 0 24 24" fill="none" xmlns="http://www.w3.org/2000/svg">
<path d="M9.03918 8H18V9.49347H9.03918V8Z" fill="black"/>
<path d="M9.03918 10.9869H18V12.4804H9.03918V10.9869Z" fill="black"/>
<path d="M9.03918 13.9739H18V15.4673H9.03918V13.9739Z" fill="black"/>
<path d="M6.74486 8C6.33313 8 6 8.33603 6 8.74674C6 9.15744 6.33313 9.49347 6.74486 9.49347C7.1566 9.49347 7.49347 9.15744 7.49347 8.74674C7.49347 8.33603 7.1566 8 6.74486 8Z" fill="black"/>
<path d="M6.74486 10.9869C6.33313 10.9869 6 11.323 6 11.7337C6 12.1444 6.33313 12.4804 6.74486 12.4804C7.1566 12.4804 7.49347 12.1444 7.49347 11.7337C7.49347 11.323 7.1566 10.9869 6.74486 10.9869Z" fill="black"/>
<path d="M6.74486 13.9739C6.33313 13.9739 6 14.3099 6 14.7206C6 15.1313 6.33313 15.4673 6.74486 15.4673C7.1566 15.4673 7.49347 15.1313 7.49347 14.7206C7.49347 14.3099 7.1566 13.9739 6.74486 13.9739Z" fill="black"/>
<path fill-rule="evenodd" clip-rule="evenodd" d="M12 22C17.5228 22 22 17.5228 22 12C22 6.47715 17.5228 2 12 2C6.47715 2 2 6.47715 2 12C2 17.5228 6.47715 22 12 22ZM12 20C16.4183 20 20 16.4183 20 12C20 7.58172 16.4183 4 12 4C7.58172 4 4 7.58172 4 12C4 16.4183 7.58172 20 12 20Z" fill="black"/>
</svg>
