<svg width="24" height="24" viewBox="0 0 24 24" fill="none" xmlns="http://www.w3.org/2000/svg">
<path fill-rule="evenodd" clip-rule="evenodd" d="M2 2H22V22H2V2ZM6.74486 8C6.33313 8 6 8.33603 6 8.74674C6 9.15744 6.33313 9.49347 6.74486 9.49347C7.1566 9.49347 7.49347 9.15744 7.49347 8.74674C7.49347 8.33603 7.1566 8 6.74486 8ZM9.03917 8H18V9.49347H9.03917V8ZM9.03917 10.9869H18V12.4804H9.03917V10.9869ZM18 13.9739H9.03917V15.4674H18V13.9739ZM6 11.7337C6 11.323 6.33313 10.9869 6.74486 10.9869C7.1566 10.9869 7.49347 11.323 7.49347 11.7337C7.49347 12.1444 7.1566 12.4804 6.74486 12.4804C6.33313 12.4804 6 12.1444 6 11.7337ZM6.74486 13.9739C6.33313 13.9739 6 14.3099 6 14.7206C6 15.1313 6.33313 15.4674 6.74486 15.4674C7.1566 15.4674 7.49347 15.1313 7.49347 14.7206C7.49347 14.3099 7.1566 13.9739 6.74486 13.9739Z" fill="black"/>
</svg>
