<svg width="24" height="24" viewBox="0 0 24 24" fill="none" xmlns="http://www.w3.org/2000/svg">
<path d="M4 8C4 7.45 4.44612 7 4.99749 7C5.54887 7 6 7.45 6 8C6 8.55 5.54887 9 4.99749 9C4.44612 9 4 8.55 4 8Z" fill="black"/>
<path d="M20.0699 7H8.06995V9H20.0699V7Z" fill="black"/>
<path d="M20.0699 11H8.06995V13H20.0699V11Z" fill="black"/>
<path d="M8.06995 15H20.0699V17H8.06995V15Z" fill="black"/>
<path d="M4.99749 11C4.44612 11 4 11.45 4 12C4 12.55 4.44612 13 4.99749 13C5.54887 13 6 12.55 6 12C6 11.45 5.54887 11 4.99749 11Z" fill="black"/>
<path d="M4 16C4 15.45 4.44612 15 4.99749 15C5.54887 15 6 15.45 6 16C6 16.55 5.54887 17 4.99749 17C4.44612 17 4 16.55 4 16Z" fill="black"/>
</svg>
