<svg width="24" height="24" viewBox="0 0 24 24" fill="none" xmlns="http://www.w3.org/2000/svg">
<path fill-rule="evenodd" clip-rule="evenodd" d="M22 12C22 17.5228 17.5228 22 12 22C6.47715 22 2 17.5228 2 12C2 6.47715 6.47715 2 12 2C17.5228 2 22 6.47715 22 12ZM9.5373 9H17V10.2438H9.5373V9ZM9.5373 11.4876H17V12.7313H9.5373V11.4876ZM17 13.9752H9.5373V15.2189H17V13.9752ZM8.24378 9.27155L8.09764 9.12437L7.41459 9.80742L7.14718 9.54104L7 9.68718L7.41459 10.1007L8.24378 9.27155ZM8.09764 11.6119L8.24378 11.7591L7.41459 12.5883L7 12.1747L7.14718 12.0286L7.41459 12.295L8.09764 11.6119ZM8.24378 14.2467L8.09764 14.0995L7.41459 14.7826L7.14718 14.5162L7 14.6623L7.41459 15.0759L8.24378 14.2467Z" fill="black"/>
</svg>
