<svg width="24" height="24" viewBox="0 0 24 24" fill="none" xmlns="http://www.w3.org/2000/svg">
<path d="M20.08 7H8.07996V9H20.08V7Z" fill="black"/>
<path d="M20.08 11H8.07996V13H20.08V11Z" fill="black"/>
<path d="M8.07996 15H20.08V17H8.07996V15Z" fill="black"/>
<path d="M5.765 7.2L6 7.43666L4.66667 8.77L4 8.105L4.23667 7.87L4.66667 8.29833L5.765 7.2Z" fill="black"/>
<path d="M6 11.4367L5.765 11.2L4.66667 12.2983L4.23667 11.87L4 12.105L4.66667 12.77L6 11.4367Z" fill="black"/>
<path d="M5.765 15.2L6 15.4367L4.66667 16.77L4 16.105L4.23667 15.87L4.66667 16.2983L5.765 15.2Z" fill="black"/>
</svg>
