<svg width="24" height="24" viewBox="0 0 24 24" fill="none" xmlns="http://www.w3.org/2000/svg">
<path fill-rule="evenodd" clip-rule="evenodd" d="M22 12C22 17.5228 17.5228 22 12 22C6.47715 22 2 17.5228 2 12C2 6.47715 6.47715 2 12 2C17.5228 2 22 6.47715 22 12ZM7 9H8.24456V10.2446H7V9ZM9.53264 9H17V10.2446H9.53264V9ZM9.53264 11.4891H17V12.7337H9.53264V11.4891ZM17 13.9782H9.53264V15.2228H17V13.9782ZM8.24456 11.4891H7V12.7337H8.24456V11.4891ZM7 13.9782H8.24456V15.2228H7V13.9782Z" fill="black"/>
</svg>
