<svg width="24" height="24" viewBox="0 0 24 24" fill="none" xmlns="http://www.w3.org/2000/svg">
<path d="M9.53265 9H17V10.2446H9.53265V9Z" fill="black"/>
<path d="M9.53265 11.4891H17V12.7337H9.53265V11.4891Z" fill="black"/>
<path d="M9.53265 13.9782H17V15.2228H9.53265V13.9782Z" fill="black"/>
<rect x="7" y="9" width="1.24456" height="1.24456" fill="black"/>
<rect x="7" y="11.4891" width="1.24456" height="1.24456" fill="black"/>
<rect x="7" y="13.9782" width="1.24456" height="1.24456" fill="black"/>
<path fill-rule="evenodd" clip-rule="evenodd" d="M12 22C17.5228 22 22 17.5228 22 12C22 6.47715 17.5228 2 12 2C6.47715 2 2 6.47715 2 12C2 17.5228 6.47715 22 12 22ZM12 20C16.4183 20 20 16.4183 20 12C20 7.58172 16.4183 4 12 4C7.58172 4 4 7.58172 4 12C4 16.4183 7.58172 20 12 20Z" fill="black"/>
</svg>
