<svg width="24" height="24" viewBox="0 0 24 24" fill="none" xmlns="http://www.w3.org/2000/svg">
<path d="M9.53729 9H17V10.2438H9.53729V9Z" fill="black"/>
<path d="M9.53729 11.4876H17V12.7313H9.53729V11.4876Z" fill="black"/>
<path d="M9.53729 13.9752H17V15.2189H9.53729V13.9752Z" fill="black"/>
<path d="M8.24378 9.27156L8.09764 9.12437L7.41459 9.80742L7.14718 9.54104L7 9.68719L7.41459 10.1007L8.24378 9.27156Z" fill="black"/>
<path d="M8.24378 11.7591L8.09764 11.6119L7.41459 12.295L7.14718 12.0286L7 12.1748L7.41459 12.5883L8.24378 11.7591Z" fill="black"/>
<path d="M8.24378 14.2467L8.09764 14.0995L7.41459 14.7826L7.14718 14.5162L7 14.6623L7.41459 15.0759L8.24378 14.2467Z" fill="black"/>
<path fill-rule="evenodd" clip-rule="evenodd" d="M12 22C17.5228 22 22 17.5228 22 12C22 6.47715 17.5228 2 12 2C6.47715 2 2 6.47715 2 12C2 17.5228 6.47715 22 12 22ZM12 20C16.4183 20 20 16.4183 20 12C20 7.58172 16.4183 4 12 4C7.58172 4 4 7.58172 4 12C4 16.4183 7.58172 20 12 20Z" fill="black"/>
</svg>
