<svg width="24" height="24" viewBox="0 0 24 24" fill="none" xmlns="http://www.w3.org/2000/svg">
<path d="M8.44456 8.23889H18V9.83147H8.44456V8.23889Z" fill="black"/>
<path d="M8.44456 11.424H18V13.0166H8.44456V11.424Z" fill="black"/>
<path d="M8.44456 14.6092H18V16.2017H8.44456V14.6092Z" fill="black"/>
<path d="M7.00429 9H6.72207V7.91211L6.38515 8.0166V7.78711L6.97402 7.57617H7.00429V9Z" fill="black"/>
<path d="M7.29336 12.1852H6.31875V11.9918L6.77871 11.5016C6.84186 11.4325 6.88841 11.3723 6.91836 11.3209C6.94896 11.2695 6.96426 11.2206 6.96426 11.1744C6.96426 11.1113 6.94831 11.0618 6.9164 11.026C6.8845 10.9895 6.83893 10.9713 6.77969 10.9713C6.71588 10.9713 6.66543 10.9934 6.62832 11.0377C6.59186 11.0813 6.57363 11.1389 6.57363 11.2105H6.29043C6.29043 11.124 6.31094 11.0449 6.35195 10.9732C6.39362 10.9016 6.45221 10.8456 6.52773 10.8053C6.60325 10.7643 6.68886 10.7437 6.78457 10.7437C6.93105 10.7437 7.04466 10.7789 7.12539 10.8492C7.20677 10.9195 7.24746 11.0188 7.24746 11.1471C7.24746 11.2174 7.22923 11.289 7.19277 11.3619C7.15631 11.4348 7.09381 11.5198 7.00527 11.6168L6.68203 11.9576H7.29336V12.1852Z" fill="black"/>
<path d="M6.60586 14.5344H6.75625C6.82786 14.5344 6.88092 14.5165 6.91543 14.4807C6.94993 14.4448 6.96719 14.3973 6.96719 14.3381C6.96719 14.2808 6.94993 14.2362 6.91543 14.2043C6.88157 14.1724 6.8347 14.1564 6.7748 14.1564C6.72077 14.1564 6.67552 14.1714 6.63906 14.2014C6.6026 14.2307 6.58437 14.2691 6.58437 14.3166H6.30215C6.30215 14.2424 6.322 14.176 6.36172 14.1174C6.40208 14.0581 6.45807 14.0119 6.52969 13.9787C6.60195 13.9455 6.68138 13.9289 6.76797 13.9289C6.91836 13.9289 7.0362 13.965 7.12148 14.0373C7.20677 14.1089 7.24941 14.2079 7.24941 14.3342C7.24941 14.3993 7.22956 14.4592 7.18984 14.5139C7.15013 14.5685 7.09804 14.6105 7.03359 14.6398C7.11367 14.6685 7.17324 14.7114 7.2123 14.7687C7.25202 14.826 7.27187 14.8937 7.27187 14.9719C7.27187 15.0982 7.22565 15.1994 7.1332 15.2756C7.0414 15.3517 6.91966 15.3898 6.76797 15.3898C6.62604 15.3898 6.50983 15.3524 6.41933 15.2775C6.32949 15.2027 6.28457 15.1037 6.28457 14.9807H6.56679C6.56679 15.034 6.58665 15.0777 6.62636 15.1115C6.66673 15.1454 6.71621 15.1623 6.7748 15.1623C6.84186 15.1623 6.89427 15.1447 6.93203 15.1096C6.97044 15.0738 6.98965 15.0266 6.98965 14.968C6.98965 14.826 6.91152 14.7551 6.75527 14.7551H6.60586V14.5344Z" fill="black"/>
<path fill-rule="evenodd" clip-rule="evenodd" d="M12 22C17.5228 22 22 17.5228 22 12C22 6.47715 17.5228 2 12 2C6.47715 2 2 6.47715 2 12C2 17.5228 6.47715 22 12 22ZM12 20C16.4183 20 20 16.4183 20 12C20 7.58172 16.4183 4 12 4C7.58172 4 4 7.58172 4 12C4 16.4183 7.58172 20 12 20Z" fill="black"/>
</svg>
