<svg width="24" height="24" viewBox="0 0 24 24" fill="none" xmlns="http://www.w3.org/2000/svg">
<path fill-rule="evenodd" clip-rule="evenodd" d="M2 2H22V22H2V2ZM9.04475 8H18V9.49254H9.04475V8ZM9.04475 10.9851H18V12.4776H9.04475V10.9851ZM18 13.9702H9.04475V15.4627H18V13.9702ZM7.49254 8.32587L7.31717 8.14925L6.49751 8.9689L6.17662 8.64925L6 8.82462L6.49751 9.32089L7.49254 8.32587ZM7.31717 11.1343L7.49254 11.3109L6.49751 12.306L6 11.8097L6.17662 11.6343L6.49751 11.954L7.31717 11.1343ZM7.49254 14.296L7.31717 14.1194L6.49751 14.9391L6.17662 14.6194L6 14.7948L6.49751 15.2911L7.49254 14.296Z" fill="black"/>
</svg>
