<svg width="24" height="24" viewBox="0 0 24 24" fill="none" xmlns="http://www.w3.org/2000/svg">
<path d="M19.0699 7.3H7.06995V9.3H19.0699V7.3Z" fill="black"/>
<path d="M19.0699 11.3H7.06995V13.3H19.0699V11.3Z" fill="black"/>
<path d="M7.06995 15.3H19.0699V17.3H7.06995V15.3Z" fill="black"/>
<path d="M4.92578 9H5.20801V7.57617H5.17773L4.58887 7.78711V8.0166L4.92578 7.91211V9Z" fill="black"/>
<path d="M5.49707 13H4.52246V12.8066L4.98242 12.3164C5.04557 12.2474 5.09212 12.1872 5.12207 12.1357C5.15267 12.0843 5.16797 12.0355 5.16797 11.9893C5.16797 11.9261 5.15202 11.8766 5.12012 11.8408C5.08822 11.8044 5.04264 11.7861 4.9834 11.7861C4.9196 11.7861 4.86914 11.8083 4.83203 11.8525C4.79557 11.8962 4.77734 11.9538 4.77734 12.0254H4.49414C4.49414 11.9388 4.51465 11.8597 4.55566 11.7881C4.59733 11.7165 4.65592 11.6605 4.73145 11.6201C4.80697 11.5791 4.89258 11.5586 4.98828 11.5586C5.13477 11.5586 5.24837 11.5938 5.3291 11.6641C5.41048 11.7344 5.45117 11.8337 5.45117 11.9619C5.45117 12.0322 5.43294 12.1038 5.39648 12.1768C5.36003 12.2497 5.29753 12.3346 5.20898 12.4316L4.88574 12.7725H5.49707V13Z" fill="black"/>
<path d="M4.95996 16.1641H4.80957V16.3848H4.95898C5.11523 16.3848 5.19336 16.4557 5.19336 16.5977C5.19336 16.6562 5.17415 16.7035 5.13574 16.7393C5.09798 16.7744 5.04557 16.792 4.97852 16.792C4.91992 16.792 4.87044 16.7751 4.83008 16.7412C4.79036 16.7074 4.77051 16.6637 4.77051 16.6104H4.48828C4.48828 16.7334 4.5332 16.8324 4.62305 16.9072C4.71354 16.9821 4.82975 17.0195 4.97168 17.0195C5.12337 17.0195 5.24512 16.9814 5.33691 16.9053C5.42936 16.8291 5.47559 16.7279 5.47559 16.6016C5.47559 16.5234 5.45573 16.4557 5.41602 16.3984C5.37695 16.3411 5.31738 16.2982 5.2373 16.2695C5.30176 16.2402 5.35384 16.1982 5.39355 16.1436C5.43327 16.0889 5.45312 16.029 5.45312 15.9639C5.45312 15.8376 5.41048 15.7386 5.3252 15.667C5.23991 15.5947 5.12207 15.5586 4.97168 15.5586C4.88509 15.5586 4.80566 15.5752 4.7334 15.6084C4.66178 15.6416 4.60579 15.6878 4.56543 15.7471C4.52572 15.8057 4.50586 15.8721 4.50586 15.9463H4.78809C4.78809 15.8988 4.80632 15.8604 4.84277 15.8311C4.87923 15.8011 4.92448 15.7861 4.97852 15.7861C5.03841 15.7861 5.08529 15.8021 5.11914 15.834C5.15365 15.8659 5.1709 15.9105 5.1709 15.9678C5.1709 16.027 5.15365 16.0745 5.11914 16.1104C5.08464 16.1462 5.03158 16.1641 4.95996 16.1641Z" fill="black"/>
</svg>
