<svg width="24" height="24" viewBox="0 0 24 24" fill="none" xmlns="http://www.w3.org/2000/svg">
<path d="M14.4286 10.7143C14.4286 12.1371 13.28 13.2857 11.8571 13.2857C10.4343 13.2857 9.28571 12.1371 9.28571 10.7143V5.57143C9.28571 4.14857 10.4343 3 11.8571 3C13.28 3 14.4286 4.14857 14.4286 5.57143V10.7143Z" fill="black"/>
<path d="M17.8571 10.7143H16.4C16.4 13.2857 14.2229 15.0857 11.8571 15.0857C9.49143 15.0857 7.31429 13.2857 7.31429 10.7143H5.85714C5.85714 13.6371 8.18857 16.0543 11 16.4743V19.2857L5 19.2857V21H18.7143V19.2857L12.7143 19.2857V16.4743C15.5257 16.0543 17.8571 13.6371 17.8571 10.7143Z" fill="black"/>
</svg>
