<svg width="24" height="24" viewBox="0 0 24 24" fill="none" xmlns="http://www.w3.org/2000/svg">
<path fill-rule="evenodd" clip-rule="evenodd" d="M13.2381 11.2857C13.2381 12.0762 12.6 12.7143 11.8095 12.7143C11.0191 12.7143 10.381 12.0762 10.381 11.2857V8.42857C10.381 7.6381 11.0191 7 11.8095 7C12.6 7 13.2381 7.6381 13.2381 8.42857V11.2857ZM11.8095 7.95238C11.5476 7.95238 11.3333 8.16666 11.3333 8.42857V11.2857C11.3333 11.5476 11.5476 11.7619 11.8095 11.7619C12.0762 11.7619 12.2857 11.5524 12.2857 11.2857V8.42857C12.2857 8.16666 12.0714 7.95238 11.8095 7.95238ZM15.1429 11.2857H14.3333C14.3333 12.7143 13.1238 13.7143 11.8095 13.7143C10.4952 13.7143 9.28573 12.7143 9.28573 11.2857H8.4762C8.4762 12.9095 9.77144 14.2524 11.3333 14.4857V16.0476H12.2857V14.4857C13.8476 14.2524 15.1429 12.9095 15.1429 11.2857ZM15.619 17V16.0476H8V17H15.619Z" fill="black"/>
<path fill-rule="evenodd" clip-rule="evenodd" d="M22 2H2V22H22V2ZM20 4H4V20H20V4Z" fill="black"/>
</svg>
