<svg width="24" height="24" viewBox="0 0 24 24" fill="none" xmlns="http://www.w3.org/2000/svg">
<path fill-rule="evenodd" clip-rule="evenodd" d="M22 12C22 17.5228 17.5228 22 12 22C6.47715 22 2 17.5228 2 12C2 6.47715 6.47715 2 12 2C17.5228 2 22 6.47715 22 12ZM11.8095 12.7143C12.6 12.7143 13.2381 12.0762 13.2381 11.2857V8.42857C13.2381 7.6381 12.6 7 11.8095 7C11.0191 7 10.381 7.6381 10.381 8.42857V11.2857C10.381 12.0762 11.0191 12.7143 11.8095 12.7143ZM11.3333 8.42857C11.3333 8.16666 11.5476 7.95238 11.8095 7.95238C12.0714 7.95238 12.2857 8.16666 12.2857 8.42857V11.2857C12.2857 11.5524 12.0762 11.7619 11.8095 11.7619C11.5476 11.7619 11.3333 11.5476 11.3333 11.2857V8.42857ZM14.3333 11.2857H15.1429C15.1429 12.9095 13.8476 14.2524 12.2857 14.4857V16.0476H11.3333V14.4857C9.77144 14.2524 8.4762 12.9095 8.4762 11.2857H9.28573C9.28573 12.7143 10.4952 13.7143 11.8095 13.7143C13.1238 13.7143 14.3333 12.7143 14.3333 11.2857ZM15.619 16.0476V17H8V16.0476H15.619Z" fill="black"/>
</svg>
