<svg width="24" height="24" viewBox="0 0 24 24" fill="none" xmlns="http://www.w3.org/2000/svg">
<path d="M2 22H22V2L2 22Z" fill="black"/>
<path d="M19.0586 18.918H18.125V21H16.9531V15.3125H19.0664C19.7383 15.3125 20.2565 15.4622 20.6211 15.7617C20.9857 16.0612 21.168 16.4844 21.168 17.0312C21.168 17.4193 21.0833 17.7435 20.9141 18.0039C20.7474 18.2617 20.4935 18.4674 20.1523 18.6211L21.3828 20.9453V21H20.125L19.0586 18.918ZM18.125 17.9688H19.0703C19.3646 17.9688 19.5924 17.8945 19.7539 17.7461C19.9154 17.5951 19.9961 17.388 19.9961 17.125C19.9961 16.8568 19.9193 16.6458 19.7656 16.4922C19.6146 16.3385 19.3815 16.2617 19.0664 16.2617H18.125V17.9688Z" fill="white"/>
</svg>
