<svg width="24" height="24" viewBox="0 0 24 24" fill="none" xmlns="http://www.w3.org/2000/svg">
<path fill-rule="evenodd" clip-rule="evenodd" d="M17.25 14.8125V10.4375C17.25 7.75125 15.8237 5.5025 13.3125 4.9075V4.3125C13.3125 3.58625 12.7263 3 12 3C11.2737 3 10.6875 3.58625 10.6875 4.3125V4.9075C8.185 5.5025 6.75 7.7425 6.75 10.4375V14.8125L5 16.5625V17.4375H19V16.5625L17.25 14.8125ZM12 20.0625C12.9625 20.0625 13.75 19.275 13.75 18.3125H10.25C10.25 19.275 11.0375 20.0625 12 20.0625ZM8.5 15.6875H15.5V10.4375C15.5 8.2675 14.1788 6.5 12 6.5C9.82125 6.5 8.5 8.2675 8.5 10.4375V15.6875Z" fill="black"/>
</svg>
