<svg width="24" height="24" viewBox="0 0 24 24" fill="none" xmlns="http://www.w3.org/2000/svg">
<path fill-rule="evenodd" clip-rule="evenodd" d="M14.6607 10.843C14.6607 8.84646 13.4451 7.22024 11.4405 7.22024C11.3246 7.22024 11.2134 7.2341 11.1032 7.24782C11.068 7.25221 11.0328 7.25659 10.9977 7.26049L9.6774 5.9402L9.76193 5.9092C9.91321 5.8535 10.0702 5.79571 10.2329 5.75503V5.20759C10.2329 4.53939 10.7723 4 11.4405 4C12.1087 4 12.6481 4.53939 12.6481 5.20759V5.75503C14.9586 6.30247 16.2708 8.37148 16.2708 10.843V12.5336L14.6607 10.9235V10.843ZM13.0506 18.0886C13.0506 18.9741 12.326 19.6987 11.4405 19.6987C10.5549 19.6987 9.83036 18.9741 9.83036 18.0886H13.0506ZM6.13514 4.68431L5 5.81944L7.26222 8.08166C6.84359 8.88672 6.61012 9.82864 6.61012 10.843V14.8683L5 16.4784V17.2835H16.4641L17.8649 18.6843L19 17.5492L6.13514 4.68431ZM8.22024 15.6734H14.6607V15.4802L8.49396 9.3134C8.31685 9.78034 8.22024 10.2956 8.22024 10.843V15.6734Z" fill="black"/>
</svg>
