<svg width="24" height="24" viewBox="0 0 24 24" fill="none" xmlns="http://www.w3.org/2000/svg">
<path fill-rule="evenodd" clip-rule="evenodd" d="M22 12C22 17.5228 17.5228 22 12 22C6.47715 22 2 17.5228 2 12C2 6.47715 6.47715 2 12 2C17.5228 2 22 6.47715 22 12ZM12.4545 9.81818C12.4545 10.8227 11.6409 11.6364 10.6364 11.6364C9.63182 11.6364 8.81818 10.8227 8.81818 9.81818C8.81818 8.81364 9.63182 8 10.6364 8C11.6409 8 12.4545 8.81364 12.4545 9.81818ZM11.5455 9.81818C11.5455 9.31818 11.1364 8.90909 10.6364 8.90909C10.1364 8.90909 9.72727 9.31818 9.72727 9.81818C9.72727 10.3182 10.1364 10.7273 10.6364 10.7273C11.1364 10.7273 11.5455 10.3182 11.5455 9.81818ZM10.6364 12.5455C9.42273 12.5455 7 13.1545 7 14.3636V15.2727H14.2727V14.3636C14.2727 13.1545 11.85 12.5455 10.6364 12.5455ZM10.6364 13.4545C9.41364 13.4545 8.00909 14.0364 7.90909 14.3636H13.3636C13.2727 14.0409 11.8636 13.4545 10.6364 13.4545ZM15.6364 13.4545V12.0909H17V11.1818H15.6364V9.81818H14.7273V11.1818H13.3636V12.0909H14.7273V13.4545H15.6364Z" fill="black"/>
</svg>
