<svg width="24" height="24" viewBox="0 0 24 24" fill="none" xmlns="http://www.w3.org/2000/svg">
<path fill-rule="evenodd" clip-rule="evenodd" d="M9.27273 12.2727C11.2818 12.2727 12.9091 10.6455 12.9091 8.63636C12.9091 6.62727 11.2818 5 9.27273 5C7.26364 5 5.63636 6.62727 5.63636 8.63636C5.63636 10.6455 7.26364 12.2727 9.27273 12.2727ZM9.27273 6.81818C10.2727 6.81818 11.0909 7.63636 11.0909 8.63636C11.0909 9.63636 10.2727 10.4545 9.27273 10.4545C8.27273 10.4545 7.45455 9.63636 7.45455 8.63636C7.45455 7.63636 8.27273 6.81818 9.27273 6.81818ZM2 17.7273C2 15.3091 6.84545 14.0909 9.27273 14.0909C11.7 14.0909 16.5455 15.3091 16.5455 17.7273V19.5455H2V17.7273ZM3.81818 17.7273C4.01818 17.0727 6.82727 15.9091 9.27273 15.9091C11.7273 15.9091 14.5455 17.0818 14.7273 17.7273H3.81818ZM19.2727 13.1818V15.9091H17.4545V13.1818H14.7273V11.3636H17.4545V8.63636H19.2727V11.3636H22V13.1818H19.2727Z" fill="black"/>
</svg>
