<svg width="24" height="24" viewBox="0 0 24 24" fill="none" xmlns="http://www.w3.org/2000/svg">
<path fill-rule="evenodd" clip-rule="evenodd" d="M8.5 8.5C8.5 6.56625 10.0663 5 12 5C13.9338 5 15.5 6.56625 15.5 8.5C15.5 10.4338 13.9338 12 12 12C10.0663 12 8.5 10.4338 8.5 8.5ZM12 6.75C12.9625 6.75 13.75 7.5375 13.75 8.5C13.75 9.4625 12.9625 10.25 12 10.25C11.0375 10.25 10.25 9.4625 10.25 8.5C10.25 7.5375 11.0375 6.75 12 6.75Z" fill="black"/>
<path fill-rule="evenodd" clip-rule="evenodd" d="M12 13.75C9.66375 13.75 5 14.9225 5 17.25V19H19V17.25C19 14.9225 14.3363 13.75 12 13.75ZM12 15.5C14.3625 15.5 17.075 16.6287 17.25 17.25H6.75C6.95125 16.62 9.64625 15.5 12 15.5Z" fill="black"/>
<path d="M21.4025 8.58002L21.99 9.17168L18.6567 12.505L16.99 10.8425L17.5817 10.255L18.6567 11.3259L21.4025 8.58002Z" fill="black"/>
</svg>
