<svg width="24" height="24" viewBox="0 0 24 24" fill="none" xmlns="http://www.w3.org/2000/svg">
<path fill-rule="evenodd" clip-rule="evenodd" d="M12.5455 10.1818C12.5455 11.3873 11.5691 12.3636 10.3636 12.3636C9.15818 12.3636 8.18182 11.3873 8.18182 10.1818C8.18182 8.97636 9.15818 8 10.3636 8C11.5691 8 12.5455 8.97636 12.5455 10.1818ZM11.4545 10.1818C11.4545 9.58182 10.9636 9.09091 10.3636 9.09091C9.76364 9.09091 9.27273 9.58182 9.27273 10.1818C9.27273 10.7818 9.76364 11.2727 10.3636 11.2727C10.9636 11.2727 11.4545 10.7818 11.4545 10.1818Z" fill="black"/>
<path fill-rule="evenodd" clip-rule="evenodd" d="M10.3636 13.4545C8.90727 13.4545 6 14.1855 6 15.6364V16.7273H14.7273V15.6364C14.7273 14.1855 11.82 13.4545 10.3636 13.4545ZM10.3636 14.5455C8.89636 14.5455 7.21091 15.2436 7.09091 15.6364H13.6364C13.5273 15.2491 11.8364 14.5455 10.3636 14.5455Z" fill="black"/>
<path d="M16.3636 14.5455V12.9091H18V11.8182H16.3636V10.1818H15.2727V11.8182H13.6364V12.9091H15.2727V14.5455H16.3636Z" fill="black"/>
<path fill-rule="evenodd" clip-rule="evenodd" d="M19.7778 2H4.22222C3 2 2 3 2 4.22222V19.7778C2 21 3 22 4.22222 22H19.7778C21 22 22 21 22 19.7778V4.22222C22 3 21 2 19.7778 2ZM20 20H4V4H20V20Z" fill="black"/>
</svg>
