<svg width="24" height="24" viewBox="0 0 24 24" fill="none" xmlns="http://www.w3.org/2000/svg">
<path fill-rule="evenodd" clip-rule="evenodd" d="M2 2H22V22H2V2ZM9.36364 9.27273V11.5455H8.90909C8.40701 11.5455 8 11.9525 8 12.4545V16.0909C8 16.593 8.40701 17 8.90909 17H14.3636C14.8657 17 15.2727 16.593 15.2727 16.0909V12.4545C15.2727 11.9525 14.8657 11.5455 14.3636 11.5455H10.2727V9.27273C10.2727 8.51961 10.8832 7.90909 11.6364 7.90909C12.3895 7.90909 13 8.51961 13 9.27273V10.1818H13.9091V9.27273C13.9091 8.01753 12.8916 7 11.6364 7C10.3812 7 9.36364 8.01753 9.36364 9.27273ZM8.90909 12.4545V16.0909H14.3636V12.4545H8.90909ZM11.6364 14.7273C11.8874 14.7273 12.0909 14.5238 12.0909 14.2727C12.0909 14.0217 11.8874 13.8182 11.6364 13.8182C11.3853 13.8182 11.1818 14.0217 11.1818 14.2727C11.1818 14.5238 11.3853 14.7273 11.6364 14.7273Z" fill="black"/>
</svg>
