<svg width="24" height="24" viewBox="0 0 24 24" fill="none" xmlns="http://www.w3.org/2000/svg">
<path fill-rule="evenodd" clip-rule="evenodd" d="M22 12C22 17.5228 17.5228 22 12 22C6.47715 22 2 17.5228 2 12C2 6.47715 6.47715 2 12 2C17.5228 2 22 6.47715 22 12ZM7.41421 10.5858L6.31427 11.6857C6.14142 11.8586 6.14142 12.1414 6.31427 12.3143C9.26526 15.2653 14.0484 15.2653 16.9994 12.3143C17.1723 12.1414 17.1723 11.8586 16.9994 11.6857L15.9026 10.5889C15.7298 10.4161 15.4469 10.4161 15.2741 10.5889C14.8844 10.9786 14.4413 11.296 13.973 11.5317C13.929 11.5506 13.8913 11.582 13.8599 11.6134C13.7782 11.6952 13.731 11.8052 13.7279 11.9277L13.7279 13.3105C12.3828 13.7442 10.9277 13.7473 9.58582 13.3105L9.58582 11.9277C9.58582 11.7517 9.48839 11.604 9.34383 11.5286C8.87557 11.2929 8.43559 10.9786 8.04275 10.5858C7.8699 10.4129 7.58706 10.4129 7.41421 10.5858ZM8.69643 12.1886C8.36017 12.0031 8.03961 11.7769 7.74105 11.516L7.26651 11.9906C7.70963 12.3771 8.19046 12.6945 8.69643 12.9428V12.1886ZM15.5758 11.5192C15.2804 11.7769 14.9598 12.0031 14.6173 12.1948L14.6141 12.946C15.1201 12.6914 15.6009 12.374 16.0441 11.9874L15.5758 11.5192Z" fill="black"/>
</svg>
