<svg width="24" height="24" viewBox="0 0 24 24" fill="none" xmlns="http://www.w3.org/2000/svg">
<path fill-rule="evenodd" clip-rule="evenodd" d="M16 8.44444V10C16 10.2444 15.8 10.4444 15.5556 10.4444C15 10.4444 14.4667 10.5333 13.9689 10.6978C13.8133 10.7467 13.64 10.7111 13.5156 10.5867L12.5378 9.60889C11.28 10.2489 10.2533 11.28 9.60889 12.5378L10.5867 13.5156C10.6711 13.6044 10.7156 13.7156 10.7156 13.8311C10.7156 13.8756 10.7111 13.9244 10.6933 13.9689C10.5289 14.4667 10.44 15.0044 10.44 15.5556C10.44 15.8 10.24 16 9.99556 16H8.44444C8.2 16 8 15.8 8 15.5556C8 11.3822 11.3822 8 15.5556 8C15.8 8 16 8.2 16 8.44444ZM15.1111 9.57333C14.7156 9.6 14.3289 9.66667 13.96 9.77333L13.4267 9.24C13.96 9.05778 14.5244 8.94222 15.1111 8.90222V9.57333ZM9.76888 13.9556C9.66221 14.3333 9.59555 14.72 9.56888 15.1111H8.90666C8.94666 14.5244 9.06221 13.96 9.23999 13.4222L9.76888 13.9556Z" fill="black"/>
<path fill-rule="evenodd" clip-rule="evenodd" d="M12 22C17.5228 22 22 17.5228 22 12C22 6.47715 17.5228 2 12 2C6.47715 2 2 6.47715 2 12C2 17.5228 6.47715 22 12 22ZM12 20C16.4183 20 20 16.4183 20 12C20 7.58172 16.4183 4 12 4C7.58172 4 4 7.58172 4 12C4 16.4183 7.58172 20 12 20Z" fill="black"/>
</svg>
