<svg width="24" height="24" viewBox="0 0 24 24" fill="none" xmlns="http://www.w3.org/2000/svg">
<path fill-rule="evenodd" clip-rule="evenodd" d="M22 12C22 17.5228 17.5228 22 12 22C6.47715 22 2 17.5228 2 12C2 6.47715 6.47715 2 12 2C17.5228 2 22 6.47715 22 12ZM8 14V15.5556C8 15.8 8.2 16 8.44444 16C12.6178 16 16 12.6178 16 8.44444C16 8.2 15.8 8 15.5556 8H14.0044C13.76 8 13.56 8.2 13.56 8.44444C13.56 8.99556 13.4711 9.53333 13.3067 10.0311C13.2889 10.0756 13.2844 10.1244 13.2844 10.1689C13.2844 10.2844 13.3289 10.3956 13.4133 10.4844L14.3911 11.4622C13.7467 12.72 12.72 13.7511 11.4622 14.3911L10.4844 13.4133C10.36 13.2889 10.1867 13.2533 10.0311 13.3022C9.53333 13.4667 9 13.5556 8.44444 13.5556C8.2 13.5556 8 13.7556 8 14ZM10.04 14.2267C9.67111 14.3333 9.28444 14.4 8.88889 14.4267V15.0978C9.47556 15.0578 10.04 14.9422 10.5733 14.76L10.04 14.2267ZM14.4311 8.88889C14.4044 9.28 14.3378 9.66667 14.2311 10.0444L14.76 10.5778C14.9378 10.04 15.0533 9.47556 15.0933 8.88889H14.4311Z" fill="black"/>
</svg>
