<svg width="24" height="24" viewBox="0 0 24 24" fill="none" xmlns="http://www.w3.org/2000/svg">
<path d="M12.5 14C12.5 14.2761 12.2761 14.5 12 14.5C11.7239 14.5 11.5 14.2761 11.5 14C11.5 13.7239 11.7239 13.5 12 13.5C12.2761 13.5 12.5 13.7239 12.5 14Z" fill="black"/>
<path fill-rule="evenodd" clip-rule="evenodd" d="M9.5 9.5V11H9C8.46582 11 8 11.3882 8 11.9167V16.0833C8 16.6118 8.46582 17 9 17H15C15.5342 17 16 16.6118 16 16.0833V11.9167C16 11.3882 15.5342 11 15 11H14.5V9.5C14.5 8.11929 13.3807 7 12 7C10.6193 7 9.5 8.11929 9.5 9.5ZM13.5 9.5V11H10.5V9.5C10.5 8.67157 11.1716 8 12 8C12.8284 8 13.5 8.67157 13.5 9.5ZM9 16V12H15V16H9Z" fill="black"/>
<path fill-rule="evenodd" clip-rule="evenodd" d="M12 22C17.5228 22 22 17.5228 22 12C22 6.47715 17.5228 2 12 2C6.47715 2 2 6.47715 2 12C2 17.5228 6.47715 22 12 22ZM12 20C16.4183 20 20 16.4183 20 12C20 7.58172 16.4183 4 12 4C7.58172 4 4 7.58172 4 12C4 16.4183 7.58172 20 12 20Z" fill="black"/>
</svg>
