<svg width="24" height="24" viewBox="0 0 24 24" fill="none" xmlns="http://www.w3.org/2000/svg">
<g clip-path="url(#clip0)">
<path fill-rule="evenodd" clip-rule="evenodd" d="M12.7071 -0.0208184L15.182 2.45406C15.5709 2.84296 15.5709 3.47936 15.182 3.86827C14.2981 4.75215 13.591 5.7421 13.0606 6.79569C12.8909 7.12096 12.5586 7.34016 12.1626 7.34016L9.05135 7.34016C8.06847 10.3595 8.07554 13.6334 9.05135 16.6598H12.1626C12.4384 16.6669 12.6859 16.773 12.8697 16.9568C12.9404 17.0275 13.0111 17.1124 13.0536 17.2114C13.5839 18.265 14.2981 19.262 15.1749 20.1388C15.5638 20.5277 15.5638 21.1641 15.1749 21.553L12.7071 24.0208C12.3182 24.4097 11.6818 24.4097 11.2929 24.0208C4.65315 17.3811 4.65315 6.61891 11.2929 -0.0208184C11.6818 -0.409727 12.3182 -0.409727 12.7071 -0.0208184ZM13.0889 3.18945C12.502 3.8612 11.9929 4.58245 11.5757 5.33905H9.87867C10.4373 4.20061 11.1515 3.11874 12.0212 2.12172L13.0889 3.18945ZM11.5616 18.6609C11.9929 19.4317 12.502 20.1529 13.0819 20.8176L12.0283 21.8712C11.1585 20.8742 10.4444 19.7923 9.87159 18.6539L11.5616 18.6609Z" fill="black"/>
</g>
<defs>
<clipPath id="clip0">
<rect width="24" height="24" fill="white"/>
</clipPath>
</defs>
</svg>
