<svg width="24" height="24" viewBox="0 0 24 24" fill="none" xmlns="http://www.w3.org/2000/svg">
<path fill-rule="evenodd" clip-rule="evenodd" d="M8 15.5556V14C8 13.7556 8.2 13.5556 8.44444 13.5556C9 13.5556 9.53333 13.4667 10.0311 13.3022C10.1867 13.2533 10.36 13.2889 10.4844 13.4133L11.4622 14.3911C12.72 13.7511 13.7467 12.72 14.3911 11.4622L13.4133 10.4844C13.3289 10.3956 13.2844 10.2844 13.2844 10.1689C13.2844 10.1244 13.2889 10.0756 13.3067 10.0311C13.4711 9.53333 13.56 8.99556 13.56 8.44444C13.56 8.2 13.76 8 14.0044 8H15.5556C15.8 8 16 8.2 16 8.44444C16 12.6178 12.6178 16 8.44444 16C8.2 16 8 15.8 8 15.5556ZM8.88889 14.4267C9.28444 14.4 9.67111 14.3333 10.04 14.2267L10.5733 14.76C10.04 14.9422 9.47556 15.0578 8.88889 15.0978V14.4267ZM14.2311 10.0444C14.3378 9.66667 14.4044 9.28 14.4311 8.88889H15.0933C15.0533 9.47556 14.9378 10.04 14.76 10.5778L14.2311 10.0444Z" fill="black"/>
<path fill-rule="evenodd" clip-rule="evenodd" d="M22 2H2V22H22V2ZM20 4H4V20H20V4Z" fill="black"/>
</svg>
