<svg width="24" height="24" viewBox="0 0 24 24" fill="none" xmlns="http://www.w3.org/2000/svg">
<path fill-rule="evenodd" clip-rule="evenodd" d="M21 4V7.5C21 8.05 20.55 8.5 20 8.5C18.75 8.5 17.55 8.7 16.43 9.07C16.08 9.18 15.69 9.1 15.41 8.82L13.21 6.62C10.38 8.06 8.07 10.38 6.62 13.21L8.82 15.41C9.01 15.61 9.11 15.86 9.11 16.12C9.11 16.22 9.1 16.33 9.06 16.43C8.69 17.55 8.49 18.76 8.49 20C8.49 20.55 8.04 21 7.49 21H4C3.45 21 3 20.55 3 20C3 10.61 10.61 3 20 3C20.55 3 21 3.45 21 4ZM19 6.54C18.11 6.6 17.24 6.75 16.41 6.99L15.21 5.79C16.41 5.38 17.68 5.12 19 5.03V6.54ZM6.98 16.4C6.74 17.25 6.59 18.12 6.53 19H5.04C5.13 17.68 5.39 16.41 5.79 15.2L6.98 16.4Z" fill="black"/>
</svg>
