<svg width="24" height="24" viewBox="0 0 24 24" fill="none" xmlns="http://www.w3.org/2000/svg">
<path fill-rule="evenodd" clip-rule="evenodd" d="M11.6857 17.6857L10.5858 16.5858C10.4129 16.4129 10.4129 16.1301 10.5858 15.9572C10.9786 15.5644 11.2929 15.1244 11.5286 14.6562C11.604 14.5116 11.7517 14.4142 11.9277 14.4142L13.3105 14.4142C13.7473 13.0723 13.7442 11.6172 13.3105 10.2721L11.9277 10.2721C11.8051 10.269 11.6952 10.2218 11.6134 10.1401C11.582 10.1087 11.5506 10.071 11.5317 10.027C11.296 9.55872 10.9786 9.1156 10.5889 8.7259C10.4161 8.55305 10.4161 8.27021 10.5889 8.09736L11.6857 7.00056C11.8586 6.82771 12.1414 6.82771 12.3143 7.00056C15.2653 9.95155 15.2653 14.7347 12.3143 17.6857C12.1414 17.8586 11.8586 17.8586 11.6857 17.6857ZM11.516 16.2589C11.7769 15.9604 12.0031 15.6398 12.1886 15.3036H12.9428C12.6945 15.8095 12.3771 16.2904 11.9906 16.7335L11.516 16.2589ZM12.1948 9.38272C12.0031 9.04017 11.7769 8.71962 11.5192 8.4242L11.9874 7.95594C12.374 8.39906 12.6914 8.87989 12.946 9.38587L12.1948 9.38272Z" fill="black"/>
<path fill-rule="evenodd" clip-rule="evenodd" d="M22 2H2V22H22V2ZM20 4H4V20H20V4Z" fill="black"/>
</svg>
