<svg width="24" height="24" viewBox="0 0 24 24" fill="none" xmlns="http://www.w3.org/2000/svg">
<path fill-rule="evenodd" clip-rule="evenodd" d="M3 20V16.5C3 15.95 3.45 15.5 4 15.5C5.25 15.5 6.45 15.3 7.57 14.93C7.92 14.82 8.31 14.9 8.59 15.18L10.79 17.38C13.62 15.94 15.93 13.62 17.38 10.79L15.18 8.59C14.99 8.39 14.89 8.14 14.89 7.88C14.89 7.78 14.9 7.67 14.94 7.57C15.31 6.45 15.51 5.24 15.51 4C15.51 3.45 15.96 3 16.51 3H20C20.55 3 21 3.45 21 4C21 13.39 13.39 21 4 21C3.45 21 3 20.55 3 20ZM5 17.46C5.89 17.4 6.76 17.25 7.59 17.01L8.79 18.21C7.59 18.62 6.32 18.88 5 18.97V17.46ZM17.02 7.6C17.26 6.75 17.41 5.88 17.47 5H18.96C18.87 6.32 18.61 7.59 18.21 8.8L17.02 7.6Z" fill="black"/>
</svg>
