<svg width="24" height="24" viewBox="0 0 24 24" fill="none" xmlns="http://www.w3.org/2000/svg">
<path fill-rule="evenodd" clip-rule="evenodd" d="M8.44444 8H10C10.2444 8 10.4444 8.2 10.4444 8.44444C10.4444 9 10.5333 9.53333 10.6978 10.0311C10.7467 10.1867 10.7111 10.36 10.5867 10.4844L9.60889 11.4622C10.2489 12.72 11.28 13.7467 12.5378 14.3911L13.5156 13.4133C13.6044 13.3289 13.7156 13.2844 13.8311 13.2844C13.8756 13.2844 13.9244 13.2889 13.9689 13.3067C14.4667 13.4711 15.0044 13.56 15.5556 13.56C15.8 13.56 16 13.76 16 14.0044V15.5556C16 15.8 15.8 16 15.5556 16C11.3822 16 8 12.6178 8 8.44444C8 8.2 8.2 8 8.44444 8ZM9.57333 8.88889C9.6 9.28445 9.66667 9.67111 9.77333 10.04L9.24 10.5733C9.05778 10.04 8.94222 9.47556 8.90222 8.88889H9.57333ZM13.9556 14.2311C14.3333 14.3378 14.72 14.4044 15.1111 14.4311V15.0933C14.5244 15.0533 13.96 14.9378 13.4222 14.76L13.9556 14.2311Z" fill="black"/>
<path fill-rule="evenodd" clip-rule="evenodd" d="M12 22C17.5228 22 22 17.5228 22 12C22 6.47715 17.5228 2 12 2C6.47715 2 2 6.47715 2 12C2 17.5228 6.47715 22 12 22ZM12 20C16.4183 20 20 16.4183 20 12C20 7.58172 16.4183 4 12 4C7.58172 4 4 7.58172 4 12C4 16.4183 7.58172 20 12 20Z" fill="black"/>
</svg>
