<svg width="24" height="24" viewBox="0 0 24 24" fill="none" xmlns="http://www.w3.org/2000/svg">
<path d="M13.1 15.6C13.1 16.0971 12.6971 16.5 12.2 16.5C11.7029 16.5 11.3 16.0971 11.3 15.6C11.3 15.1029 11.7029 14.7 12.2 14.7C12.6971 14.7 13.1 15.1029 13.1 15.6Z" fill="black"/>
<path fill-rule="evenodd" clip-rule="evenodd" d="M7.7 7.5V10.2H6.8C5.83848 10.2 5 10.8987 5 11.85V19.35C5 20.3013 5.83848 21 6.8 21H17.6C18.5615 21 19.4 20.3013 19.4 19.35V11.85C19.4 10.8987 18.5615 10.2 17.6 10.2H16.7V7.5C16.7 5.01472 14.6853 3 12.2 3C9.71472 3 7.7 5.01472 7.7 7.5ZM14.9 7.5V10.2H9.5V7.5C9.5 6.00883 10.7088 4.8 12.2 4.8C13.6912 4.8 14.9 6.00883 14.9 7.5ZM6.8 19.2V12H17.6V19.2H6.8Z" fill="black"/>
</svg>
