<svg width="24" height="24" viewBox="0 0 24 24" fill="none" xmlns="http://www.w3.org/2000/svg">
<path d="M12.0909 14.2727C12.0909 14.5238 11.8874 14.7273 11.6364 14.7273C11.3853 14.7273 11.1818 14.5238 11.1818 14.2727C11.1818 14.0217 11.3853 13.8182 11.6364 13.8182C11.8874 13.8182 12.0909 14.0217 12.0909 14.2727Z" fill="black"/>
<path fill-rule="evenodd" clip-rule="evenodd" d="M9.36364 11.5455V9.27273C9.36364 8.01753 10.3812 7 11.6364 7C12.8916 7 13.9091 8.01753 13.9091 9.27273V10.1818H13V9.27273C13 8.51961 12.3895 7.90909 11.6364 7.90909C10.8832 7.90909 10.2727 8.51961 10.2727 9.27273V11.5455H14.3636C14.8657 11.5455 15.2727 11.9525 15.2727 12.4545V16.0909C15.2727 16.593 14.8657 17 14.3636 17H8.90909C8.40701 17 8 16.593 8 16.0909V12.4545C8 11.9525 8.40701 11.5455 8.90909 11.5455H9.36364ZM8.90909 16.0909V12.4545H14.3636V16.0909H8.90909Z" fill="black"/>
<path fill-rule="evenodd" clip-rule="evenodd" d="M12 22C17.5228 22 22 17.5228 22 12C22 6.47715 17.5228 2 12 2C6.47715 2 2 6.47715 2 12C2 17.5228 6.47715 22 12 22ZM12 20C16.4183 20 20 16.4183 20 12C20 7.58172 16.4183 4 12 4C7.58172 4 4 7.58172 4 12C4 16.4183 7.58172 20 12 20Z" fill="black"/>
</svg>
