<svg width="24" height="24" viewBox="0 0 24 24" fill="none" xmlns="http://www.w3.org/2000/svg">
<g clip-path="url(#clip0)">
<path fill-rule="evenodd" clip-rule="evenodd" d="M23.2929 12.7071L20.818 15.182C20.4291 15.5709 19.7927 15.5709 19.4038 15.182C18.5199 14.2981 17.53 13.591 16.4764 13.0607C16.1511 12.891 15.9319 12.5586 15.9319 12.1626V9.05137C12.9126 8.06849 9.63867 8.07556 6.61226 9.05137V12.1626C6.60519 12.4384 6.49912 12.6859 6.31527 12.8697C6.24456 12.9405 6.15971 13.0112 6.06071 13.0536C5.00713 13.5839 4.0101 14.2981 3.13329 15.1749C2.74438 15.5638 2.10799 15.5638 1.71908 15.1749L-0.748724 12.7071C-1.13763 12.3182 -1.13763 11.6818 -0.748724 11.2929C5.89101 4.65316 16.6532 4.65316 23.2929 11.2929C23.6818 11.6818 23.6818 12.3182 23.2929 12.7071ZM20.0826 13.0889C19.4109 12.502 18.6896 11.9929 17.933 11.5757V9.87868C19.0715 10.4373 20.1534 11.1515 21.1504 12.0212L20.0826 13.0889ZM4.61115 11.5616C3.8404 11.9929 3.11915 12.502 2.45447 13.0819L1.40088 12.0283C2.3979 11.1585 3.47977 10.4444 4.61822 9.87161L4.61115 11.5616Z" fill="black"/>
</g>
<defs>
<clipPath id="clip0">
<rect width="24" height="24" fill="white"/>
</clipPath>
</defs>
</svg>
