<svg width="24" height="24" viewBox="0 0 24 24" fill="none" xmlns="http://www.w3.org/2000/svg">
<path fill-rule="evenodd" clip-rule="evenodd" d="M10 8H8.44444C8.2 8 8 8.2 8 8.44444C8 12.6178 11.3822 16 15.5556 16C15.8 16 16 15.8 16 15.5556V14.0044C16 13.76 15.8 13.56 15.5556 13.56C15.0044 13.56 14.4667 13.4711 13.9689 13.3067C13.9244 13.2889 13.8756 13.2844 13.8311 13.2844C13.7156 13.2844 13.6044 13.3289 13.5156 13.4133L12.5378 14.3911C11.28 13.7467 10.2489 12.72 9.60889 11.4622L10.5867 10.4844C10.7111 10.36 10.7467 10.1867 10.6978 10.0311C10.5333 9.53333 10.4444 9 10.4444 8.44444C10.4444 8.2 10.2444 8 10 8ZM9.77333 10.04C9.66667 9.67111 9.6 9.28444 9.57333 8.88889H8.90222C8.94222 9.47556 9.05778 10.04 9.24 10.5733L9.77333 10.04ZM15.1111 14.4311C14.72 14.4044 14.3333 14.3378 13.9556 14.2311L13.4222 14.76C13.96 14.9378 14.5244 15.0533 15.1111 15.0933V14.4311Z" fill="black"/>
<path d="M13.2216 9.52112V9.10456H15.3044V11.1874H14.8879V9.81568L12.9376 11.766L12.643 11.4714L14.5933 9.52112H13.2216Z" fill="black"/>
<path fill-rule="evenodd" clip-rule="evenodd" d="M22 2H2V22H22V2ZM20 4H4V20H20V4Z" fill="black"/>
</svg>
