<svg width="24" height="24" viewBox="0 0 24 24" fill="none" xmlns="http://www.w3.org/2000/svg">
<g clip-path="url(#clip0)">
<path fill-rule="evenodd" clip-rule="evenodd" d="M-0.292883 11.2929L2.18199 8.81802C2.5709 8.42911 3.2073 8.42911 3.5962 8.81802C4.48009 9.7019 5.47004 10.409 6.52363 10.9393C6.8489 11.109 7.0681 11.4414 7.0681 11.8374L7.0681 14.9486C10.0874 15.9315 13.3613 15.9244 16.3878 14.9486V11.8374C16.3948 11.5616 16.5009 11.3141 16.6848 11.1303C16.7555 11.0595 16.8403 10.9888 16.9393 10.9464C17.9929 10.4161 18.9899 9.7019 19.8667 8.82509C20.2556 8.43618 20.892 8.43618 21.2809 8.82509L23.7487 11.2929C24.1377 11.6818 24.1377 12.3182 23.7487 12.7071C17.109 19.3468 6.34685 19.3468 -0.292883 12.7071C-0.681791 12.3182 -0.681791 11.6818 -0.292883 11.2929ZM2.91738 10.9111C3.58913 11.498 4.31038 12.0071 5.06699 12.4243V14.1213C3.92854 13.5627 2.84667 12.8485 1.84965 11.9788L2.91738 10.9111ZM18.3889 12.4384C19.1596 12.0071 19.8809 11.498 20.5456 10.9181L21.5991 11.9717C20.6021 12.8415 19.5202 13.5556 18.3818 14.1284L18.3889 12.4384Z" fill="black"/>
</g>
<defs>
<clipPath id="clip0">
<rect width="24" height="24" fill="white"/>
</clipPath>
</defs>
</svg>
