<svg width="24" height="24" viewBox="0 0 24 24" fill="none" xmlns="http://www.w3.org/2000/svg">
<path fill-rule="evenodd" clip-rule="evenodd" d="M22 12C22 17.5228 17.5228 22 12 22C6.47715 22 2 17.5228 2 12C2 6.47715 6.47715 2 12 2C17.5228 2 22 6.47715 22 12ZM14 16H15.5556C15.8 16 16 15.8 16 15.5556C16 11.3822 12.6178 8 8.44444 8C8.2 8 8 8.2 8 8.44444V9.99556C8 10.24 8.2 10.44 8.44444 10.44C8.99556 10.44 9.53333 10.5289 10.0311 10.6933C10.0756 10.7111 10.1244 10.7156 10.1689 10.7156C10.2844 10.7156 10.3956 10.6711 10.4844 10.5867L11.4622 9.60889C12.72 10.2533 13.7511 11.28 14.3911 12.5378L13.4133 13.5156C13.2889 13.64 13.2533 13.8133 13.3022 13.9689C13.4667 14.4667 13.5556 15 13.5556 15.5556C13.5556 15.8 13.7556 16 14 16ZM14.2267 13.96C14.3333 14.3289 14.4 14.7156 14.4267 15.1111H15.0978C15.0578 14.5244 14.9422 13.96 14.76 13.4267L14.2267 13.96ZM8.88888 9.56889C9.27999 9.59555 9.66666 9.66222 10.0444 9.76889L10.5778 9.24C10.04 9.06222 9.47555 8.94666 8.88888 8.90666V9.56889Z" fill="black"/>
</svg>
