<svg width="24" height="24" viewBox="0 0 24 24" fill="none" xmlns="http://www.w3.org/2000/svg">
<path d="M12.3636 16.0909C12.3636 16.5428 11.9973 16.9091 11.5455 16.9091C11.0936 16.9091 10.7273 16.5428 10.7273 16.0909C10.7273 15.639 11.0936 15.2727 11.5455 15.2727C11.9973 15.2727 12.3636 15.639 12.3636 16.0909Z" fill="black"/>
<path fill-rule="evenodd" clip-rule="evenodd" d="M7.45455 11.1818V7.09091C7.45455 4.83156 9.28611 3 11.5455 3C13.8048 3 15.6364 4.83156 15.6364 7.09091V8.72727H14V7.09091C14 5.7353 12.9011 4.63636 11.5455 4.63636C10.1898 4.63636 9.09091 5.7353 9.09091 7.09091V11.1818H16.4545C17.3583 11.1818 18.0909 11.9144 18.0909 12.8182V19.3636C18.0909 20.2674 17.3583 21 16.4545 21H6.63636C5.73262 21 5 20.2674 5 19.3636V12.8182C5 11.9144 5.73262 11.1818 6.63636 11.1818H7.45455ZM6.63636 19.3636V12.8182H16.4545V19.3636H6.63636Z" fill="black"/>
</svg>
