<svg width="24" height="24" viewBox="0 0 24 24" fill="none" xmlns="http://www.w3.org/2000/svg">
<path fill-rule="evenodd" clip-rule="evenodd" d="M2 2H22V22H2V2ZM8.44444 8H10C10.2444 8 10.4444 8.2 10.4444 8.44444C10.4444 9 10.5333 9.53333 10.6978 10.0311C10.7467 10.1867 10.7111 10.36 10.5867 10.4844L9.60889 11.4622C10.2489 12.72 11.28 13.7467 12.5378 14.3911L13.5156 13.4133C13.6044 13.3289 13.7156 13.2844 13.8311 13.2844C13.8756 13.2844 13.9244 13.2889 13.9689 13.3067C14.4667 13.4711 15.0044 13.56 15.5556 13.56C15.8 13.56 16 13.76 16 14.0044V15.5556C16 15.8 15.8 16 15.5556 16C11.3822 16 8 12.6178 8 8.44444C8 8.2 8.2 8 8.44444 8ZM9.57335 8.88889C9.60001 9.28444 9.66668 9.67111 9.77335 10.04L9.24001 10.5733C9.05779 10.04 8.94223 9.47556 8.90224 8.88889H9.57335ZM13.9556 14.2311C14.3333 14.3378 14.72 14.4044 15.1111 14.4311V15.0933C14.5245 15.0533 13.96 14.9378 13.4222 14.76L13.9556 14.2311ZM14.3524 8.88889L14.0578 9.18344L15.0278 10.1534H12.2696V10.5699H15.0278L14.0578 11.5399L14.3524 11.8344L15.8251 10.3616L14.3524 8.88889Z" fill="black"/>
</svg>
