<svg width="24" height="24" viewBox="0 0 24 24" fill="none" xmlns="http://www.w3.org/2000/svg">
<path fill-rule="evenodd" clip-rule="evenodd" d="M7.5 3H4C3.45 3 3 3.45 3 4C3 13.39 10.61 21 20 21C20.55 21 21 20.55 21 20V16.51C21 15.96 20.55 15.51 20 15.51C18.76 15.51 17.55 15.31 16.43 14.94C16.33 14.9 16.22 14.89 16.12 14.89C15.86 14.89 15.61 14.99 15.41 15.18L13.21 17.38C10.38 15.93 8.06 13.62 6.62 10.79L8.82 8.59C9.1 8.31 9.18 7.92 9.07 7.57C8.7 6.45 8.5 5.25 8.5 4C8.5 3.45 8.05 3 7.5 3ZM6.99 7.59C6.75 6.76 6.6 5.89 6.54 5H5.03C5.12 6.32 5.38 7.59 5.79 8.79L6.99 7.59ZM19 17.47C18.12 17.41 17.25 17.26 16.4 17.02L15.2 18.21C16.41 18.61 17.68 18.87 19 18.96V17.47Z" fill="black"/>
<path d="M16.75 11H15.25V8.75H13V7.25H15.25V5H16.75V7.25H19V8.75H16.75V11Z" fill="black"/>
</svg>
