<svg width="24" height="24" viewBox="0 0 24 24" fill="none" xmlns="http://www.w3.org/2000/svg">
<path fill-rule="evenodd" clip-rule="evenodd" d="M2 2H22V22H2V2ZM9.5 11V9.5C9.5 8.11929 10.6193 7 12 7C13.3807 7 14.5 8.11929 14.5 9.5V11H15C15.5342 11 16 11.3882 16 11.9167V16.0833C16 16.6118 15.5342 17 15 17H9C8.46582 17 8 16.6118 8 16.0833V11.9167C8 11.3882 8.46582 11 9 11H9.5ZM13.5 11V9.5C13.5 8.67157 12.8284 8 12 8C11.1716 8 10.5 8.67157 10.5 9.5V11H13.5ZM9 12V16H15V12H9ZM12 14.5C12.2761 14.5 12.5 14.2761 12.5 14C12.5 13.7239 12.2761 13.5 12 13.5C11.7239 13.5 11.5 13.7239 11.5 14C11.5 14.2761 11.7239 14.5 12 14.5Z" fill="black"/>
</svg>
