<svg width="24" height="24" viewBox="0 0 24 24" fill="none" xmlns="http://www.w3.org/2000/svg">
<path fill-rule="evenodd" clip-rule="evenodd" d="M10 8H8.44444C8.2 8 8 8.2 8 8.44444C8 12.6178 11.3822 16 15.5556 16C15.8 16 16 15.8 16 15.5556V14.0044C16 13.76 15.8 13.56 15.5556 13.56C15.0044 13.56 14.4667 13.4711 13.9689 13.3067C13.9244 13.2889 13.8756 13.2844 13.8311 13.2844C13.7156 13.2844 13.6044 13.3289 13.5156 13.4133L12.5378 14.3911C11.28 13.7467 10.2489 12.72 9.60889 11.4622L10.5867 10.4844C10.7111 10.36 10.7467 10.1867 10.6978 10.0311C10.5333 9.53333 10.4444 9 10.4444 8.44444C10.4444 8.2 10.2444 8 10 8ZM9.77335 10.04C9.66668 9.67111 9.60001 9.28444 9.57335 8.88889H8.90224C8.94224 9.47556 9.05779 10.04 9.24001 10.5733L9.77335 10.04ZM15.1111 14.4311C14.72 14.4044 14.3333 14.3378 13.9556 14.2311L13.4222 14.76C13.96 14.9378 14.5244 15.0533 15.1111 15.0933V14.4311Z" fill="black"/>
<path d="M15.1111 10.2222H12.4444V11.1111H15.1111V10.2222Z" fill="black"/>
<path fill-rule="evenodd" clip-rule="evenodd" d="M12 22C17.5228 22 22 17.5228 22 12C22 6.47715 17.5228 2 12 2C6.47715 2 2 6.47715 2 12C2 17.5228 6.47715 22 12 22ZM12 20C16.4183 20 20 16.4183 20 12C20 7.58172 16.4183 4 12 4C7.58172 4 4 7.58172 4 12C4 16.4183 7.58172 20 12 20Z" fill="black"/>
</svg>
