<svg width="24" height="24" viewBox="0 0 24 24" fill="none" xmlns="http://www.w3.org/2000/svg">
<path fill-rule="evenodd" clip-rule="evenodd" d="M15.5556 16H14C13.7556 16 13.5556 15.8 13.5556 15.5556C13.5556 15 13.4667 14.4667 13.3022 13.9689C13.2533 13.8133 13.2889 13.64 13.4133 13.5156L14.3911 12.5378C13.7511 11.28 12.72 10.2533 11.4622 9.60889L10.4844 10.5867C10.3956 10.6711 10.2844 10.7156 10.1689 10.7156C10.1244 10.7156 10.0756 10.7111 10.0311 10.6933C9.53333 10.5289 8.99556 10.44 8.44444 10.44C8.2 10.44 8 10.24 8 9.99556V8.44444C8 8.2 8.2 8 8.44444 8C12.6178 8 16 11.3822 16 15.5556C16 15.8 15.8 16 15.5556 16ZM14.4267 15.1111C14.4 14.7156 14.3333 14.3289 14.2267 13.96L14.76 13.4267C14.9422 13.96 15.0578 14.5244 15.0978 15.1111H14.4267ZM10.0444 9.76889C9.66666 9.66222 9.27999 9.59555 8.88888 9.56889V8.90666C9.47555 8.94666 10.04 9.06222 10.5778 9.24L10.0444 9.76889Z" fill="black"/>
<path fill-rule="evenodd" clip-rule="evenodd" d="M12 22C17.5228 22 22 17.5228 22 12C22 6.47715 17.5228 2 12 2C6.47715 2 2 6.47715 2 12C2 17.5228 6.47715 22 12 22ZM12 20C16.4183 20 20 16.4183 20 12C20 7.58172 16.4183 4 12 4C7.58172 4 4 7.58172 4 12C4 16.4183 7.58172 20 12 20Z" fill="black"/>
</svg>
