<svg width="24" height="24" viewBox="0 0 24 24" fill="none" xmlns="http://www.w3.org/2000/svg">
<path fill-rule="evenodd" clip-rule="evenodd" d="M22 12C22 17.5228 17.5228 22 12 22C6.47715 22 2 17.5228 2 12C2 6.47715 6.47715 2 12 2C17.5228 2 22 6.47715 22 12ZM16 10V8.44444C16 8.2 15.8 8 15.5556 8C11.3822 8 8 11.3822 8 15.5556C8 15.8 8.2 16 8.44444 16H9.99556C10.24 16 10.44 15.8 10.44 15.5556C10.44 15.0044 10.5289 14.4667 10.6933 13.9689C10.7111 13.9244 10.7156 13.8756 10.7156 13.8311C10.7156 13.7156 10.6711 13.6044 10.5867 13.5156L9.60889 12.5378C10.2533 11.28 11.28 10.2489 12.5378 9.60889L13.5156 10.5867C13.64 10.7111 13.8133 10.7467 13.9689 10.6978C14.4667 10.5333 15 10.4444 15.5556 10.4444C15.8 10.4444 16 10.2444 16 10ZM13.96 9.77333C14.3289 9.66667 14.7156 9.6 15.1111 9.57333V8.90222C14.5244 8.94222 13.96 9.05778 13.4267 9.24L13.96 9.77333ZM9.56888 15.1111C9.59555 14.72 9.66221 14.3333 9.76888 13.9556L9.23999 13.4222C9.06221 13.96 8.94666 14.5244 8.90666 15.1111H9.56888Z" fill="black"/>
</svg>
