<svg width="24" height="24" viewBox="0 0 24 24" fill="none" xmlns="http://www.w3.org/2000/svg">
<path fill-rule="evenodd" clip-rule="evenodd" d="M2 2H22V22H2V2ZM16.5858 13.4142L17.6857 12.3143C17.8586 12.1414 17.8586 11.8586 17.6857 11.6857C14.7347 8.73474 9.95155 8.73474 7.00056 11.6857C6.82771 11.8586 6.82771 12.1414 7.00056 12.3143L8.09736 13.4111C8.27021 13.5839 8.55305 13.5839 8.7259 13.4111C9.1156 13.0214 9.55872 12.704 10.027 12.4683C10.071 12.4494 10.1087 12.418 10.1401 12.3866C10.2218 12.3048 10.269 12.1948 10.2721 12.0723L10.2721 10.6895C11.6172 10.2558 13.0723 10.2527 14.4142 10.6895V12.0723C14.4142 12.2483 14.5116 12.396 14.6562 12.4714C15.1244 12.7071 15.5644 13.0214 15.9572 13.4142C16.1301 13.5871 16.4129 13.5871 16.5858 13.4142ZM15.3036 11.8114C15.6398 11.9969 15.9604 12.2231 16.2589 12.484L16.7335 12.0094C16.2904 11.6229 15.8095 11.3055 15.3036 11.0572V11.8114ZM8.4242 12.4808C8.71961 12.2231 9.04017 11.9969 9.38272 11.8052L9.38587 11.054C8.87989 11.3086 8.39906 11.626 7.95594 12.0126L8.4242 12.4808Z" fill="black"/>
</svg>
