<svg width="24" height="24" viewBox="0 0 24 24" fill="none" xmlns="http://www.w3.org/2000/svg">
<path fill-rule="evenodd" clip-rule="evenodd" d="M20 21H16.5C15.95 21 15.5 20.55 15.5 20C15.5 18.75 15.3 17.55 14.93 16.43C14.82 16.08 14.9 15.69 15.18 15.41L17.38 13.21C15.94 10.38 13.62 8.07 10.79 6.62L8.59 8.82C8.39 9.01 8.14 9.11 7.88 9.11C7.78 9.11 7.67 9.1 7.57 9.06C6.45 8.69 5.24 8.49 4 8.49C3.45 8.49 3 8.04 3 7.49V4C3 3.45 3.45 3 4 3C13.39 3 21 10.61 21 20C21 20.55 20.55 21 20 21ZM17.46 19C17.4 18.11 17.25 17.24 17.01 16.41L18.21 15.21C18.62 16.41 18.88 17.68 18.97 19H17.46ZM7.6 6.98C6.75 6.74 5.88 6.59 5 6.53V5.04C6.32 5.13 7.59 5.39 8.8 5.79L7.6 6.98Z" fill="black"/>
</svg>
