<svg width="24" height="24" viewBox="0 0 24 24" fill="none" xmlns="http://www.w3.org/2000/svg">
<path fill-rule="evenodd" clip-rule="evenodd" d="M12.3143 6.31427L13.4142 7.41421C13.587 7.58706 13.587 7.8699 13.4142 8.04275C13.0214 8.43559 12.7071 8.87557 12.4714 9.34383C12.396 9.48839 12.2483 9.58582 12.0723 9.58582L10.6895 9.58581C10.2526 10.9277 10.2558 12.3828 10.6895 13.7279L12.0723 13.7279C12.1948 13.731 12.3048 13.7782 12.3865 13.8599C12.418 13.8913 12.4494 13.929 12.4682 13.973C12.704 14.4413 13.0214 14.8844 13.4111 15.2741C13.5839 15.4469 13.5839 15.7298 13.4111 15.9026L12.3143 16.9994C12.1414 17.1723 11.8586 17.1723 11.6857 16.9994C8.73472 14.0484 8.73472 9.26526 11.6857 6.31427C11.8586 6.14142 12.1414 6.14142 12.3143 6.31427ZM12.484 7.74105C12.2231 8.03961 11.9969 8.36016 11.8114 8.69643L11.0572 8.69643C11.3055 8.19046 11.6229 7.70962 12.0094 7.2665L12.484 7.74105ZM11.8051 14.6173C11.9968 14.9598 12.2231 15.2804 12.4808 15.5758L12.0126 16.0441C11.626 15.6009 11.3086 15.1201 11.054 14.6141L11.8051 14.6173Z" fill="black"/>
<path fill-rule="evenodd" clip-rule="evenodd" d="M12 22C17.5228 22 22 17.5228 22 12C22 6.47715 17.5228 2 12 2C6.47715 2 2 6.47715 2 12C2 17.5228 6.47715 22 12 22ZM12 20C16.4183 20 20 16.4183 20 12C20 7.58172 16.4183 4 12 4C7.58172 4 4 7.58172 4 12C4 16.4183 7.58172 20 12 20Z" fill="black"/>
</svg>
