<svg width="24" height="24" viewBox="0 0 24 24" fill="none" xmlns="http://www.w3.org/2000/svg">
<g clip-path="url(#clip0)">
<path d="M12.7071 -0.0208108L15.182 2.45406C15.5709 2.84297 15.5709 3.47937 15.182 3.86828C14.2981 4.75216 13.591 5.74211 13.0606 6.7957C12.8909 7.12097 12.5586 7.34017 12.1626 7.34017L9.05135 7.34017C8.06847 10.3595 8.07554 13.6334 9.05135 16.6598H12.1626C12.4384 16.6669 12.6859 16.773 12.8697 16.9568C12.9404 17.0275 13.0111 17.1124 13.0536 17.2114C13.5839 18.265 14.2981 19.262 15.1749 20.1388C15.5638 20.5277 15.5638 21.1641 15.1749 21.553L12.7071 24.0208C12.3182 24.4097 11.6818 24.4097 11.2929 24.0208C4.65315 17.3811 4.65315 6.61892 11.2929 -0.0208108C11.6818 -0.40972 12.3182 -0.40972 12.7071 -0.0208108Z" fill="black"/>
</g>
<defs>
<clipPath id="clip0">
<rect width="24" height="24" fill="white"/>
</clipPath>
</defs>
</svg>
