<svg width="24" height="24" viewBox="0 0 24 24" fill="none" xmlns="http://www.w3.org/2000/svg">
<path fill-rule="evenodd" clip-rule="evenodd" d="M6.31427 11.6857L7.41421 10.5858C7.58706 10.4129 7.8699 10.4129 8.04275 10.5858C8.43559 10.9786 8.87557 11.2929 9.34383 11.5286C9.48839 11.604 9.58582 11.7517 9.58582 11.9277L9.58581 13.3105C10.9277 13.7473 12.3828 13.7442 13.7279 13.3105L13.7279 11.9277C13.731 11.8051 13.7782 11.6952 13.8599 11.6134C13.8913 11.582 13.929 11.5506 13.973 11.5317C14.4413 11.296 14.8844 10.9786 15.2741 10.5889C15.4469 10.4161 15.7298 10.4161 15.9026 10.5889L16.9994 11.6857C17.1723 11.8586 17.1723 12.1414 16.9994 12.3143C14.0484 15.2653 9.26526 15.2653 6.31427 12.3143C6.14142 12.1414 6.14142 11.8586 6.31427 11.6857ZM7.74105 11.516C8.03961 11.7769 8.36016 12.0031 8.69643 12.1886V12.9428C8.19046 12.6945 7.70962 12.3771 7.2665 11.9906L7.74105 11.516ZM14.6173 12.1948C14.9598 12.0031 15.2804 11.7769 15.5758 11.5192L16.0441 11.9874C15.6009 12.374 15.1201 12.6914 14.6141 12.946L14.6173 12.1948Z" fill="black"/>
<path fill-rule="evenodd" clip-rule="evenodd" d="M12 22C17.5228 22 22 17.5228 22 12C22 6.47715 17.5228 2 12 2C6.47715 2 2 6.47715 2 12C2 17.5228 6.47715 22 12 22ZM12 20C16.4183 20 20 16.4183 20 12C20 7.58172 16.4183 4 12 4C7.58172 4 4 7.58172 4 12C4 16.4183 7.58172 20 12 20Z" fill="black"/>
</svg>
