<svg width="24" height="24" viewBox="0 0 24 24" fill="none" xmlns="http://www.w3.org/2000/svg">
<path fill-rule="evenodd" clip-rule="evenodd" d="M2 2H22V22H2V2ZM10.5858 16.5858L11.6857 17.6857C11.8586 17.8586 12.1414 17.8586 12.3143 17.6857C15.2653 14.7347 15.2653 9.95155 12.3143 7.00056C12.1414 6.82771 11.8586 6.82771 11.6857 7.00056L10.5889 8.09736C10.4161 8.27021 10.4161 8.55305 10.5889 8.7259C10.9786 9.1156 11.296 9.55872 11.5317 10.027C11.5506 10.071 11.582 10.1087 11.6134 10.1401C11.6952 10.2218 11.8052 10.269 11.9277 10.2721L13.3105 10.2721C13.7442 11.6172 13.7473 13.0723 13.3105 14.4142H11.9277C11.7517 14.4142 11.604 14.5116 11.5286 14.6562C11.2929 15.1244 10.9786 15.5644 10.5858 15.9572C10.4129 16.1301 10.4129 16.4129 10.5858 16.5858ZM12.1886 15.3036C12.0031 15.6398 11.7769 15.9604 11.516 16.2589L11.9906 16.7335C12.3771 16.2904 12.6945 15.8095 12.9428 15.3036H12.1886ZM11.5192 8.4242C11.7769 8.71961 12.0031 9.04017 12.1948 9.38272L12.946 9.38587C12.6914 8.87989 12.374 8.39906 11.9874 7.95594L11.5192 8.4242Z" fill="black"/>
</svg>
