<svg width="24" height="24" viewBox="0 0 24 24" fill="none" xmlns="http://www.w3.org/2000/svg">
<path fill-rule="evenodd" clip-rule="evenodd" d="M2 2H22V22H2V2ZM13.4142 7.41421L12.3143 6.31427C12.1414 6.14142 11.8586 6.14142 11.6857 6.31427C8.73474 9.26526 8.73474 14.0484 11.6857 16.9994C11.8586 17.1723 12.1414 17.1723 12.3143 16.9994L13.4111 15.9026C13.5839 15.7298 13.5839 15.4469 13.4111 15.2741C13.0214 14.8844 12.704 14.4413 12.4683 13.973C12.4494 13.929 12.418 13.8913 12.3866 13.8599C12.3048 13.7782 12.1948 13.731 12.0723 13.7279L10.6895 13.7279C10.2558 12.3828 10.2527 10.9277 10.6895 9.58582L12.0723 9.58582C12.2483 9.58582 12.396 9.48839 12.4714 9.34383C12.7071 8.87557 13.0214 8.43559 13.4142 8.04275C13.5871 7.8699 13.5871 7.58706 13.4142 7.41421ZM11.8115 8.69643C11.9969 8.36017 12.2231 8.03961 12.484 7.74105L12.0094 7.26651C11.6229 7.70963 11.3055 8.19046 11.0572 8.69643H11.8115ZM12.4808 15.5758C12.2231 15.2804 11.9969 14.9598 11.8052 14.6173L11.0541 14.6141C11.3086 15.1201 11.626 15.6009 12.0126 16.0441L12.4808 15.5758Z" fill="black"/>
</svg>
