<svg width="24" height="24" viewBox="0 0 24 24" fill="none" xmlns="http://www.w3.org/2000/svg">
<g clip-path="url(#clip0)">
<path d="M11.2929 23.2929L8.81805 20.818C8.42914 20.4291 8.42914 19.7927 8.81805 19.4038C9.70193 18.5199 10.409 17.53 10.9394 16.4764C11.1091 16.1511 11.4414 15.9319 11.8374 15.9319H14.9487C15.9315 12.9126 15.9245 9.63866 14.9487 6.61224H11.8374C11.5616 6.60517 11.3141 6.4991 11.1303 6.31526C11.0596 6.24455 10.9889 6.15969 10.9464 6.0607C10.4161 5.00711 9.70193 4.01009 8.82512 3.13328C8.43621 2.74437 8.43621 2.10797 8.82512 1.71906L11.2929 -0.748739C11.6818 -1.13765 12.3182 -1.13765 12.7071 -0.748739C19.3469 5.89099 19.3469 16.6532 12.7071 23.2929C12.3182 23.6818 11.6818 23.6818 11.2929 23.2929Z" fill="black"/>
</g>
<defs>
<clipPath id="clip0">
<rect width="24" height="24" fill="white"/>
</clipPath>
</defs>
</svg>
