<svg width="24" height="24" viewBox="0 0 24 24" fill="none" xmlns="http://www.w3.org/2000/svg">
<path fill-rule="evenodd" clip-rule="evenodd" d="M17.6857 12.3143L16.5858 13.4142C16.4129 13.5871 16.1301 13.5871 15.9572 13.4142C15.5644 13.0214 15.1244 12.7071 14.6562 12.4714C14.5116 12.396 14.4142 12.2483 14.4142 12.0723L14.4142 10.6895C13.0722 10.2527 11.6172 10.2558 10.2721 10.6895L10.2721 12.0723C10.269 12.1948 10.2218 12.3048 10.1401 12.3866C10.1087 12.418 10.071 12.4494 10.027 12.4683C9.5587 12.704 9.11558 13.0214 8.72589 13.4111C8.55304 13.5839 8.2702 13.5839 8.09735 13.4111L7.00055 12.3143C6.8277 12.1414 6.8277 11.8586 7.00055 11.6857C9.95154 8.73474 14.7347 8.73474 17.6857 11.6857C17.8586 11.8586 17.8586 12.1414 17.6857 12.3143ZM16.2589 12.484C15.9604 12.2231 15.6398 11.9969 15.3035 11.8114V11.0572C15.8095 11.3055 16.2903 11.6229 16.7335 12.0094L16.2589 12.484ZM9.38271 11.8052C9.04015 11.9969 8.7196 12.2231 8.42419 12.4808L7.95592 12.0126C8.39904 11.626 8.87988 11.3086 9.38585 11.054L9.38271 11.8052Z" fill="black"/>
<path fill-rule="evenodd" clip-rule="evenodd" d="M12 22C17.5228 22 22 17.5228 22 12C22 6.47715 17.5228 2 12 2C6.47715 2 2 6.47715 2 12C2 17.5228 6.47715 22 12 22ZM12 20C16.4183 20 20 16.4183 20 12C20 7.58172 16.4183 4 12 4C7.58172 4 4 7.58172 4 12C4 16.4183 7.58172 20 12 20Z" fill="black"/>
</svg>
