<svg width="24" height="24" viewBox="0 0 24 24" fill="none" xmlns="http://www.w3.org/2000/svg">
<path fill-rule="evenodd" clip-rule="evenodd" d="M2 2H22V22H2V2ZM15 10.5H15.5C16.33 10.5 17 11.17 17 12V15H15V17H9V15H7V12C7 11.17 7.67 10.5 8.5 10.5H9V8H15V10.5ZM14 9H10V10.5H14V9ZM14 16H10V14H14V16ZM15 13V14H16V12C16 11.725 15.775 11.5 15.5 11.5H8.50001C8.22501 11.5 8.00001 11.725 8.00001 12V14H9.00001V13H15ZM15 11.75C14.7239 11.75 14.5 11.9739 14.5 12.25C14.5 12.5261 14.7239 12.75 15 12.75C15.2761 12.75 15.5 12.5261 15.5 12.25C15.5 11.9739 15.2761 11.75 15 11.75Z" fill="black"/>
</svg>
