<svg width="24" height="24" viewBox="0 0 24 24" fill="none" xmlns="http://www.w3.org/2000/svg">
<path fill-rule="evenodd" clip-rule="evenodd" d="M18.3 8.5H17.4V4H6.6V8.5H5.7C4.206 8.5 3 9.706 3 11.2V16.6H6.6V20.2H17.4V16.6H21V11.2C21 9.706 19.794 8.5 18.3 8.5ZM8.4 5.8H15.6V8.5H8.4V5.8ZM15.6 18.4V14.8H8.4V18.4H15.6ZM17.4 14.8V13H6.6V14.8H4.8V11.2C4.8 10.705 5.205 10.3 5.7 10.3H18.3C18.795 10.3 19.2 10.705 19.2 11.2V14.8H17.4ZM16.5 11.65C16.5 11.1529 16.9029 10.75 17.4 10.75C17.8971 10.75 18.3 11.1529 18.3 11.65C18.3 12.1471 17.8971 12.55 17.4 12.55C16.9029 12.55 16.5 12.1471 16.5 11.65Z" fill="black"/>
</svg>
