<svg width="24" height="24" viewBox="0 0 24 24" fill="none" xmlns="http://www.w3.org/2000/svg">
<path fill-rule="evenodd" clip-rule="evenodd" d="M15.5 10.5H15V8H9V10.5H8.5C7.67 10.5 7 11.17 7 12V15H9V17H15V15H17V12C17 11.17 16.33 10.5 15.5 10.5ZM10 9H14V10.5H10V9ZM14 16V14H10V16H14ZM15 14V13H9.00001V14H8.00001V12C8.00001 11.725 8.22501 11.5 8.50001 11.5H15.5C15.775 11.5 16 11.725 16 12V14H15ZM14.5 12.25C14.5 11.9739 14.7239 11.75 15 11.75C15.2761 11.75 15.5 11.9739 15.5 12.25C15.5 12.5261 15.2761 12.75 15 12.75C14.7239 12.75 14.5 12.5261 14.5 12.25Z" fill="black"/>
<path fill-rule="evenodd" clip-rule="evenodd" d="M22 2H2V22H22V2ZM20 4H4V20H20V4Z" fill="black"/>
</svg>
