<svg width="24" height="24" viewBox="0 0 24 24" fill="none" xmlns="http://www.w3.org/2000/svg">
<path fill-rule="evenodd" clip-rule="evenodd" d="M12.7704 11.8217C11.9421 12.4566 11 13.1787 11 15H13C13 13.9046 13.711 13.2833 14.4408 12.6455C15.21 11.9733 16 11.2829 16 10C16 7.79 14.21 6 12 6C9.79 6 8 7.79 8 10H10C10 8.9 10.9 8 12 8C13.1 8 14 8.9 14 10C14 10.8792 13.4202 11.3236 12.7704 11.8217ZM13 18.5V16.5H11V18.5H13Z" fill="black"/>
<path fill-rule="evenodd" clip-rule="evenodd" d="M22 2H2V22H22V2ZM20 4H4V20H20V4Z" fill="black"/>
</svg>
