<svg width="24" height="24" viewBox="0 0 24 24" fill="none" xmlns="http://www.w3.org/2000/svg">
<path fill-rule="evenodd" clip-rule="evenodd" d="M13.3562 13.0314H13.7176L16 15.3185L15.3185 16L13.0314 13.7176V13.3562L12.9079 13.2281C12.3865 13.6764 11.7095 13.9463 10.9731 13.9463C9.33105 13.9463 8 12.6152 8 10.9731C8 9.33105 9.33105 8 10.9731 8C12.6152 8 13.9463 9.33105 13.9463 10.9731C13.9463 11.7095 13.6764 12.3865 13.2281 12.9079L13.3562 13.0314ZM8.91482 10.9731C8.91482 12.1121 9.8342 13.0315 10.9731 13.0315C12.1121 13.0315 13.0315 12.1121 13.0315 10.9731C13.0315 9.8342 12.1121 8.91482 10.9731 8.91482C9.8342 8.91482 8.91482 9.8342 8.91482 10.9731Z" fill="black"/>
<path fill-rule="evenodd" clip-rule="evenodd" d="M22 2H2V22H22V2ZM20 4H4V20H20V4Z" fill="black"/>
</svg>
