<svg width="24" height="24" viewBox="0 0 24 24" fill="none" xmlns="http://www.w3.org/2000/svg">
<path fill-rule="evenodd" clip-rule="evenodd" d="M22 12C22 17.5228 17.5228 22 12 22C6.47715 22 2 17.5228 2 12C2 6.47715 6.47715 2 12 2C17.5228 2 22 6.47715 22 12ZM10.9686 13.7176V13.3562L11.0921 13.2281C11.6135 13.6764 12.2905 13.9463 13.0269 13.9463C14.669 13.9463 16 12.6152 16 10.9731C16 9.33105 14.669 8 13.0269 8C11.3848 8 10.0537 9.33105 10.0537 10.9731C10.0537 11.7095 10.3236 12.3865 10.7719 12.9079L10.6438 13.0314H10.2824L8 15.3185L8.68153 16L10.9686 13.7176ZM10.9685 10.9731C10.9685 9.83419 11.8879 8.91481 13.0269 8.91481C14.1658 8.91481 15.0852 9.83419 15.0852 10.9731C15.0852 12.1121 14.1658 13.0314 13.0269 13.0314C11.8879 13.0314 10.9685 12.1121 10.9685 10.9731Z" fill="black"/>
</svg>
