<svg width="24" height="24" viewBox="0 0 24 24" fill="none" xmlns="http://www.w3.org/2000/svg">
<path fill-rule="evenodd" clip-rule="evenodd" d="M22 12C22 17.5228 17.5228 22 12 22C6.47715 22 2 17.5228 2 12C2 6.47715 6.47715 2 12 2C17.5228 2 22 6.47715 22 12ZM13.7176 13.0314H13.3562L13.2281 12.9079C13.6764 12.3865 13.9463 11.7095 13.9463 10.9731C13.9463 9.33105 12.6152 8 10.9731 8C9.33105 8 8 9.33105 8 10.9731C8 12.6152 9.33105 13.9463 10.9731 13.9463C11.7095 13.9463 12.3865 13.6764 12.9079 13.2281L13.0314 13.3562V13.7176L15.3185 16L16 15.3185L13.7176 13.0314ZM10.9731 13.0315C9.8342 13.0315 8.91482 12.1121 8.91482 10.9731C8.91482 9.8342 9.8342 8.91482 10.9731 8.91482C12.1121 8.91482 13.0315 9.8342 13.0315 10.9731C13.0315 12.1121 12.1121 13.0315 10.9731 13.0315Z" fill="black"/>
</svg>
