<svg width="24" height="24" viewBox="0 0 24 24" fill="none" xmlns="http://www.w3.org/2000/svg">
<path fill-rule="evenodd" clip-rule="evenodd" d="M9.67924 15.0515V15.8645L4.53345 21L3 19.4666L8.13551 14.3208H8.94854L9.23671 14.0429C8.22813 12.8696 7.62093 11.3465 7.62093 9.68954C7.62093 5.99485 10.6158 3 14.3105 3C18.0051 3 21 5.99485 21 9.68954C21 13.3842 18.0051 16.3791 14.3105 16.3791C12.6535 16.3791 11.1304 15.7719 9.95712 14.7633L9.67924 15.0515ZM14.3105 5.05832C11.7479 5.05832 9.67924 7.12693 9.67924 9.68954C9.67924 12.2521 11.7479 14.3208 14.3105 14.3208C16.8731 14.3208 18.9417 12.2521 18.9417 9.68954C18.9417 7.12693 16.8731 5.05832 14.3105 5.05832Z" fill="black"/>
</svg>
