<svg width="24" height="24" viewBox="0 0 24 24" fill="none" xmlns="http://www.w3.org/2000/svg">
<path fill-rule="evenodd" clip-rule="evenodd" d="M15.0515 14.3208H15.8645L21 19.4666L19.4666 21L14.3208 15.8645V15.0515L14.0429 14.7633C12.8696 15.7719 11.3465 16.3791 9.68954 16.3791C5.99485 16.3791 3 13.3842 3 9.68954C3 5.99485 5.99485 3 9.68954 3C13.3842 3 16.3791 5.99485 16.3791 9.68954C16.3791 11.3465 15.7719 12.8696 14.7633 14.0429L15.0515 14.3208ZM5.05832 9.68954C5.05832 12.2521 7.12693 14.3208 9.68954 14.3208C12.2521 14.3208 14.3208 12.2521 14.3208 9.68954C14.3208 7.12693 12.2521 5.05832 9.68954 5.05832C7.12693 5.05832 5.05832 7.12693 5.05832 9.68954Z" fill="black"/>
</svg>
