<svg width="24" height="24" viewBox="0 0 24 24" fill="none" xmlns="http://www.w3.org/2000/svg">
<path fill-rule="evenodd" clip-rule="evenodd" d="M10.9686 13.3562V13.7176L8.68153 16L8 15.3185L10.2824 13.0314H10.6438L10.7719 12.9079C10.3236 12.3865 10.0537 11.7095 10.0537 10.9731C10.0537 9.33105 11.3848 8 13.0269 8C14.669 8 16 9.33105 16 10.9731C16 12.6152 14.669 13.9463 13.0269 13.9463C12.2905 13.9463 11.6135 13.6764 11.0921 13.2281L10.9686 13.3562ZM13.0269 8.91481C11.8879 8.91481 10.9685 9.83419 10.9685 10.9731C10.9685 12.1121 11.8879 13.0314 13.0269 13.0314C14.1658 13.0314 15.0852 12.1121 15.0852 10.9731C15.0852 9.83419 14.1658 8.91481 13.0269 8.91481Z" fill="black"/>
<path fill-rule="evenodd" clip-rule="evenodd" d="M22 2H2V22H22V2ZM20 4H4V20H20V4Z" fill="black"/>
</svg>
