<svg width="24" height="24" viewBox="0 0 24 24" fill="none" xmlns="http://www.w3.org/2000/svg">
<path fill-rule="evenodd" clip-rule="evenodd" d="M2 2H22V22H2V2ZM15.8204 12.644C15.8409 12.4795 15.8563 12.315 15.8563 12.1403C15.8563 11.9655 15.8409 11.801 15.8204 11.6365L16.9049 10.7884C17.0026 10.7113 17.0283 10.5725 16.9666 10.4594L15.9386 8.68087C15.8923 8.59862 15.8049 8.55236 15.7124 8.55236C15.6816 8.55236 15.6507 8.5575 15.625 8.56778L14.3451 9.08181C14.0778 8.8762 13.7899 8.70657 13.4764 8.57806L13.2811 7.21589C13.2656 7.09253 13.1577 7 13.0292 7H10.9731C10.8446 7 10.7366 7.09253 10.7212 7.21589L10.5259 8.57806C10.2123 8.70657 9.92447 8.88134 9.65717 9.08181L8.37725 8.56778C8.34641 8.5575 8.31556 8.55236 8.28472 8.55236C8.19734 8.55236 8.10995 8.59862 8.06369 8.68087L7.03564 10.4594C6.96881 10.5725 6.99966 10.7113 7.09732 10.7884L8.18192 11.6365C8.16136 11.801 8.14594 11.9706 8.14594 12.1403C8.14594 12.3099 8.16136 12.4795 8.18192 12.644L7.09732 13.4922C6.99966 13.5693 6.97396 13.708 7.03564 13.8211L8.06369 15.5997C8.10995 15.6819 8.19734 15.7282 8.28986 15.7282C8.3207 15.7282 8.35155 15.723 8.37725 15.7128L9.65717 15.1987C9.92447 15.4043 10.2123 15.574 10.5259 15.7025L10.7212 17.0646C10.7366 17.188 10.8446 17.2805 10.9731 17.2805H13.0292C13.1577 17.2805 13.2656 17.188 13.2811 17.0646L13.4764 15.7025C13.7899 15.574 14.0778 15.3992 14.3451 15.1987L15.625 15.7128C15.6559 15.723 15.6867 15.7282 15.7175 15.7282C15.8049 15.7282 15.8923 15.6819 15.9386 15.5997L16.9666 13.8211C17.0283 13.708 17.0026 13.5693 16.9049 13.4922L15.8204 12.644ZM14.8026 11.765C14.8231 11.9244 14.8283 12.0323 14.8283 12.1403C14.8283 12.2482 14.818 12.3613 14.8026 12.5155L14.7306 13.0964L15.1881 13.4562L15.7432 13.888L15.3834 14.5099L14.7306 14.2478L14.196 14.0319L13.7334 14.3814C13.5124 14.5459 13.3016 14.6693 13.0909 14.7567L12.546 14.9777L12.4637 15.5585L12.3609 16.2525H11.6413L11.4614 14.9777L10.9165 14.7567C10.6955 14.6641 10.4899 14.5459 10.2843 14.3917L9.8165 14.0319L9.27164 14.2529L8.61882 14.5151L8.259 13.8931L8.81415 13.4613L9.27164 13.1015L9.19967 12.5207C9.18425 12.3613 9.17397 12.2431 9.17397 12.1403C9.17397 12.0375 9.18425 11.9192 9.19967 11.765L9.27164 11.1842L8.81415 10.8244L8.259 10.3926L8.61882 9.77061L9.27164 10.0328L9.80622 10.2487L10.2688 9.89912C10.4899 9.73463 10.7006 9.61126 10.9114 9.52388L11.4562 9.30285L11.5385 8.722L11.6413 8.02806H12.3558L12.5357 9.30285L13.0806 9.52388C13.3016 9.6164 13.5072 9.73463 13.7128 9.88884L14.1806 10.2487L14.7255 10.0276L15.3783 9.76547L15.7381 10.3874L15.1881 10.8244L14.7306 11.1842L14.8026 11.765ZM9.945 12.1403C9.945 11.0043 10.8651 10.0842 12.0011 10.0842C13.1371 10.0842 14.0572 11.0043 14.0572 12.1403C14.0572 13.2763 13.1371 14.1964 12.0011 14.1964C10.8651 14.1964 9.945 13.2763 9.945 12.1403ZM12.0011 13.1683C11.4357 13.1683 10.9731 12.7057 10.9731 12.1403C10.9731 11.5748 11.4357 11.1122 12.0011 11.1122C12.5666 11.1122 13.0292 11.5748 13.0292 12.1403C13.0292 12.7057 12.5666 13.1683 12.0011 13.1683Z" fill="black"/>
</svg>
