<svg width="24" height="24" viewBox="0 0 24 24" fill="none" xmlns="http://www.w3.org/2000/svg">
<path fill-rule="evenodd" clip-rule="evenodd" d="M15.8563 12.1403C15.8563 12.315 15.8409 12.4795 15.8204 12.644L16.9049 13.4922C17.0026 13.5693 17.0283 13.708 16.9666 13.8211L15.9386 15.5997C15.8923 15.6819 15.8049 15.7282 15.7175 15.7282C15.6867 15.7282 15.6559 15.723 15.625 15.7128L14.3451 15.1987C14.0778 15.3992 13.7899 15.574 13.4764 15.7025L13.2811 17.0646C13.2656 17.188 13.1577 17.2805 13.0292 17.2805H10.9731C10.8446 17.2805 10.7366 17.188 10.7212 17.0646L10.5259 15.7025C10.2123 15.574 9.92447 15.4043 9.65717 15.1987L8.37725 15.7128C8.35155 15.723 8.3207 15.7282 8.28986 15.7282C8.19734 15.7282 8.10995 15.6819 8.06369 15.5997L7.03564 13.8211C6.97396 13.708 6.99966 13.5693 7.09732 13.4922L8.18192 12.644C8.16136 12.4795 8.14594 12.3099 8.14594 12.1403C8.14594 11.9706 8.16136 11.801 8.18192 11.6365L7.09732 10.7884C6.99966 10.7113 6.96881 10.5725 7.03564 10.4594L8.06369 8.68087C8.10995 8.59862 8.19734 8.55236 8.28472 8.55236C8.31556 8.55236 8.34641 8.5575 8.37725 8.56778L9.65717 9.08181C9.92447 8.88134 10.2123 8.70657 10.5259 8.57806L10.7212 7.21589C10.7366 7.09252 10.8446 7 10.9731 7H13.0292C13.1577 7 13.2656 7.09252 13.2811 7.21589L13.4764 8.57806C13.7899 8.70657 14.0778 8.8762 14.3451 9.08181L15.625 8.56778C15.6507 8.5575 15.6816 8.55236 15.7124 8.55236C15.8049 8.55236 15.8923 8.59862 15.9386 8.68087L16.9666 10.4594C17.0283 10.5725 17.0026 10.7113 16.9049 10.7884L15.8204 11.6365C15.8409 11.801 15.8563 11.9655 15.8563 12.1403ZM14.8283 12.1403C14.8283 12.0323 14.8231 11.9244 14.8026 11.765L14.7306 11.1842L15.1881 10.8244L15.7381 10.3874L15.3783 9.76547L14.7255 10.0276L14.1806 10.2487L13.7128 9.88884C13.5072 9.73463 13.3016 9.6164 13.0806 9.52388L12.5357 9.30285L12.3558 8.02806H11.6413L11.5385 8.722L11.4562 9.30285L10.9114 9.52388C10.7006 9.61126 10.4899 9.73463 10.2688 9.89912L9.80622 10.2487L9.27164 10.0328L8.61882 9.77061L8.259 10.3926L8.81415 10.8244L9.27164 11.1842L9.19967 11.765C9.18425 11.9192 9.17397 12.0375 9.17397 12.1403C9.17397 12.2431 9.18425 12.3613 9.19967 12.5207L9.27164 13.1015L8.81415 13.4613L8.259 13.8931L8.61882 14.5151L9.27164 14.2529L9.8165 14.0319L10.2843 14.3917C10.4899 14.5459 10.6955 14.6641 10.9165 14.7567L11.4614 14.9777L11.6413 16.2525H12.3609L12.4637 15.5585L12.546 14.9777L13.0909 14.7567C13.3016 14.6693 13.5124 14.5459 13.7334 14.3814L14.196 14.0319L14.7306 14.2478L15.3834 14.5099L15.7432 13.888L15.1881 13.4562L14.7306 13.0964L14.8026 12.5155C14.818 12.3613 14.8283 12.2482 14.8283 12.1403ZM12.0011 10.0842C10.8651 10.0842 9.945 11.0043 9.945 12.1403C9.945 13.2763 10.8651 14.1964 12.0011 14.1964C13.1371 14.1964 14.0572 13.2763 14.0572 12.1403C14.0572 11.0043 13.1371 10.0842 12.0011 10.0842ZM10.9731 12.1403C10.9731 12.7057 11.4357 13.1683 12.0011 13.1683C12.5666 13.1683 13.0292 12.7057 13.0292 12.1403C13.0292 11.5748 12.5666 11.1122 12.0011 11.1122C11.4357 11.1122 10.9731 11.5748 10.9731 12.1403Z" fill="black"/>
<path fill-rule="evenodd" clip-rule="evenodd" d="M12 22C17.5228 22 22 17.5228 22 12C22 6.47715 17.5228 2 12 2C6.47715 2 2 6.47715 2 12C2 17.5228 6.47715 22 12 22ZM12 20C16.4183 20 20 16.4183 20 12C20 7.58172 16.4183 4 12 4C7.58172 4 4 7.58172 4 12C4 16.4183 7.58172 20 12 20Z" fill="black"/>
</svg>
