<svg width="24" height="24" viewBox="0 0 24 24" fill="none" xmlns="http://www.w3.org/2000/svg">
<path fill-rule="evenodd" clip-rule="evenodd" d="M18.9414 12.2525C18.9414 12.5671 18.9136 12.8631 18.8766 13.1592L20.8289 14.6859C21.0047 14.8247 21.051 15.0745 20.9399 15.278L19.0894 18.4794C19.0062 18.6274 18.8489 18.7107 18.6916 18.7107C18.6361 18.7107 18.5806 18.7015 18.525 18.683L16.2212 17.7577C15.74 18.1185 15.2219 18.4331 14.6575 18.6644L14.3059 21.1164C14.2782 21.3384 14.0839 21.505 13.8525 21.505H10.1515C9.92024 21.505 9.72593 21.3384 9.69818 21.1164L9.34658 18.6644C8.78218 18.4331 8.26404 18.1278 7.78291 17.7577L5.47905 18.683C5.43278 18.7015 5.37727 18.7107 5.32175 18.7107C5.15521 18.7107 4.99792 18.6274 4.91464 18.4794L3.06415 15.278C2.95312 15.0745 2.99938 14.8247 3.17518 14.6859L5.12745 13.1592C5.09044 12.8631 5.06268 12.5578 5.06268 12.2525C5.06268 11.9471 5.09044 11.6418 5.12745 11.3457L3.17518 9.81908C2.99938 9.68029 2.94387 9.43047 3.06415 9.22692L4.91464 6.02556C4.99792 5.87752 5.15521 5.79425 5.3125 5.79425C5.36802 5.79425 5.42353 5.8035 5.47905 5.82201L7.78291 6.74725C8.26404 6.38641 8.78218 6.07182 9.34658 5.84051L9.69818 3.3886C9.72593 3.16654 9.92024 3 10.1515 3H13.8525C14.0839 3 14.2782 3.16654 14.3059 3.3886L14.6575 5.84051C15.2219 6.07182 15.74 6.37715 16.2212 6.74725L18.525 5.82201C18.5713 5.8035 18.6268 5.79425 18.6823 5.79425C18.8489 5.79425 19.0062 5.87752 19.0894 6.02556L20.9399 9.22692C21.051 9.43047 21.0047 9.68029 20.8289 9.81908L18.8766 11.3457C18.9136 11.6418 18.9414 11.9379 18.9414 12.2525ZM17.0909 12.2525C17.0909 12.0582 17.0817 11.8639 17.0447 11.577L16.9151 10.5315L17.7386 9.88384L18.7286 9.09738L18.0809 7.97783L16.9059 8.44971L15.9251 8.84757L15.0831 8.19989C14.713 7.92232 14.3429 7.70951 13.9451 7.54297L12.9643 7.14511L12.6405 4.8505H11.3544L11.1693 6.09958L11.0213 7.14511L10.0405 7.54297C9.66117 7.70026 9.28182 7.92232 8.88397 8.2184L8.05124 8.84757L7.08899 8.45896L5.91392 7.98709L5.26625 9.10664L6.26552 9.88384L7.08899 10.5315L6.95945 11.577C6.93169 11.8546 6.91319 12.0674 6.91319 12.2525C6.91319 12.4375 6.93169 12.6503 6.95945 12.9372L7.08899 13.9827L6.26552 14.6304L5.26625 15.4076L5.91392 16.5271L7.08899 16.0552L8.06975 15.6574L8.91172 16.3051C9.28182 16.5826 9.65192 16.7954 10.0498 16.962L11.0305 17.3598L11.3544 19.6545H12.6497L12.8348 18.4054L12.9828 17.3598L13.9636 16.962C14.3429 16.8047 14.7223 16.5826 15.1201 16.2866L15.9529 15.6574L16.9151 16.046L18.0902 16.5179L18.7379 15.3983L17.7386 14.6211L16.9151 13.9734L17.0447 12.9279C17.0724 12.6503 17.0909 12.4468 17.0909 12.2525ZM12.002 8.55149C9.95722 8.55149 8.30103 10.2077 8.30103 12.2525C8.30103 14.2973 9.95722 15.9535 12.002 15.9535C14.0468 15.9535 15.703 14.2973 15.703 12.2525C15.703 10.2077 14.0468 8.55149 12.002 8.55149ZM10.1515 12.2525C10.1515 13.2703 10.9843 14.103 12.002 14.103C13.0198 14.103 13.8525 13.2703 13.8525 12.2525C13.8525 11.2347 13.0198 10.402 12.002 10.402C10.9843 10.402 10.1515 11.2347 10.1515 12.2525Z" fill="black"/>
</svg>
