<svg width="24" height="24" viewBox="0 0 24 24" fill="none" xmlns="http://www.w3.org/2000/svg">
<path d="M13.7067 10L14.3333 10.6311L10.7778 14.1867L9 12.4133L9.63111 11.7867L10.7778 12.9289L13.7067 10Z" fill="black"/>
<path fill-rule="evenodd" clip-rule="evenodd" d="M11.9091 6L7 8.18182V11.4545C7 14.4818 9.09455 17.3127 11.9091 18C14.7236 17.3127 16.8182 14.4818 16.8182 11.4545V8.18182L11.9091 6ZM15.7273 11.4545C15.7273 13.92 14.1018 16.1945 11.9091 16.8709C9.71636 16.1945 8.0909 13.92 8.0909 11.4545V8.8909L11.9091 7.19454L15.7273 8.8909V11.4545Z" fill="black"/>
<path fill-rule="evenodd" clip-rule="evenodd" d="M22 2H2V22H22V2ZM20 4H4V20H20V4Z" fill="black"/>
</svg>
