<svg width="24" height="24" viewBox="0 0 24 24" fill="none" xmlns="http://www.w3.org/2000/svg">
<path fill-rule="evenodd" clip-rule="evenodd" d="M22 12C22 17.5228 17.5228 22 12 22C6.47715 22 2 17.5228 2 12C2 6.47715 6.47715 2 12 2C17.5228 2 22 6.47715 22 12ZM7 8.18182L11.9091 6L16.8182 8.18182V11.4545C16.8182 14.4818 14.7236 17.3127 11.9091 18C9.09455 17.3127 7 14.4818 7 11.4545V8.18182ZM11.9091 16.8709C14.1018 16.1945 15.7273 13.92 15.7273 11.4545V8.8909L11.9091 7.19454L8.0909 8.8909V11.4545C8.0909 13.92 9.71636 16.1945 11.9091 16.8709ZM13.0809 14.357L14.0237 13.4142L12.6095 12L14.0237 10.5858L13.0809 9.64298L11.6667 11.0572L10.2524 9.64298L9.30964 10.5858L10.7239 12L9.30964 13.4142L10.2524 14.357L11.6667 12.9428L13.0809 14.357Z" fill="black"/>
</svg>
