<svg width="24" height="24" viewBox="0 0 24 24" fill="none" xmlns="http://www.w3.org/2000/svg">
<path fill-rule="evenodd" clip-rule="evenodd" d="M7 8.18182L11.9091 6L16.8182 8.18182V11.4545C16.8182 14.4818 14.7236 17.3127 11.9091 18C9.09455 17.3127 7 14.4818 7 11.4545V8.18182ZM11.9091 16.8709C14.1018 16.1945 15.7273 13.92 15.7273 11.4545V8.8909L11.9091 7.19454L8.0909 8.8909V11.4545C8.0909 13.92 9.71636 16.1945 11.9091 16.8709Z" fill="black"/>
<path fill-rule="evenodd" clip-rule="evenodd" d="M12 22C17.5228 22 22 17.5228 22 12C22 6.47715 17.5228 2 12 2C6.47715 2 2 6.47715 2 12C2 17.5228 6.47715 22 12 22ZM12 20C16.4183 20 20 16.4183 20 12C20 7.58172 16.4183 4 12 4C7.58172 4 4 7.58172 4 12C4 16.4183 7.58172 20 12 20Z" fill="black"/>
</svg>
