<svg width="24" height="24" viewBox="0 0 24 24" fill="none" xmlns="http://www.w3.org/2000/svg">
<path d="M14.3333 11.3333H9V12.6667H14.3333V11.3333Z" fill="black"/>
<path fill-rule="evenodd" clip-rule="evenodd" d="M11.9091 6L7 8.18182V11.4545C7 14.4818 9.09455 17.3127 11.9091 18C14.7236 17.3127 16.8182 14.4818 16.8182 11.4545V8.18182L11.9091 6ZM15.7273 11.4545C15.7273 13.92 14.1018 16.1945 11.9091 16.8709C9.71637 16.1945 8.09091 13.92 8.09091 11.4545V8.8909L11.9091 7.19454L15.7273 8.8909V11.4545Z" fill="black"/>
<path fill-rule="evenodd" clip-rule="evenodd" d="M12 22C17.5228 22 22 17.5228 22 12C22 6.47715 17.5228 2 12 2C6.47715 2 2 6.47715 2 12C2 17.5228 6.47715 22 12 22ZM12 20C16.4183 20 20 16.4183 20 12C20 7.58172 16.4183 4 12 4C7.58172 4 4 7.58172 4 12C4 16.4183 7.58172 20 12 20Z" fill="black"/>
</svg>
