<svg width="24" height="24" viewBox="0 0 24 24" fill="none" xmlns="http://www.w3.org/2000/svg">
<path fill-rule="evenodd" clip-rule="evenodd" d="M2 2H22V22H2V2ZM7 8.18182L11.9091 6L16.8182 8.18182V11.4545C16.8182 14.4818 14.7236 17.3127 11.9091 18C9.09455 17.3127 7 14.4818 7 11.4545V8.18182ZM11.9091 16.8709C14.1018 16.1945 15.7273 13.92 15.7273 11.4545V8.8909L11.9091 7.19454L8.0909 8.8909V11.4545C8.0909 13.92 9.71636 16.1945 11.9091 16.8709ZM14.3333 10.6311L13.7067 10L10.7778 12.9289L9.63111 11.7867L9 12.4133L10.7778 14.1867L14.3333 10.6311Z" fill="black"/>
</svg>
