<svg width="24" height="24" viewBox="0 0 24 24" fill="none" xmlns="http://www.w3.org/2000/svg">
<path d="M1 12.0075C1 13.6617 2.35 15 4 15C5.65 15 7 13.6617 7 12.0075C7 10.3534 5.65 9 4 9C2.35 9 1 10.3534 1 12.0075Z" fill="black"/>
<path d="M9 12.0075C9 13.6617 10.35 15 12 15C13.65 15 15 13.6617 15 12.0075C15 10.3534 13.65 9 12 9C10.35 9 9 10.3534 9 12.0075Z" fill="black"/>
<path d="M20 15C18.35 15 17 13.6617 17 12.0075C17 10.3534 18.35 9 20 9C21.65 9 23 10.3534 23 12.0075C23 13.6617 21.65 15 20 15Z" fill="black"/>
</svg>
