<svg width="24" height="24" viewBox="0 0 24 24" fill="none" xmlns="http://www.w3.org/2000/svg">
<path d="M4 18.005C4 19.1078 4.9 20 6 20C7.1 20 8 19.1078 8 18.005C8 16.9023 7.1 16 6 16C4.9 16 4 16.9023 4 18.005Z" fill="black"/>
<path d="M4 12.005C4 13.1078 4.9 14 6 14C7.1 14 8 13.1078 8 12.005C8 10.9023 7.1 10 6 10C4.9 10 4 10.9023 4 12.005Z" fill="black"/>
<path d="M4 6.00501C4 7.10777 4.9 8 6 8C7.1 8 8 7.10777 8 6.00501C8 4.90226 7.1 4 6 4C4.9 4 4 4.90226 4 6.00501Z" fill="black"/>
<path d="M10 6.00501C10 7.10777 10.9 8 12 8C13.1 8 14 7.10777 14 6.00501C14 4.90226 13.1 4 12 4C10.9 4 10 4.90226 10 6.00501Z" fill="black"/>
<path d="M10 12.005C10 13.1078 10.9 14 12 14C13.1 14 14 13.1078 14 12.005C14 10.9023 13.1 10 12 10C10.9 10 10 10.9023 10 12.005Z" fill="black"/>
<path d="M10 18.005C10 19.1078 10.9 20 12 20C13.1 20 14 19.1078 14 18.005C14 16.9023 13.1 16 12 16C10.9 16 10 16.9023 10 18.005Z" fill="black"/>
<path d="M16 12.005C16 13.1078 16.9 14 18 14C19.1 14 20 13.1078 20 12.005C20 10.9023 19.1 10 18 10C16.9 10 16 10.9023 16 12.005Z" fill="black"/>
<path d="M16 18.005C16 19.1078 16.9 20 18 20C19.1 20 20 19.1078 20 18.005C20 16.9023 19.1 16 18 16C16.9 16 16 16.9023 16 18.005Z" fill="black"/>
<path d="M16 6.00501C16 7.10777 16.9 8 18 8C19.1 8 20 7.10777 20 6.00501C20 4.90226 19.1 4 18 4C16.9 4 16 4.90226 16 6.00501Z" fill="black"/>
</svg>
