<svg width="24" height="24" viewBox="0 0 24 24" fill="none" xmlns="http://www.w3.org/2000/svg">
<path d="M11.9925 1C10.3383 1 9 2.35 9 4C9 5.65 10.3383 7 11.9925 7C13.6466 7 15 5.65 15 4C15 2.35 13.6466 1 11.9925 1Z" fill="black"/>
<path d="M11.9925 9C10.3383 9 9 10.35 9 12C9 13.65 10.3383 15 11.9925 15C13.6466 15 15 13.65 15 12C15 10.35 13.6466 9 11.9925 9Z" fill="black"/>
<path d="M9 20C9 18.35 10.3383 17 11.9925 17C13.6466 17 15 18.35 15 20C15 21.65 13.6466 23 11.9925 23C10.3383 23 9 21.65 9 20Z" fill="black"/>
</svg>
