<svg width="24" height="24" viewBox="0 0 24 24" fill="none" xmlns="http://www.w3.org/2000/svg">
<path fill-rule="evenodd" clip-rule="evenodd" d="M22 12C22 17.5228 17.5228 22 12 22C6.47715 22 2 17.5228 2 12C2 6.47715 6.47715 2 12 2C17.5228 2 22 6.47715 22 12ZM13.5166 8.57129V6.94434H13.1885C12.1813 6.94889 11.2949 7.17904 10.5293 7.63477C9.76823 8.08594 9.18262 8.72624 8.77246 9.55566C8.36686 10.3805 8.16406 11.333 8.16406 12.4131V13.124C8.16406 14.3408 8.48535 15.3138 9.12793 16.043C9.77507 16.7721 10.6227 17.1367 11.6709 17.1367C12.318 17.1367 12.8968 16.9909 13.4072 16.6992C13.9222 16.4076 14.3187 15.9997 14.5967 15.4756C14.8792 14.9515 15.0205 14.3659 15.0205 13.7188C15.0205 12.707 14.7653 11.8913 14.2549 11.2715C13.7445 10.6517 13.0563 10.3418 12.1904 10.3418C11.3838 10.3418 10.7161 10.6107 10.1875 11.1484C10.2969 10.3464 10.6227 9.71973 11.165 9.26855C11.7119 8.81738 12.432 8.58496 13.3252 8.57129H13.5166ZM10.7207 12.1807C10.9805 12.012 11.2699 11.9277 11.5889 11.9277C12.0355 11.9277 12.391 12.0941 12.6553 12.4268C12.9196 12.7594 13.0518 13.1969 13.0518 13.7393C13.0518 14.2725 12.9196 14.7077 12.6553 15.0449C12.3955 15.3776 12.0537 15.5439 11.6299 15.5439C11.1605 15.5439 10.7959 15.3594 10.5361 14.9902C10.2764 14.6165 10.1465 14.0993 10.1465 13.4385V12.8369C10.2695 12.5635 10.4609 12.3447 10.7207 12.1807Z" fill="black"/>
</svg>
