<svg width="24" height="24" viewBox="0 0 24 24" fill="none" xmlns="http://www.w3.org/2000/svg">
<path fill-rule="evenodd" clip-rule="evenodd" d="M22 12C22 17.5228 17.5228 22 12 22C6.47715 22 2 17.5228 2 12C2 6.47715 6.47715 2 12 2C17.5228 2 22 6.47715 22 12ZM11.3714 12.0857L7 15.1714V9L11.3714 12.0857ZM11.6286 15.1714L16 12.0857L16 15H17V9.00001H16L16 12.0857L11.6286 9V15.1714ZM9.58686 12.0857L8.02857 10.9851V13.1863L9.58686 12.0857ZM14.2154 12.0857L12.6571 10.9851V13.1863L14.2154 12.0857Z" fill="black"/>
</svg>
