<svg width="24" height="24" viewBox="0 0 24 24" fill="none" xmlns="http://www.w3.org/2000/svg">
<path fill-rule="evenodd" clip-rule="evenodd" d="M22 12C22 17.5228 17.5228 22 12 22C6.47715 22 2 17.5228 2 12C2 6.47715 6.47715 2 12 2C17.5228 2 22 6.47715 22 12ZM12.6286 11.9143L17 8.82857V15L12.6286 11.9143ZM12.3714 8.82857L8 11.9143L8 9H7V15H8L8 11.9143L12.3714 15V8.82857ZM14.4131 11.9143L15.9714 13.0149V10.8137L14.4131 11.9143ZM9.78458 11.9143L11.3429 13.0149V10.8137L9.78458 11.9143Z" fill="black"/>
</svg>
