<svg width="24" height="24" viewBox="0 0 24 24" fill="none" xmlns="http://www.w3.org/2000/svg">
<path fill-rule="evenodd" clip-rule="evenodd" d="M17 8.82855L12.6286 11.9143L17 15V8.82855ZM15.9714 13.0148L14.4131 11.9143L15.9714 10.8137V13.0148Z" fill="black"/>
<path fill-rule="evenodd" clip-rule="evenodd" d="M8 11.9143L8 15H7V8.99998H8L8 11.9143ZM8 11.9143L12.3714 8.82855V15L8 11.9143Z" fill="black"/>
<path d="M11.3429 13.0148L9.78458 11.9143L11.3429 10.8137V13.0148Z" fill="black"/>
<path fill-rule="evenodd" clip-rule="evenodd" d="M12 22C17.5228 22 22 17.5228 22 12C22 6.47715 17.5228 2 12 2C6.47715 2 2 6.47715 2 12C2 17.5228 6.47715 22 12 22ZM12 20C16.4183 20 20 16.4183 20 12C20 7.58172 16.4183 4 12 4C7.58172 4 4 7.58172 4 12C4 16.4183 7.58172 20 12 20Z" fill="black"/>
</svg>
