<svg width="24" height="24" viewBox="0 0 24 24" fill="none" xmlns="http://www.w3.org/2000/svg">
<path fill-rule="evenodd" clip-rule="evenodd" d="M7 15.1714L11.3714 12.0857L7 9V15.1714ZM8.02857 10.9851L9.58686 12.0857L8.02857 13.1863V10.9851Z" fill="black"/>
<path fill-rule="evenodd" clip-rule="evenodd" d="M16 12.0857L11.6286 15.1714V9L16 12.0857ZM16 12.0857L16 9.00001H17V15H16L16 12.0857ZM12.6571 10.9851L14.2154 12.0857L12.6571 13.1863V10.9851Z" fill="black"/>
<path fill-rule="evenodd" clip-rule="evenodd" d="M12 22C17.5228 22 22 17.5228 22 12C22 6.47715 17.5228 2 12 2C6.47715 2 2 6.47715 2 12C2 17.5228 6.47715 22 12 22ZM12 20C16.4183 20 20 16.4183 20 12C20 7.58172 16.4183 4 12 4C7.58172 4 4 7.58172 4 12C4 16.4183 7.58172 20 12 20Z" fill="black"/>
</svg>
