<svg width="24" height="24" viewBox="0 0 24 24" fill="none" xmlns="http://www.w3.org/2000/svg">
<path fill-rule="evenodd" clip-rule="evenodd" d="M2 2H22V22H2V2ZM14.6055 12.4922C14.9023 12.099 15.0508 11.5794 15.0508 10.9336V10.8711C15.0508 10.1966 14.9036 9.66536 14.6094 9.27734C14.3177 8.88932 13.9154 8.69531 13.4023 8.69531C12.8893 8.69531 12.487 8.8763 12.1953 9.23828V7H11.4727V13H12.1367L12.1719 12.5117C12.4635 12.8893 12.8763 13.0781 13.4101 13.0781C13.9101 13.0781 14.3086 12.8828 14.6055 12.4922ZM14.043 9.71093C14.2331 9.97916 14.3281 10.3594 14.3281 10.8516C14.3281 11.3906 14.2318 11.7943 14.0391 12.0625C13.8463 12.3307 13.5768 12.4648 13.2305 12.4648C12.7617 12.4648 12.4167 12.2435 12.1953 11.8008V9.97265C12.4036 9.52994 12.7461 9.30859 13.2226 9.30859C13.5794 9.30859 13.8529 9.44271 14.043 9.71093ZM9.73047 13C9.6888 12.9167 9.65494 12.7682 9.6289 12.5547C9.29297 12.9036 8.89192 13.0781 8.42578 13.0781C8.00911 13.0781 7.66667 12.9609 7.39844 12.7266C7.13281 12.4896 7 12.1901 7 11.8281C7 11.388 7.16667 11.0469 7.5 10.8047C7.83594 10.5599 8.30729 10.4375 8.91406 10.4375H9.61718V10.1055C9.61718 9.85286 9.54166 9.65234 9.39062 9.5039C9.23958 9.35286 9.01692 9.27734 8.72265 9.27734C8.46484 9.27734 8.2487 9.34245 8.07422 9.47265C7.89974 9.60286 7.8125 9.76041 7.8125 9.94531H7.08594C7.08594 9.73437 7.16016 9.53125 7.30859 9.33593C7.45963 9.13802 7.66276 8.98177 7.91797 8.86719C8.17578 8.7526 8.45833 8.69531 8.76562 8.69531C9.2526 8.69531 9.63411 8.81771 9.91015 9.0625C10.1862 9.30469 10.3294 9.63932 10.3398 10.0664V12.0117C10.3398 12.3997 10.3893 12.7083 10.4883 12.9375V13H9.73047ZM8.53125 12.4492C8.75781 12.4492 8.97265 12.3906 9.17578 12.2734C9.3789 12.1562 9.52604 12.0039 9.61718 11.8164V10.9492H9.05078C8.16536 10.9492 7.72266 11.2083 7.72266 11.7266C7.72266 11.9531 7.79818 12.1302 7.94922 12.2578C8.10026 12.3854 8.29427 12.4492 8.53125 12.4492ZM17.9009 11.6667L16.9609 10.72L12.5675 15.1133L10.8475 13.4L9.90088 14.34L12.5675 17L17.9009 11.6667Z" fill="black"/>
</svg>
