<svg width="24" height="24" viewBox="0 0 24 24" fill="none" xmlns="http://www.w3.org/2000/svg">
<path d="M20.99 12L19.58 10.58L12.99 17.17L10.41 14.6L8.98999 16.01L12.99 20L20.99 12Z" fill="black"/>
<path d="M8.73438 14C8.67188 13.875 8.62109 13.6523 8.58203 13.332C8.07812 13.8555 7.47656 14.1172 6.77734 14.1172C6.15234 14.1172 5.63867 13.9414 5.23633 13.5898C4.83789 13.2344 4.63867 12.7852 4.63867 12.2422C4.63867 11.582 4.88867 11.0703 5.38867 10.707C5.89258 10.3398 6.59961 10.1562 7.50977 10.1562H8.56445V9.6582C8.56445 9.2793 8.45117 8.97852 8.22461 8.75586C7.99805 8.5293 7.66406 8.41602 7.22266 8.41602C6.83594 8.41602 6.51172 8.51367 6.25 8.70898C5.98828 8.9043 5.85742 9.14062 5.85742 9.41797H4.76758C4.76758 9.10156 4.87891 8.79688 5.10156 8.50391C5.32812 8.20703 5.63281 7.97266 6.01562 7.80078C6.40234 7.62891 6.82617 7.54297 7.28711 7.54297C8.01758 7.54297 8.58984 7.72656 9.00391 8.09375C9.41797 8.45703 9.63281 8.95898 9.64844 9.59961V12.5176C9.64844 13.0996 9.72266 13.5625 9.87109 13.9062V14H8.73438ZM6.93555 13.1738C7.27539 13.1738 7.59766 13.0859 7.90234 12.9102C8.20703 12.7344 8.42773 12.5059 8.56445 12.2246V10.9238H7.71484C6.38672 10.9238 5.72266 11.3125 5.72266 12.0898C5.72266 12.4297 5.83594 12.6953 6.0625 12.8867C6.28906 13.0781 6.58008 13.1738 6.93555 13.1738Z" fill="black"/>
<path d="M16.7148 10.9004C16.7148 11.8691 16.4922 12.6484 16.0469 13.2383C15.6016 13.8242 15.0039 14.1172 14.2539 14.1172C13.4531 14.1172 12.834 13.834 12.3965 13.2676L12.3438 14H11.3477V5H12.4316V8.35742C12.8691 7.81445 13.4727 7.54297 14.2422 7.54297C15.0117 7.54297 15.6152 7.83398 16.0527 8.41602C16.4941 8.99805 16.7148 9.79492 16.7148 10.8066V10.9004ZM15.6309 10.7773C15.6309 10.0391 15.4883 9.46875 15.2031 9.06641C14.918 8.66406 14.5078 8.46289 13.9727 8.46289C13.2578 8.46289 12.7441 8.79492 12.4316 9.45898V12.2012C12.7637 12.8652 13.2812 13.1973 13.9844 13.1973C14.5039 13.1973 14.9082 12.9961 15.1973 12.5938C15.4863 12.1914 15.6309 11.5859 15.6309 10.7773Z" fill="black"/>
</svg>
