<svg width="24" height="24" viewBox="0 0 24 24" fill="none" xmlns="http://www.w3.org/2000/svg">
<path d="M8 9H16V10H8V9Z" fill="black"/>
<path d="M8 16V15H16V16H8Z" fill="black"/>
<path d="M12 11H8V12H12V11Z" fill="black"/>
<path d="M8 13H12V14H8V13Z" fill="black"/>
<path d="M15.1 13.9L14.75 14.25L13 12.5L14.75 10.75L15.1 11.1L13.7 12.5L15.1 13.9Z" fill="black"/>
<path fill-rule="evenodd" clip-rule="evenodd" d="M12 22C17.5228 22 22 17.5228 22 12C22 6.47715 17.5228 2 12 2C6.47715 2 2 6.47715 2 12C2 17.5228 6.47715 22 12 22ZM12 20C16.4183 20 20 16.4183 20 12C20 7.58172 16.4183 4 12 4C7.58172 4 4 7.58172 4 12C4 16.4183 7.58172 20 12 20Z" fill="black"/>
</svg>
