<svg width="24" height="24" viewBox="0 0 24 24" fill="none" xmlns="http://www.w3.org/2000/svg">
<path fill-rule="evenodd" clip-rule="evenodd" d="M14.7273 3H6.54545C5.79091 3 5.14545 3.45455 4.87273 4.10909L2.12727 10.5182C2.04545 10.7273 2 10.9455 2 11.1818V13C2 14 2.81818 14.8182 3.81818 14.8182H9.55455L8.69091 18.9727L8.66364 19.2636C8.66364 19.6364 8.81818 19.9818 9.06364 20.2273L10.0273 21.1818L16.0091 15.1909C16.3455 14.8636 16.5455 14.4091 16.5455 13.9091V4.81818C16.5455 3.81818 15.7273 3 14.7273 3ZM14.7273 13.9091L10.7818 17.8545L11.7909 13H3.81818V11.1818L6.54545 4.81818H14.7273V13.9091ZM22 3H18.3636V13.9091H22V3Z" fill="black"/>
</svg>
