<svg width="24" height="24" viewBox="0 0 24 24" fill="none" xmlns="http://www.w3.org/2000/svg">
<path d="M20.1818 9.36364H14.4455L15.3091 5.20909L15.3364 4.91818C15.3364 4.54545 15.1818 4.2 14.9364 3.95455L13.9727 3L7.99091 8.99091C7.65455 9.31818 7.45455 9.77273 7.45455 10.2727V19.3636C7.45455 20.3636 8.27273 21.1818 9.27273 21.1818H17.4545C18.2091 21.1818 18.8545 20.7273 19.1273 20.0727L21.8727 13.6636C21.9545 13.4545 22 13.2364 22 13V11.1818C22 10.1818 21.1818 9.36364 20.1818 9.36364Z" fill="black"/>
<path d="M5.63636 10.2727H2V21.1818H5.63636V10.2727Z" fill="black"/>
</svg>
