<svg width="24" height="24" viewBox="0 0 24 24" fill="none" xmlns="http://www.w3.org/2000/svg">
<path fill-rule="evenodd" clip-rule="evenodd" d="M16.5455 6H7.45455C4.44545 6 2 8.69 2 12C2 15.31 4.44545 18 7.45455 18H16.5455C19.5545 18 22 15.31 22 12C22 8.69 19.5545 6 16.5455 6ZM16.4444 16H7.55556C5.59111 16 4 14.21 4 12C4 9.79 5.59111 8 7.55556 8H16.4444C18.4089 8 20 9.79 20 12C20 14.21 18.4089 16 16.4444 16ZM5 12C5 10.34 6.34 9 8 9C9.66 9 11 10.34 11 12C11 13.66 9.66 15 8 15C6.34 15 5 13.66 5 12Z" fill="black"/>
</svg>
