<svg width="24" height="24" viewBox="0 0 24 24" fill="none" xmlns="http://www.w3.org/2000/svg">
<path fill-rule="evenodd" clip-rule="evenodd" d="M22 12C22 17.5228 17.5228 22 12 22C6.47715 22 2 17.5228 2 12C2 6.47715 6.47715 2 12 2C17.5228 2 22 6.47715 22 12ZM14.2222 9H7.55556C7.25 9 7 9.25 7 9.55556V15.1111C7 15.4167 7.25 15.6667 7.55556 15.6667H14.2222C14.5278 15.6667 14.7778 15.4167 14.7778 15.1111V13.1667L17 15.3889V9.27778L14.7778 11.5V9.55556C14.7778 9.25 14.5278 9 14.2222 9ZM13.6667 10.1111V14.5556H8.11111V10.1111H13.6667Z" fill="black"/>
</svg>
