<svg width="24" height="24" viewBox="0 0 24 24" fill="none" xmlns="http://www.w3.org/2000/svg">
<path fill-rule="evenodd" clip-rule="evenodd" d="M7.55556 9H14.2222C14.5278 9 14.7778 9.25 14.7778 9.55556V11.5L17 9.27778V15.3889L14.7778 13.1667V15.1111C14.7778 15.4167 14.5278 15.6667 14.2222 15.6667H7.55556C7.25 15.6667 7 15.4167 7 15.1111V9.55556C7 9.25 7.25 9 7.55556 9ZM13.6667 14.5556V10.1111H8.11111V14.5556H13.6667Z" fill="black"/>
<path fill-rule="evenodd" clip-rule="evenodd" d="M12 22C17.5228 22 22 17.5228 22 12C22 6.47715 17.5228 2 12 2C6.47715 2 2 6.47715 2 12C2 17.5228 6.47715 22 12 22ZM12 20C16.4183 20 20 16.4183 20 12C20 7.58172 16.4183 4 12 4C7.58172 4 4 7.58172 4 12C4 16.4183 7.58172 20 12 20Z" fill="black"/>
</svg>
