<svg width="24" height="24" viewBox="0 0 24 24" fill="none" xmlns="http://www.w3.org/2000/svg">
<path fill-rule="evenodd" clip-rule="evenodd" d="M11.6842 13.3158C12.5578 13.3158 13.2631 12.6105 13.2631 11.7368V8.57895C13.2631 7.70526 12.5578 7 11.6842 7C10.8105 7 10.1052 7.70526 10.1052 8.57895V11.7368C10.1052 12.6105 10.8105 13.3158 11.6842 13.3158ZM11.1579 8.57897C11.1579 8.2895 11.3947 8.05265 11.6842 8.05265C11.9736 8.05265 12.2105 8.2895 12.2105 8.57897V11.7369C12.2105 12.0316 11.9789 12.2632 11.6842 12.2632C11.3947 12.2632 11.1579 12.0263 11.1579 11.7369V8.57897ZM14.4737 11.7368H15.3684C15.3684 13.5316 13.9368 15.0158 12.2105 15.2737V17H11.1579V15.2737C9.43158 15.0158 8 13.5316 8 11.7368H8.89474C8.89474 13.3158 10.2316 14.421 11.6842 14.421C13.1368 14.421 14.4737 13.3158 14.4737 11.7368Z" fill="black"/>
<path fill-rule="evenodd" clip-rule="evenodd" d="M12 22C17.5228 22 22 17.5228 22 12C22 6.47715 17.5228 2 12 2C6.47715 2 2 6.47715 2 12C2 17.5228 6.47715 22 12 22ZM12 20C16.4183 20 20 16.4183 20 12C20 7.58172 16.4183 4 12 4C7.58172 4 4 7.58172 4 12C4 16.4183 7.58172 20 12 20Z" fill="black"/>
</svg>
