<svg width="24" height="24" viewBox="0 0 24 24" fill="none" xmlns="http://www.w3.org/2000/svg">
<path fill-rule="evenodd" clip-rule="evenodd" d="M12.0377 7L8.68342 10.3543H6V14.3794H8.68342L12.0377 17.7337V7ZM10.696 10.2402V14.4935L9.24023 13.0377H7.34171V11.696H9.24023L10.696 10.2402Z" fill="black"/>
<path d="M18 13.5866L17.1868 14.3998L15.967 13.18L14.7472 14.3998L13.934 13.5866L15.1538 12.3668L13.934 11.147L14.7472 10.3338L15.967 11.5536L17.1868 10.3338L18 11.147L16.7802 12.3668L18 13.5866Z" fill="black"/>
<path fill-rule="evenodd" clip-rule="evenodd" d="M22 2H2V22H22V2ZM20 4H4V20H20V4Z" fill="black"/>
</svg>
