<svg width="24" height="24" viewBox="0 0 24 24" fill="none" xmlns="http://www.w3.org/2000/svg">
<path fill-rule="evenodd" clip-rule="evenodd" d="M22 12C22 17.5228 17.5228 22 12 22C6.47715 22 2 17.5228 2 12C2 6.47715 6.47715 2 12 2C17.5228 2 22 6.47715 22 12ZM8.625 10.2812L11.9062 7V17.5L8.625 14.2188H6V10.2812H8.625ZM10.5938 14.3303V10.1697L9.16969 11.5938H7.3125V12.9063H9.16969L10.5938 14.3303ZM15.1875 14.5H16.3125V12.8125H18V11.6875H16.3125V10H15.1875V11.6875H13.5V12.8125H15.1875V14.5Z" fill="black"/>
</svg>
