<svg width="24" height="24" viewBox="0 0 24 24" fill="none" xmlns="http://www.w3.org/2000/svg">
<path fill-rule="evenodd" clip-rule="evenodd" d="M12.0377 7L8.68342 10.3543H6V14.3794H8.68342L12.0377 17.7337V7ZM10.696 10.2402V14.4935L9.24023 13.0377H7.34171V11.696H9.24023L10.696 10.2402Z" fill="black"/>
<path d="M18 13.5866L17.1868 14.3998L15.967 13.18L14.7472 14.3998L13.934 13.5866L15.1538 12.3668L13.934 11.147L14.7472 10.3338L15.967 11.5536L17.1868 10.3338L18 11.147L16.7802 12.3668L18 13.5866Z" fill="black"/>
<path fill-rule="evenodd" clip-rule="evenodd" d="M12 22C17.5228 22 22 17.5228 22 12C22 6.47715 17.5228 2 12 2C6.47715 2 2 6.47715 2 12C2 17.5228 6.47715 22 12 22ZM12 20C16.4183 20 20 16.4183 20 12C20 7.58172 16.4183 4 12 4C7.58172 4 4 7.58172 4 12C4 16.4183 7.58172 20 12 20Z" fill="black"/>
</svg>
