<svg width="24" height="24" viewBox="0 0 24 24" fill="none" xmlns="http://www.w3.org/2000/svg">
<path fill-rule="evenodd" clip-rule="evenodd" d="M14.1469 13.2893H13.6953L13.5352 13.1349C14.0955 12.4831 14.4328 11.6369 14.4328 10.7164C14.4328 8.66381 12.769 7 10.7164 7C8.66381 7 7 8.66381 7 10.7164C7 12.769 8.66381 14.4328 10.7164 14.4328C11.6369 14.4328 12.4831 14.0955 13.1349 13.5352L13.2893 13.6953V14.1469L16.1481 17L17 16.1481L14.1469 13.2893ZM10.7164 13.2893C9.29275 13.2893 8.14352 12.1401 8.14352 10.7164C8.14352 9.29275 9.29275 8.14352 10.7164 8.14352C12.1401 8.14352 13.2893 9.29275 13.2893 10.7164C13.2893 12.1401 12.1401 13.2893 10.7164 13.2893ZM10.4305 9.28701H11.0023V10.4305H12.1458V11.0023H11.0023V12.1458H10.4305V11.0023H9.28701V10.4305H10.4305V9.28701Z" fill="black"/>
<path fill-rule="evenodd" clip-rule="evenodd" d="M12 22C17.5228 22 22 17.5228 22 12C22 6.47715 17.5228 2 12 2C6.47715 2 2 6.47715 2 12C2 17.5228 6.47715 22 12 22ZM12 20C16.4183 20 20 16.4183 20 12C20 7.58172 16.4183 4 12 4C7.58172 4 4 7.58172 4 12C4 16.4183 7.58172 20 12 20Z" fill="black"/>
</svg>
