<svg width="24" height="24" viewBox="0 0 24 24" fill="none" xmlns="http://www.w3.org/2000/svg">
<path fill-rule="evenodd" clip-rule="evenodd" d="M22 12C22 17.5228 17.5228 22 12 22C6.47715 22 2 17.5228 2 12C2 6.47715 6.47715 2 12 2C17.5228 2 22 6.47715 22 12ZM13.6953 13.2893H14.1469L17 16.1481L16.1481 17L13.2893 14.1469V13.6953L13.1349 13.5352C12.4831 14.0955 11.6369 14.4328 10.7164 14.4328C8.66381 14.4328 7 12.769 7 10.7164C7 8.66381 8.66381 7 10.7164 7C12.769 7 14.4328 8.66381 14.4328 10.7164C14.4328 11.6369 14.0955 12.4831 13.5352 13.1349L13.6953 13.2893ZM8.14353 10.7164C8.14353 12.1401 9.29276 13.2893 10.7164 13.2893C12.1401 13.2893 13.2893 12.1401 13.2893 10.7164C13.2893 9.29274 12.1401 8.14351 10.7164 8.14351C9.29276 8.14351 8.14353 9.29274 8.14353 10.7164ZM9.22222 10.3333H12.5556V11.4444H9.22222V10.3333Z" fill="black"/>
</svg>
