<svg width="24" height="24" viewBox="0 0 24 24" fill="none" xmlns="http://www.w3.org/2000/svg">
<path d="M15.0515 14.3208H15.8645L21 19.4666L19.4666 21L14.3208 15.8645V15.0515L14.0429 14.7633C12.8696 15.7719 11.3465 16.3791 9.68954 16.3791C5.99485 16.3791 3 13.3842 3 9.68954C3 5.99485 5.99485 3 9.68954 3C13.3842 3 16.3791 5.99485 16.3791 9.68954C16.3791 11.3465 15.7719 12.8696 14.7633 14.0429L15.0515 14.3208Z" fill="black"/>
<path d="M10.2041 7.11664H9.17496V9.17496H7.11664V10.2041H9.17496V12.2624H10.2041V10.2041H12.2624V9.17496H10.2041V7.11664Z" fill="white"/>
</svg>
